<svg width="43" height="15" viewBox="0 0 43 15" fill="none" xmlns="http://www.w3.org/2000/svg">
<path d="M1.538 14.144C1.166 14.144 0.878 14.042 0.674 13.838C0.482 13.622 0.386 13.328 0.386 12.956V2.354C0.386 1.97 0.482 1.676 0.674 1.472C0.878 1.268 1.166 1.166 1.538 1.166C1.91 1.166 2.192 1.268 2.384 1.472C2.588 1.676 2.69 1.97 2.69 2.354V12.956C2.69 13.328 2.594 13.622 2.402 13.838C2.21 14.042 1.922 14.144 1.538 14.144ZM6.56608 14.144C6.20608 14.144 5.93008 14.048 5.73808 13.856C5.54608 13.652 5.45008 13.364 5.45008 12.992V6.188C5.45008 5.816 5.54608 5.534 5.73808 5.342C5.93008 5.15 6.20008 5.054 6.54808 5.054C6.89608 5.054 7.16608 5.15 7.35808 5.342C7.55008 5.534 7.64608 5.816 7.64608 6.188V7.412L7.44808 6.962C7.71208 6.326 8.12008 5.846 8.67208 5.522C9.23608 5.186 9.87208 5.018 10.5801 5.018C11.2881 5.018 11.8701 5.15 12.3261 5.414C12.7821 5.678 13.1241 6.08 13.3521 6.62C13.5801 7.148 13.6941 7.82 13.6941 8.636V12.992C13.6941 13.364 13.5981 13.652 13.4061 13.856C13.2141 14.048 12.9381 14.144 12.5781 14.144C12.2181 14.144 11.9361 14.048 11.7321 13.856C11.5401 13.652 11.4441 13.364 11.4441 12.992V8.744C11.4441 8.06 11.3121 7.562 11.0481 7.25C10.7961 6.938 10.4001 6.782 9.86008 6.782C9.20008 6.782 8.67208 6.992 8.27608 7.412C7.89208 7.82 7.70008 8.366 7.70008 9.05V12.992C7.70008 13.76 7.32208 14.144 6.56608 14.144ZM17.2954 14.126C16.9354 14.126 16.6594 14.018 16.4674 13.802C16.2754 13.586 16.1794 13.286 16.1794 12.902V6.296C16.1794 5.9 16.2754 5.6 16.4674 5.396C16.6594 5.18 16.9354 5.072 17.2954 5.072C17.6554 5.072 17.9314 5.18 18.1234 5.396C18.3274 5.6 18.4294 5.9 18.4294 6.296V12.902C18.4294 13.286 18.3334 13.586 18.1414 13.802C17.9494 14.018 17.6674 14.126 17.2954 14.126ZM18.1414 3.92C18.0214 4.088 17.8774 4.184 17.7094 4.208C17.5414 4.232 17.3794 4.202 17.2234 4.118C17.0674 4.034 16.9534 3.914 16.8814 3.758C16.8214 3.602 16.8394 3.428 16.9354 3.236L18.3034 0.553999C18.4114 0.325999 18.5554 0.181999 18.7354 0.122C18.9154 0.0499997 19.1014 0.0379995 19.2934 0.0859989C19.4854 0.133999 19.6474 0.223999 19.7794 0.356C19.9234 0.487999 20.0074 0.649999 20.0314 0.842C20.0674 1.022 20.0194 1.208 19.8874 1.4L18.1414 3.92ZM25.0353 14.18C24.1113 14.18 23.3073 13.994 22.6233 13.622C21.9393 13.238 21.4113 12.698 21.0393 12.002C20.6673 11.306 20.4813 10.49 20.4813 9.554C20.4813 8.846 20.5833 8.216 20.7873 7.664C21.0033 7.1 21.3093 6.626 21.7053 6.242C22.1013 5.846 22.5813 5.546 23.1453 5.342C23.7093 5.126 24.3393 5.018 25.0353 5.018C25.4313 5.018 25.8573 5.072 26.3133 5.18C26.7813 5.288 27.2193 5.468 27.6273 5.72C27.8193 5.84 27.9453 5.984 28.0053 6.152C28.0653 6.32 28.0773 6.494 28.0413 6.674C28.0053 6.842 27.9273 6.992 27.8073 7.124C27.6993 7.244 27.5613 7.322 27.3933 7.358C27.2253 7.382 27.0393 7.34 26.8353 7.232C26.5713 7.076 26.3013 6.962 26.0253 6.89C25.7493 6.806 25.4853 6.764 25.2333 6.764C24.8373 6.764 24.4893 6.83 24.1893 6.962C23.8893 7.082 23.6313 7.262 23.4153 7.502C23.2113 7.73 23.0553 8.018 22.9473 8.366C22.8393 8.714 22.7853 9.116 22.7853 9.572C22.7853 10.46 22.9953 11.162 23.4153 11.678C23.8473 12.182 24.4533 12.434 25.2333 12.434C25.4853 12.434 25.7433 12.398 26.0073 12.326C26.2833 12.254 26.5593 12.14 26.8353 11.984C27.0393 11.876 27.2193 11.84 27.3753 11.876C27.5433 11.912 27.6813 11.996 27.7893 12.128C27.8973 12.248 27.9633 12.398 27.9873 12.578C28.0113 12.746 27.9873 12.914 27.9153 13.082C27.8553 13.25 27.7353 13.388 27.5553 13.496C27.1593 13.736 26.7393 13.91 26.2953 14.018C25.8513 14.126 25.4313 14.18 25.0353 14.18ZM30.7735 14.126C30.4135 14.126 30.1375 14.018 29.9455 13.802C29.7535 13.586 29.6575 13.286 29.6575 12.902V6.296C29.6575 5.9 29.7535 5.6 29.9455 5.396C30.1375 5.18 30.4135 5.072 30.7735 5.072C31.1335 5.072 31.4095 5.18 31.6015 5.396C31.8055 5.6 31.9075 5.9 31.9075 6.296V12.902C31.9075 13.286 31.8115 13.586 31.6195 13.802C31.4275 14.018 31.1455 14.126 30.7735 14.126ZM30.7735 3.398C30.3535 3.398 30.0235 3.296 29.7835 3.092C29.5555 2.876 29.4415 2.582 29.4415 2.21C29.4415 1.826 29.5555 1.532 29.7835 1.328C30.0235 1.124 30.3535 1.022 30.7735 1.022C31.2055 1.022 31.5355 1.124 31.7635 1.328C31.9915 1.532 32.1055 1.826 32.1055 2.21C32.1055 2.582 31.9915 2.876 31.7635 3.092C31.5355 3.296 31.2055 3.398 30.7735 3.398ZM38.4594 14.18C37.5474 14.18 36.7554 13.994 36.0834 13.622C35.4114 13.25 34.8894 12.722 34.5174 12.038C34.1454 11.342 33.9594 10.526 33.9594 9.59C33.9594 8.882 34.0614 8.252 34.2654 7.7C34.4814 7.136 34.7874 6.656 35.1834 6.26C35.5794 5.852 36.0534 5.546 36.6054 5.342C37.1574 5.126 37.7754 5.018 38.4594 5.018C39.3714 5.018 40.1634 5.204 40.8354 5.576C41.5074 5.948 42.0294 6.476 42.4014 7.16C42.7734 7.844 42.9594 8.654 42.9594 9.59C42.9594 10.298 42.8514 10.934 42.6354 11.498C42.4314 12.062 42.1314 12.548 41.7354 12.956C41.3394 13.352 40.8654 13.658 40.3134 13.874C39.7614 14.078 39.1434 14.18 38.4594 14.18ZM38.4594 12.47C38.9034 12.47 39.2934 12.362 39.6294 12.146C39.9654 11.93 40.2234 11.612 40.4034 11.192C40.5954 10.76 40.6914 10.226 40.6914 9.59C40.6914 8.63 40.4874 7.916 40.0794 7.448C39.6714 6.968 39.1314 6.728 38.4594 6.728C38.0154 6.728 37.6254 6.836 37.2894 7.052C36.9534 7.256 36.6894 7.574 36.4974 8.006C36.3174 8.426 36.2274 8.954 36.2274 9.59C36.2274 10.538 36.4314 11.258 36.8394 11.75C37.2474 12.23 37.7874 12.47 38.4594 12.47Z" fill="white"/>
</svg>
