<svg width="32" height="32" viewBox="0 0 32 32" fill="none" xmlns="http://www.w3.org/2000/svg">
<g id="Peoples/user">
<path id="Vector (Stroke)" fill-rule="evenodd" clip-rule="evenodd" d="M16 3.66675C13.6068 3.66675 11.6667 5.60685 11.6667 8.00008C11.6667 10.3933 13.6068 12.3334 16 12.3334C18.3933 12.3334 20.3334 10.3933 20.3334 8.00008C20.3334 5.60685 18.3933 3.66675 16 3.66675ZM9.66669 8.00008C9.66669 4.50228 12.5022 1.66675 16 1.66675C19.4978 1.66675 22.3334 4.50228 22.3334 8.00008C22.3334 11.4979 19.4978 14.3334 16 14.3334C12.5022 14.3334 9.66669 11.4979 9.66669 8.00008Z" fill="#AA6F34"/>
<path id="Vector (Stroke)_2" fill-rule="evenodd" clip-rule="evenodd" d="M3 29.3333C3 22.1536 8.82032 16.3333 16 16.3333C23.1797 16.3333 29 22.1536 29 29.3333C29 29.8855 28.5523 30.3333 28 30.3333C27.4477 30.3333 27 29.8855 27 29.3333C27 23.2581 22.0751 18.3333 16 18.3333C9.92488 18.3333 5 23.2581 5 29.3333C5 29.8855 4.55228 30.3333 4 30.3333C3.44772 30.3333 3 29.8855 3 29.3333Z" fill="#AA6F34"/>
</g>
</svg>
