<svg width="1067" height="712" viewBox="0 0 1067 712" fill="none" xmlns="http://www.w3.org/2000/svg">
<rect width="1067" height="712" fill="#FBFBFB"/>
<g clip-path="url(#clip0_0_1)">
<rect x="-332" y="-206" width="1920" height="1085" rx="24" fill="#F5F4F9"/>
<rect width="1067" height="712" rx="32" fill="white"/>
<path d="M45.2184 98.1392C44.5356 98.1392 43.9324 98.0182 43.4087 97.7763C42.8884 97.531 42.4824 97.1946 42.1907 96.767C41.899 96.3362 41.7548 95.8456 41.7582 95.2955C41.7548 94.8646 41.8394 94.4669 42.0117 94.1023C42.1841 93.7344 42.4194 93.4278 42.7177 93.1825C43.0193 92.9339 43.3557 92.7765 43.7269 92.7102V92.6506C43.2397 92.5246 42.8519 92.2512 42.5636 91.8303C42.2752 91.406 42.1327 90.9238 42.136 90.3835C42.1327 89.8665 42.2636 89.4041 42.5288 88.9964C42.7939 88.5888 43.1585 88.2673 43.6225 88.032C44.0898 87.7966 44.6218 87.679 45.2184 87.679C45.8084 87.679 46.3353 87.7966 46.7994 88.032C47.2634 88.2673 47.628 88.5888 47.8931 88.9964C48.1616 89.4041 48.2975 89.8665 48.3008 90.3835C48.2975 90.9238 48.15 91.406 47.8583 91.8303C47.57 92.2512 47.1871 92.5246 46.7099 92.6506V92.7102C47.0778 92.7765 47.4092 92.9339 47.7042 93.1825C47.9992 93.4278 48.2345 93.7344 48.4102 94.1023C48.5858 94.4669 48.6753 94.8646 48.6786 95.2955C48.6753 95.8456 48.5262 96.3362 48.2312 96.767C47.9395 97.1946 47.5335 97.531 47.0131 97.7763C46.4961 98.0182 45.8978 98.1392 45.2184 98.1392ZM45.2184 97.0455C45.6791 97.0455 46.0768 96.9709 46.4116 96.8217C46.7463 96.6726 47.0048 96.4621 47.1871 96.1903C47.3694 95.9186 47.4622 95.6004 47.4655 95.2358C47.4622 94.8513 47.3628 94.5116 47.1673 94.2166C46.9717 93.9216 46.7049 93.6896 46.3668 93.5206C46.0321 93.3516 45.6493 93.267 45.2184 93.267C44.7842 93.267 44.3964 93.3516 44.055 93.5206C43.717 93.6896 43.4502 93.9216 43.2546 94.2166C43.0624 94.5116 42.9679 94.8513 42.9712 95.2358C42.9679 95.6004 43.0557 95.9186 43.2347 96.1903C43.417 96.4621 43.6772 96.6726 44.0153 96.8217C44.3533 96.9709 44.7544 97.0455 45.2184 97.0455ZM45.2184 92.2131C45.583 92.2131 45.9061 92.1402 46.1878 91.9943C46.4729 91.8485 46.6966 91.6446 46.859 91.3828C47.0214 91.121 47.1043 90.8144 47.1076 90.4631C47.1043 90.1184 47.0231 89.8184 46.864 89.5632C46.7049 89.3047 46.4845 89.1058 46.2028 88.9666C45.921 88.8241 45.5929 88.7528 45.2184 88.7528C44.8372 88.7528 44.5041 88.8241 44.2191 88.9666C43.9341 89.1058 43.7137 89.3047 43.5579 89.5632C43.4021 89.8184 43.3259 90.1184 43.3292 90.4631C43.3259 90.8144 43.4038 91.121 43.5628 91.3828C43.7253 91.6446 43.949 91.8485 44.234 91.9943C44.5191 92.1402 44.8472 92.2131 45.2184 92.2131ZM53.625 98.1392C52.8759 98.1392 52.2379 97.9354 51.7109 97.5277C51.1839 97.1167 50.7813 96.5218 50.5028 95.7429C50.2244 94.9607 50.0852 94.0161 50.0852 92.9091C50.0852 91.8087 50.2244 90.8691 50.5028 90.0902C50.7846 89.308 51.1889 88.7114 51.7159 88.3004C52.2462 87.8861 52.8826 87.679 53.625 87.679C54.3674 87.679 55.0021 87.8861 55.5291 88.3004C56.0594 88.7114 56.4638 89.308 56.7422 90.0902C57.0239 90.8691 57.1648 91.8087 57.1648 92.9091C57.1648 94.0161 57.0256 94.9607 56.7472 95.7429C56.4688 96.5218 56.0661 97.1167 55.5391 97.5277C55.0121 97.9354 54.3741 98.1392 53.625 98.1392ZM53.625 97.0455C54.3674 97.0455 54.9441 96.6875 55.3551 95.9716C55.7661 95.2557 55.9716 94.2348 55.9716 92.9091C55.9716 92.0275 55.8771 91.2768 55.6882 90.657C55.5026 90.0372 55.2341 89.5649 54.8828 89.2401C54.5348 88.9152 54.1155 88.7528 53.625 88.7528C52.8892 88.7528 52.3142 89.1158 51.8999 89.8416C51.4856 90.5642 51.2784 91.5866 51.2784 92.9091C51.2784 93.7907 51.3712 94.5398 51.5568 95.1562C51.7424 95.7727 52.0092 96.2417 52.3572 96.5632C52.7086 96.8847 53.1312 97.0455 53.625 97.0455Z" fill="#212121"/>
<path d="M43.1229 159.111L47.6768 150.103V150.023H42.4268V148.93H48.9496V150.083L44.4155 159.111H43.1229ZM53.625 159.251C52.8759 159.251 52.2379 159.047 51.7109 158.639C51.1839 158.228 50.7813 157.633 50.5028 156.854C50.2244 156.072 50.0852 155.127 50.0852 154.02C50.0852 152.92 50.2244 151.98 50.5028 151.202C50.7846 150.419 51.1889 149.823 51.7159 149.412C52.2462 148.997 52.8826 148.79 53.625 148.79C54.3674 148.79 55.0021 148.997 55.5291 149.412C56.0594 149.823 56.4638 150.419 56.7422 151.202C57.0239 151.98 57.1648 152.92 57.1648 154.02C57.1648 155.127 57.0256 156.072 56.7472 156.854C56.4688 157.633 56.0661 158.228 55.5391 158.639C55.0121 159.047 54.3741 159.251 53.625 159.251ZM53.625 158.157C54.3674 158.157 54.9441 157.799 55.3551 157.083C55.7661 156.367 55.9716 155.346 55.9716 154.02C55.9716 153.139 55.8771 152.388 55.6882 151.768C55.5026 151.148 55.2341 150.676 54.8828 150.351C54.5348 150.027 54.1155 149.864 53.625 149.864C52.8892 149.864 52.3142 150.227 51.8999 150.953C51.4856 151.675 51.2784 152.698 51.2784 154.02C51.2784 154.902 51.3712 155.651 51.5568 156.268C51.7424 156.884 52.0092 157.353 52.3572 157.675C52.7086 157.996 53.1312 158.157 53.625 158.157Z" fill="#212121"/>
<path d="M45.2283 220.362C44.8107 220.355 44.3931 220.276 43.9755 220.123C43.5579 219.971 43.1767 219.714 42.832 219.353C42.4873 218.988 42.2106 218.496 42.0018 217.876C41.793 217.253 41.6886 216.471 41.6886 215.529C41.6886 214.628 41.7731 213.829 41.9421 213.133C42.1111 212.434 42.3564 211.846 42.6779 211.368C42.9994 210.888 43.3872 210.523 43.8413 210.275C44.2986 210.026 44.814 209.902 45.3874 209.902C45.9575 209.902 46.4646 210.016 46.9087 210.245C47.3562 210.47 47.7208 210.785 48.0025 211.189C48.2842 211.594 48.4665 212.059 48.5494 212.586H47.3363C47.2236 212.129 47.0048 211.749 46.68 211.448C46.3552 211.146 45.9244 210.995 45.3874 210.995C44.5986 210.995 43.9771 211.338 43.5231 212.025C43.0723 212.711 42.8453 213.673 42.842 214.913H42.9215C43.1071 214.631 43.3275 214.391 43.5827 214.192C43.8413 213.99 44.1263 213.834 44.4378 213.725C44.7494 213.615 45.0792 213.561 45.4272 213.561C46.0105 213.561 46.5441 213.707 47.028 213.998C47.5119 214.287 47.8997 214.686 48.1914 215.196C48.4831 215.703 48.6289 216.285 48.6289 216.941C48.6289 217.571 48.488 218.148 48.2063 218.672C47.9246 219.192 47.5285 219.606 47.0181 219.914C46.511 220.219 45.9144 220.368 45.2283 220.362ZM45.2283 219.268C45.6459 219.268 46.0205 219.164 46.3519 218.955C46.6867 218.746 46.9502 218.466 47.1424 218.115C47.3379 217.763 47.4357 217.372 47.4357 216.941C47.4357 216.52 47.3413 216.138 47.1523 215.793C46.9667 215.445 46.7099 215.168 46.3817 214.963C46.0569 214.757 45.6857 214.654 45.2681 214.654C44.9532 214.654 44.6599 214.717 44.3881 214.843C44.1164 214.966 43.8777 215.135 43.6722 215.35C43.47 215.566 43.311 215.813 43.195 216.091C43.0789 216.366 43.0209 216.656 43.0209 216.961C43.0209 217.366 43.1154 217.743 43.3043 218.095C43.4966 218.446 43.7584 218.73 44.0898 218.945C44.4246 219.16 44.8041 219.268 45.2283 219.268ZM53.625 220.362C52.8759 220.362 52.2379 220.158 51.7109 219.75C51.1839 219.339 50.7813 218.744 50.5028 217.966C50.2244 217.183 50.0852 216.239 50.0852 215.132C50.0852 214.031 50.2244 213.092 50.5028 212.313C50.7846 211.531 51.1889 210.934 51.7159 210.523C52.2462 210.109 52.8826 209.902 53.625 209.902C54.3674 209.902 55.0021 210.109 55.5291 210.523C56.0594 210.934 56.4638 211.531 56.7422 212.313C57.0239 213.092 57.1648 214.031 57.1648 215.132C57.1648 216.239 57.0256 217.183 56.7472 217.966C56.4688 218.744 56.0661 219.339 55.5391 219.75C55.0121 220.158 54.3741 220.362 53.625 220.362ZM53.625 219.268C54.3674 219.268 54.9441 218.91 55.3551 218.194C55.7661 217.478 55.9716 216.458 55.9716 215.132C55.9716 214.25 55.8771 213.499 55.6882 212.88C55.5026 212.26 55.2341 211.788 54.8828 211.463C54.5348 211.138 54.1155 210.975 53.625 210.975C52.8892 210.975 52.3142 211.338 51.8999 212.064C51.4856 212.787 51.2784 213.809 51.2784 215.132C51.2784 216.013 51.3712 216.762 51.5568 217.379C51.7424 217.995 52.0092 218.464 52.3572 218.786C52.7086 219.107 53.1312 219.268 53.625 219.268Z" fill="#212121"/>
<path d="M45.2482 281.472C44.6649 281.472 44.1396 281.356 43.6722 281.124C43.2049 280.892 42.8304 280.574 42.5486 280.17C42.2669 279.765 42.1128 279.305 42.0863 278.788H43.2795C43.3259 279.248 43.5347 279.629 43.9059 279.931C44.2804 280.229 44.7279 280.378 45.2482 280.378C45.6658 280.378 46.037 280.281 46.3619 280.085C46.69 279.89 46.9468 279.621 47.1325 279.28C47.3214 278.935 47.4158 278.546 47.4158 278.111C47.4158 277.667 47.3181 277.271 47.1225 276.923C46.9303 276.572 46.6651 276.295 46.3271 276.093C45.989 275.891 45.6029 275.788 45.1687 275.785C44.8571 275.781 44.5373 275.829 44.2092 275.929C43.881 276.025 43.6109 276.149 43.3988 276.302L42.2454 276.163L42.8619 271.151H48.1516V272.245H43.8959L43.538 275.248H43.5976C43.8065 275.082 44.0683 274.945 44.3832 274.835C44.698 274.726 45.0262 274.671 45.3675 274.671C45.9906 274.671 46.5458 274.82 47.033 275.119C47.5235 275.414 47.908 275.818 48.1864 276.332C48.4682 276.845 48.609 277.432 48.609 278.092C48.609 278.741 48.4632 279.321 48.1715 279.832C47.8832 280.339 47.4854 280.74 46.9783 281.035C46.4712 281.326 45.8945 281.472 45.2482 281.472ZM53.625 281.472C52.8759 281.472 52.2379 281.268 51.7109 280.861C51.1839 280.45 50.7813 279.855 50.5028 279.076C50.2244 278.294 50.0852 277.349 50.0852 276.242C50.0852 275.142 50.2244 274.202 50.5028 273.423C50.7846 272.641 51.1889 272.044 51.7159 271.633C52.2462 271.219 52.8826 271.012 53.625 271.012C54.3674 271.012 55.0021 271.219 55.5291 271.633C56.0594 272.044 56.4638 272.641 56.7422 273.423C57.0239 274.202 57.1648 275.142 57.1648 276.242C57.1648 277.349 57.0256 278.294 56.7472 279.076C56.4688 279.855 56.0661 280.45 55.5391 280.861C55.0121 281.268 54.3741 281.472 53.625 281.472ZM53.625 280.378C54.3674 280.378 54.9441 280.021 55.3551 279.305C55.7661 278.589 55.9716 277.568 55.9716 276.242C55.9716 275.36 55.8771 274.61 55.6882 273.99C55.5026 273.37 55.2341 272.898 54.8828 272.573C54.5348 272.248 54.1155 272.086 53.625 272.086C52.8892 272.086 52.3142 272.449 51.8999 273.175C51.4856 273.897 51.2784 274.92 51.2784 276.242C51.2784 277.124 51.3712 277.873 51.5568 278.489C51.7424 279.106 52.0092 279.575 52.3572 279.896C52.7086 280.218 53.1312 280.378 53.625 280.378Z" fill="#212121"/>
<path d="M41.3629 340.356V339.342L45.8374 332.263H46.5731V333.834H46.076L42.6953 339.183V339.263H48.7209V340.356H41.3629ZM46.1555 342.444V340.048V339.576V332.263H47.3288V342.444H46.1555ZM53.625 342.584C52.8759 342.584 52.2379 342.38 51.7109 341.972C51.1839 341.561 50.7813 340.966 50.5028 340.187C50.2244 339.405 50.0852 338.46 50.0852 337.353C50.0852 336.253 50.2244 335.313 50.5028 334.535C50.7846 333.752 51.1889 333.156 51.7159 332.745C52.2462 332.33 52.8826 332.123 53.625 332.123C54.3674 332.123 55.0021 332.33 55.5291 332.745C56.0594 333.156 56.4638 333.752 56.7422 334.535C57.0239 335.313 57.1648 336.253 57.1648 337.353C57.1648 338.46 57.0256 339.405 56.7472 340.187C56.4688 340.966 56.0661 341.561 55.5391 341.972C55.0121 342.38 54.3741 342.584 53.625 342.584ZM53.625 341.49C54.3674 341.49 54.9441 341.132 55.3551 340.416C55.7661 339.7 55.9716 338.679 55.9716 337.353C55.9716 336.472 55.8771 335.721 55.6882 335.101C55.5026 334.482 55.2341 334.009 54.8828 333.684C54.5348 333.36 54.1155 333.197 53.625 333.197C52.8892 333.197 52.3142 333.56 51.8999 334.286C51.4856 335.008 51.2784 336.031 51.2784 337.353C51.2784 338.235 51.3712 338.984 51.5568 339.601C51.7424 340.217 52.0092 340.686 52.3572 341.008C52.7086 341.329 53.1312 341.49 53.625 341.49Z" fill="#212121"/>
<path d="M45.1103 403.695C44.454 403.695 43.869 403.582 43.3553 403.357C42.8449 403.131 42.4389 402.818 42.1372 402.417C41.8389 402.013 41.6765 401.544 41.65 401.01H42.9029C42.9294 401.338 43.0421 401.622 43.2409 401.86C43.4398 402.096 43.7 402.278 44.0215 402.407C44.343 402.536 44.6993 402.601 45.0904 402.601C45.5279 402.601 45.9157 402.525 46.2537 402.372C46.5918 402.22 46.8569 402.008 47.0492 401.736C47.2414 401.464 47.3375 401.149 47.3375 400.791C47.3375 400.417 47.2447 400.087 47.0591 399.802C46.8735 399.514 46.6017 399.288 46.2438 399.126C45.8858 398.964 45.4483 398.882 44.9313 398.882H44.1159V397.789H44.9313C45.3356 397.789 45.6903 397.716 45.9952 397.57C46.3034 397.424 46.5437 397.219 46.7161 396.953C46.8917 396.688 46.9796 396.377 46.9796 396.019C46.9796 395.674 46.9033 395.374 46.7509 395.119C46.5984 394.864 46.383 394.665 46.1046 394.522C45.8295 394.38 45.5047 394.309 45.1301 394.309C44.7788 394.309 44.4474 394.373 44.1358 394.502C43.8276 394.628 43.5757 394.812 43.3801 395.054C43.1846 395.293 43.0785 395.581 43.062 395.919H41.8688C41.8887 395.386 42.0494 394.918 42.351 394.517C42.6526 394.113 43.047 393.798 43.5343 393.573C44.0248 393.347 44.5634 393.235 45.15 393.235C45.7798 393.235 46.32 393.362 46.7708 393.617C47.2215 393.869 47.5679 394.202 47.8098 394.617C48.0518 395.031 48.1728 395.478 48.1728 395.959C48.1728 396.532 48.022 397.021 47.7203 397.426C47.422 397.83 47.016 398.11 46.5023 398.266V398.345C47.1453 398.451 47.6474 398.725 48.0087 399.166C48.37 399.603 48.5506 400.145 48.5506 400.791C48.5506 401.345 48.3998 401.842 48.0982 402.283C47.7999 402.72 47.3922 403.065 46.8752 403.317C46.3581 403.569 45.7698 403.695 45.1103 403.695ZM53.625 403.695C52.8759 403.695 52.2379 403.491 51.7109 403.083C51.1839 402.672 50.7813 402.077 50.5028 401.299C50.2244 400.516 50.0852 399.572 50.0852 398.465C50.0852 397.364 50.2244 396.425 50.5028 395.646C50.7846 394.864 51.1889 394.267 51.7159 393.856C52.2462 393.442 52.8826 393.235 53.625 393.235C54.3674 393.235 55.0021 393.442 55.5291 393.856C56.0594 394.267 56.4638 394.864 56.7422 395.646C57.0239 396.425 57.1648 397.364 57.1648 398.465C57.1648 399.572 57.0256 400.516 56.7472 401.299C56.4688 402.077 56.0661 402.672 55.5391 403.083C55.0121 403.491 54.3741 403.695 53.625 403.695ZM53.625 402.601C54.3674 402.601 54.9441 402.243 55.3551 401.527C55.7661 400.811 55.9716 399.791 55.9716 398.465C55.9716 397.583 55.8771 396.832 55.6882 396.213C55.5026 395.593 55.2341 395.121 54.8828 394.796C54.5348 394.471 54.1155 394.309 53.625 394.309C52.8892 394.309 52.3142 394.671 51.8999 395.397C51.4856 396.12 51.2784 397.142 51.2784 398.465C51.2784 399.346 51.3712 400.095 51.5568 400.712C51.7424 401.328 52.0092 401.797 52.3572 402.119C52.7086 402.44 53.1312 402.601 53.625 402.601Z" fill="#212121"/>
<path d="M42.1074 464.667V463.772L45.4682 460.093C45.8626 459.662 46.1874 459.288 46.4426 458.97C46.6979 458.648 46.8868 458.346 47.0094 458.065C47.1354 457.78 47.1983 457.481 47.1983 457.17C47.1983 456.812 47.1122 456.502 46.9398 456.24C46.7708 455.978 46.5388 455.776 46.2438 455.634C45.9488 455.491 45.6174 455.42 45.2495 455.42C44.8584 455.42 44.517 455.501 44.2253 455.663C43.937 455.823 43.7132 456.046 43.5541 456.335C43.3984 456.623 43.3205 456.961 43.3205 457.349H42.1472C42.1472 456.752 42.2847 456.229 42.5598 455.778C42.8349 455.327 43.2095 454.976 43.6834 454.724C44.1607 454.472 44.696 454.346 45.2892 454.346C45.8858 454.346 46.4145 454.472 46.8752 454.724C47.3359 454.976 47.6971 455.315 47.959 455.743C48.2208 456.171 48.3517 456.646 48.3517 457.17C48.3517 457.544 48.2838 457.911 48.1479 458.269C48.0153 458.623 47.7833 459.019 47.4519 459.457C47.1238 459.891 46.668 460.421 46.0847 461.048L43.7978 463.494V463.573H48.5307V464.667H42.1074ZM53.625 464.806C52.8759 464.806 52.2379 464.602 51.7109 464.195C51.1839 463.784 50.7813 463.189 50.5028 462.41C50.2244 461.628 50.0852 460.683 50.0852 459.576C50.0852 458.476 50.2244 457.536 50.5028 456.757C50.7846 455.975 51.1889 455.378 51.7159 454.967C52.2462 454.553 52.8826 454.346 53.625 454.346C54.3674 454.346 55.0021 454.553 55.5291 454.967C56.0594 455.378 56.4638 455.975 56.7422 456.757C57.0239 457.536 57.1648 458.476 57.1648 459.576C57.1648 460.683 57.0256 461.628 56.7472 462.41C56.4688 463.189 56.0661 463.784 55.5391 464.195C55.0121 464.602 54.3741 464.806 53.625 464.806ZM53.625 463.712C54.3674 463.712 54.9441 463.354 55.3551 462.639C55.7661 461.923 55.9716 460.902 55.9716 459.576C55.9716 458.694 55.8771 457.944 55.6882 457.324C55.5026 456.704 55.2341 456.232 54.8828 455.907C54.5348 455.582 54.1155 455.42 53.625 455.42C52.8892 455.42 52.3142 455.783 51.8999 456.509C51.4856 457.231 51.2784 458.254 51.2784 459.576C51.2784 460.458 51.3712 461.207 51.5568 461.823C51.7424 462.44 52.0092 462.909 52.3572 463.23C52.7086 463.552 53.1312 463.712 53.625 463.712Z" fill="#212121"/>
<path d="M47.6557 515.596V525.777H46.4228V516.888H46.3631L43.8773 518.539V517.286L46.4228 515.596H47.6557ZM53.625 525.917C52.8759 525.917 52.2379 525.713 51.7109 525.305C51.1839 524.894 50.7812 524.299 50.5028 523.52C50.2244 522.738 50.0852 521.793 50.0852 520.686C50.0852 519.586 50.2244 518.646 50.5028 517.868C50.7846 517.085 51.1889 516.489 51.7159 516.078C52.2462 515.663 52.8826 515.456 53.625 515.456C54.3674 515.456 55.0021 515.663 55.5291 516.078C56.0594 516.489 56.4638 517.085 56.7422 517.868C57.0239 518.646 57.1648 519.586 57.1648 520.686C57.1648 521.793 57.0256 522.738 56.7472 523.52C56.4687 524.299 56.0661 524.894 55.5391 525.305C55.0121 525.713 54.3741 525.917 53.625 525.917ZM53.625 524.823C54.3674 524.823 54.9441 524.465 55.3551 523.749C55.7661 523.033 55.9716 522.012 55.9716 520.686C55.9716 519.805 55.8771 519.054 55.6882 518.434C55.5026 517.815 55.2341 517.342 54.8828 517.017C54.5348 516.693 54.1155 516.53 53.625 516.53C52.8892 516.53 52.3142 516.893 51.8999 517.619C51.4856 518.342 51.2784 519.364 51.2784 520.686C51.2784 521.568 51.3712 522.317 51.5568 522.934C51.7424 523.55 52.0092 524.019 52.3572 524.341C52.7086 524.662 53.1312 524.823 53.625 524.823Z" fill="#212121"/>
<path d="M53.7182 587.028C53.1349 587.028 52.6096 586.912 52.1422 586.68C51.6749 586.448 51.3004 586.13 51.0186 585.725C50.7369 585.321 50.5828 584.86 50.5563 584.343H51.7495C51.7959 584.804 52.0047 585.185 52.3759 585.487C52.7504 585.785 53.1979 585.934 53.7182 585.934C54.1358 585.934 54.507 585.836 54.8319 585.641C55.16 585.445 55.4168 585.177 55.6025 584.835C55.7914 584.491 55.8858 584.101 55.8858 583.667C55.8858 583.223 55.7881 582.827 55.5925 582.479C55.4003 582.128 55.1351 581.851 54.7971 581.649C54.459 581.446 54.0729 581.344 53.6387 581.34C53.3271 581.337 53.0073 581.385 52.6792 581.485C52.351 581.581 52.0809 581.705 51.8688 581.857L50.7154 581.718L51.3319 576.707H56.6216V577.801H52.3659L52.008 580.803H52.0676C52.2765 580.638 52.5383 580.5 52.8532 580.391C53.168 580.281 53.4962 580.227 53.8375 580.227C54.4606 580.227 55.0158 580.376 55.503 580.674C55.9935 580.969 56.378 581.374 56.6564 581.887C56.9382 582.401 57.079 582.988 57.079 583.647C57.079 584.297 56.9332 584.877 56.6415 585.387C56.3532 585.894 55.9554 586.295 55.4483 586.59C54.9412 586.882 54.3645 587.028 53.7182 587.028Z" fill="#212121"/>
<path d="M53.625 648.139C52.8759 648.139 52.2379 647.935 51.7109 647.528C51.1839 647.117 50.7813 646.522 50.5028 645.743C50.2244 644.961 50.0852 644.016 50.0852 642.909C50.0852 641.809 50.2244 640.869 50.5028 640.09C50.7846 639.308 51.1889 638.711 51.7159 638.3C52.2462 637.886 52.8826 637.679 53.625 637.679C54.3674 637.679 55.0021 637.886 55.5291 638.3C56.0594 638.711 56.4638 639.308 56.7422 640.09C57.0239 640.869 57.1648 641.809 57.1648 642.909C57.1648 644.016 57.0256 644.961 56.7472 645.743C56.4688 646.522 56.0661 647.117 55.5391 647.528C55.0121 647.935 54.3741 648.139 53.625 648.139ZM53.625 647.045C54.3674 647.045 54.9441 646.687 55.3551 645.972C55.7661 645.256 55.9716 644.235 55.9716 642.909C55.9716 642.027 55.8771 641.277 55.6882 640.657C55.5026 640.037 55.2341 639.565 54.8828 639.24C54.5348 638.915 54.1155 638.753 53.625 638.753C52.8892 638.753 52.3142 639.116 51.8999 639.842C51.4856 640.564 51.2784 641.587 51.2784 642.909C51.2784 643.791 51.3712 644.54 51.5568 645.156C51.7424 645.773 52.0092 646.242 52.3572 646.563C52.7086 646.885 53.1312 647.045 53.625 647.045Z" fill="#212121"/>
<line x1="74.5" y1="101.5" x2="1019.5" y2="101.5" stroke="#EEEEEE" stroke-linecap="round"/>
<line x1="74.5" y1="162.5" x2="1019.5" y2="162.5" stroke="#EEEEEE" stroke-linecap="round"/>
<line x1="74.5" y1="223.5" x2="1019.5" y2="223.5" stroke="#EEEEEE" stroke-linecap="round"/>
<line x1="74.5" y1="284.5" x2="1019.5" y2="284.5" stroke="#EEEEEE" stroke-linecap="round"/>
<line x1="74.5" y1="345.5" x2="1019.5" y2="345.5" stroke="#EEEEEE" stroke-linecap="round"/>
<line x1="74.5" y1="406.5" x2="1019.5" y2="406.5" stroke="#EEEEEE" stroke-linecap="round"/>
<line x1="74.5" y1="467.5" x2="1019.5" y2="467.5" stroke="#EEEEEE" stroke-linecap="round"/>
<line x1="74.5" y1="528.5" x2="1019.5" y2="528.5" stroke="#EEEEEE" stroke-linecap="round"/>
<line x1="74.5" y1="589.5" x2="1019.5" y2="589.5" stroke="#EEEEEE" stroke-linecap="round"/>
<line x1="74.5" y1="650.5" x2="1019.5" y2="650.5" stroke="#EEEEEE" stroke-linecap="round"/>
<path d="M147.816 682.144C147.048 682.144 146.664 681.748 146.664 680.956V670.48C146.664 669.7 147.054 669.31 147.834 669.31H152.172C153.564 669.31 154.638 669.646 155.394 670.318C156.15 670.978 156.528 671.908 156.528 673.108C156.528 674.056 156.282 674.842 155.79 675.466C155.298 676.078 154.59 676.492 153.666 676.708C154.278 676.9 154.782 677.362 155.178 678.094L156.528 680.596C156.732 680.98 156.768 681.334 156.636 681.658C156.516 681.982 156.21 682.144 155.718 682.144C155.394 682.144 155.13 682.078 154.926 681.946C154.722 681.802 154.542 681.586 154.386 681.298L152.568 677.95C152.352 677.542 152.094 677.272 151.794 677.14C151.506 676.996 151.134 676.924 150.678 676.924H148.968V680.956C148.968 681.748 148.584 682.144 147.816 682.144ZM148.968 675.214H151.776C153.456 675.214 154.296 674.53 154.296 673.162C154.296 671.806 153.456 671.128 151.776 671.128H148.968V675.214ZM161.798 682.18C161.162 682.18 160.592 682.06 160.088 681.82C159.596 681.568 159.206 681.232 158.918 680.812C158.642 680.392 158.504 679.918 158.504 679.39C158.504 678.742 158.672 678.232 159.008 677.86C159.344 677.476 159.89 677.2 160.646 677.032C161.402 676.864 162.416 676.78 163.688 676.78H164.318V676.402C164.318 675.802 164.186 675.37 163.922 675.106C163.658 674.842 163.214 674.71 162.59 674.71C162.242 674.71 161.864 674.752 161.456 674.836C161.06 674.92 160.64 675.064 160.196 675.268C159.908 675.4 159.668 675.418 159.476 675.322C159.284 675.214 159.152 675.052 159.08 674.836C159.02 674.608 159.032 674.38 159.116 674.152C159.212 673.924 159.398 673.756 159.674 673.648C160.226 673.42 160.754 673.258 161.258 673.162C161.774 673.066 162.242 673.018 162.662 673.018C163.946 673.018 164.9 673.318 165.524 673.918C166.148 674.506 166.46 675.424 166.46 676.672V680.992C166.46 681.76 166.112 682.144 165.416 682.144C164.708 682.144 164.354 681.76 164.354 680.992V680.596C164.15 681.088 163.826 681.478 163.382 681.766C162.938 682.042 162.41 682.18 161.798 682.18ZM162.266 680.632C162.854 680.632 163.34 680.428 163.724 680.02C164.12 679.612 164.318 679.096 164.318 678.472V678.076H163.706C162.578 678.076 161.792 678.166 161.348 678.346C160.916 678.514 160.7 678.826 160.7 679.282C160.7 679.678 160.838 680.002 161.114 680.254C161.39 680.506 161.774 680.632 162.266 680.632ZM170.06 671.398C169.64 671.398 169.31 671.296 169.07 671.092C168.842 670.876 168.728 670.582 168.728 670.21C168.728 669.826 168.842 669.532 169.07 669.328C169.31 669.124 169.64 669.022 170.06 669.022C170.948 669.022 171.392 669.418 171.392 670.21C171.392 671.002 170.948 671.398 170.06 671.398ZM170.06 682.126C169.7 682.126 169.424 682.018 169.232 681.802C169.04 681.586 168.944 681.286 168.944 680.902V674.296C168.944 673.48 169.316 673.072 170.06 673.072C170.816 673.072 171.194 673.48 171.194 674.296V680.902C171.194 681.286 171.098 681.586 170.906 681.802C170.714 682.018 170.432 682.126 170.06 682.126ZM177.296 682.144C176.696 682.144 176.252 681.826 175.964 681.19L173.102 674.548C172.934 674.152 172.928 673.804 173.084 673.504C173.252 673.204 173.582 673.054 174.074 673.054C174.35 673.054 174.572 673.12 174.74 673.252C174.908 673.372 175.058 673.606 175.19 673.954L177.35 679.354L179.582 673.936C179.714 673.6 179.864 673.372 180.032 673.252C180.212 673.12 180.452 673.054 180.752 673.054C181.136 673.054 181.406 673.204 181.562 673.504C181.718 673.804 181.712 674.146 181.544 674.53L178.628 681.19C178.364 681.826 177.92 682.144 177.296 682.144ZM186.146 682.18C185.51 682.18 184.94 682.06 184.436 681.82C183.944 681.568 183.554 681.232 183.266 680.812C182.99 680.392 182.852 679.918 182.852 679.39C182.852 678.742 183.02 678.232 183.356 677.86C183.692 677.476 184.238 677.2 184.994 677.032C185.75 676.864 186.764 676.78 188.036 676.78H188.666V676.402C188.666 675.802 188.534 675.37 188.27 675.106C188.006 674.842 187.562 674.71 186.938 674.71C186.59 674.71 186.212 674.752 185.804 674.836C185.408 674.92 184.988 675.064 184.544 675.268C184.256 675.4 184.016 675.418 183.824 675.322C183.632 675.214 183.5 675.052 183.428 674.836C183.368 674.608 183.38 674.38 183.464 674.152C183.56 673.924 183.746 673.756 184.022 673.648C184.574 673.42 185.102 673.258 185.606 673.162C186.122 673.066 186.59 673.018 187.01 673.018C188.294 673.018 189.248 673.318 189.872 673.918C190.496 674.506 190.808 675.424 190.808 676.672V680.992C190.808 681.76 190.46 682.144 189.764 682.144C189.056 682.144 188.702 681.76 188.702 680.992V680.596C188.498 681.088 188.174 681.478 187.73 681.766C187.286 682.042 186.758 682.18 186.146 682.18ZM186.614 680.632C187.202 680.632 187.688 680.428 188.072 680.02C188.468 679.612 188.666 679.096 188.666 678.472V678.076H188.054C186.926 678.076 186.14 678.166 185.696 678.346C185.264 678.514 185.048 678.826 185.048 679.282C185.048 679.678 185.186 680.002 185.462 680.254C185.738 680.506 186.122 680.632 186.614 680.632Z" fill="#212121"/>
<path d="M330.275 682.144C329.507 682.144 329.123 681.748 329.123 680.956V671.236H325.613C324.953 671.236 324.623 670.912 324.623 670.264C324.623 669.628 324.953 669.31 325.613 669.31H334.937C335.597 669.31 335.927 669.628 335.927 670.264C335.927 670.912 335.597 671.236 334.937 671.236H331.427V680.956C331.427 681.748 331.043 682.144 330.275 682.144ZM336.973 682.144C336.205 682.144 335.821 681.76 335.821 680.992V674.188C335.821 673.432 336.187 673.054 336.919 673.054C337.651 673.054 338.017 673.432 338.017 674.188V674.746C338.449 673.714 339.373 673.138 340.789 673.018C341.305 672.958 341.593 673.252 341.653 673.9C341.713 674.536 341.401 674.89 340.717 674.962L340.321 674.998C338.845 675.142 338.107 675.898 338.107 677.266V680.992C338.107 681.76 337.729 682.144 336.973 682.144ZM344.185 671.398C343.765 671.398 343.435 671.296 343.195 671.092C342.967 670.876 342.853 670.582 342.853 670.21C342.853 669.826 342.967 669.532 343.195 669.328C343.435 669.124 343.765 669.022 344.185 669.022C345.073 669.022 345.517 669.418 345.517 670.21C345.517 671.002 345.073 671.398 344.185 671.398ZM344.185 682.126C343.825 682.126 343.549 682.018 343.357 681.802C343.165 681.586 343.069 681.286 343.069 680.902V674.296C343.069 673.48 343.441 673.072 344.185 673.072C344.941 673.072 345.319 673.48 345.319 674.296V680.902C345.319 681.286 345.223 681.586 345.031 681.802C344.839 682.018 344.557 682.126 344.185 682.126ZM351.079 682.18C350.563 682.18 350.017 682.126 349.441 682.018C348.865 681.91 348.349 681.724 347.893 681.46C347.641 681.316 347.485 681.142 347.425 680.938C347.365 680.722 347.371 680.524 347.443 680.344C347.527 680.152 347.659 680.014 347.839 679.93C348.031 679.846 348.253 679.864 348.505 679.984C348.985 680.212 349.435 680.374 349.855 680.47C350.275 680.554 350.689 680.596 351.097 680.596C351.673 680.596 352.099 680.5 352.375 680.308C352.663 680.104 352.807 679.84 352.807 679.516C352.807 679.012 352.435 678.688 351.691 678.544L349.891 678.202C348.367 677.914 347.605 677.122 347.605 675.826C347.605 675.25 347.761 674.752 348.073 674.332C348.397 673.912 348.841 673.588 349.405 673.36C349.969 673.132 350.617 673.018 351.349 673.018C352.405 673.018 353.347 673.252 354.175 673.72C354.403 673.84 354.535 674.008 354.571 674.224C354.619 674.428 354.595 674.626 354.499 674.818C354.415 674.998 354.277 675.13 354.085 675.214C353.893 675.286 353.671 675.262 353.419 675.142C353.047 674.95 352.687 674.812 352.339 674.728C352.003 674.644 351.679 674.602 351.367 674.602C350.779 674.602 350.341 674.704 350.053 674.908C349.777 675.112 349.639 675.382 349.639 675.718C349.639 676.246 349.981 676.57 350.665 676.69L352.465 677.032C353.245 677.176 353.833 677.44 354.229 677.824C354.637 678.208 354.841 678.724 354.841 679.372C354.841 680.248 354.499 680.938 353.815 681.442C353.131 681.934 352.219 682.18 351.079 682.18ZM360.79 682.18C358.462 682.18 357.298 681.028 357.298 678.724V674.89H356.362C355.762 674.89 355.462 674.608 355.462 674.044C355.462 673.48 355.762 673.198 356.362 673.198H357.298V671.56C357.298 670.804 357.676 670.426 358.432 670.426C359.176 670.426 359.548 670.804 359.548 671.56V673.198H361.456C362.056 673.198 362.356 673.48 362.356 674.044C362.356 674.608 362.056 674.89 361.456 674.89H359.548V678.598C359.548 679.174 359.674 679.606 359.926 679.894C360.178 680.182 360.586 680.326 361.15 680.326C361.354 680.326 361.534 680.308 361.69 680.272C361.846 680.236 361.984 680.212 362.104 680.2C362.248 680.188 362.368 680.236 362.464 680.344C362.56 680.44 362.608 680.644 362.608 680.956C362.608 681.196 362.566 681.412 362.482 681.604C362.41 681.784 362.272 681.91 362.068 681.982C361.912 682.03 361.708 682.072 361.456 682.108C361.204 682.156 360.982 682.18 360.79 682.18ZM368.117 682.18C367.121 682.18 366.263 681.994 365.543 681.622C364.823 681.25 364.265 680.722 363.869 680.038C363.485 679.354 363.293 678.544 363.293 677.608C363.293 676.696 363.479 675.898 363.851 675.214C364.235 674.53 364.757 673.996 365.417 673.612C366.089 673.216 366.851 673.018 367.703 673.018C368.951 673.018 369.935 673.414 370.655 674.206C371.387 674.998 371.753 676.078 371.753 677.446C371.753 677.89 371.465 678.112 370.889 678.112H365.453C365.621 679.684 366.521 680.47 368.153 680.47C368.465 680.47 368.813 680.434 369.197 680.362C369.593 680.278 369.965 680.14 370.313 679.948C370.625 679.768 370.889 679.714 371.105 679.786C371.321 679.846 371.471 679.972 371.555 680.164C371.651 680.356 371.663 680.572 371.591 680.812C371.531 681.04 371.363 681.238 371.087 681.406C370.667 681.67 370.181 681.868 369.629 682C369.089 682.12 368.585 682.18 368.117 682.18ZM367.793 674.548C367.133 674.548 366.599 674.752 366.191 675.16C365.783 675.568 365.537 676.12 365.453 676.816H369.881C369.833 676.084 369.629 675.526 369.269 675.142C368.921 674.746 368.429 674.548 367.793 674.548ZM374.152 682C373.84 682 373.606 681.904 373.45 681.712C373.294 681.508 373.228 681.268 373.252 680.992C373.276 680.716 373.402 680.452 373.63 680.2L377.86 674.89H374.044C373.468 674.89 373.18 674.608 373.18 674.044C373.18 673.48 373.468 673.198 374.044 673.198H379.372C379.732 673.198 379.996 673.294 380.164 673.486C380.344 673.678 380.422 673.912 380.398 674.188C380.386 674.452 380.266 674.71 380.038 674.962L375.754 680.308H379.786C380.362 680.308 380.65 680.59 380.65 681.154C380.65 681.718 380.362 682 379.786 682H374.152ZM385.147 682.18C384.511 682.18 383.941 682.06 383.437 681.82C382.945 681.568 382.555 681.232 382.267 680.812C381.991 680.392 381.853 679.918 381.853 679.39C381.853 678.742 382.021 678.232 382.357 677.86C382.693 677.476 383.239 677.2 383.995 677.032C384.751 676.864 385.765 676.78 387.037 676.78H387.667V676.402C387.667 675.802 387.535 675.37 387.271 675.106C387.007 674.842 386.563 674.71 385.939 674.71C385.591 674.71 385.213 674.752 384.805 674.836C384.409 674.92 383.989 675.064 383.545 675.268C383.257 675.4 383.017 675.418 382.825 675.322C382.633 675.214 382.501 675.052 382.429 674.836C382.369 674.608 382.381 674.38 382.465 674.152C382.561 673.924 382.747 673.756 383.023 673.648C383.575 673.42 384.103 673.258 384.607 673.162C385.123 673.066 385.591 673.018 386.011 673.018C387.295 673.018 388.249 673.318 388.873 673.918C389.497 674.506 389.809 675.424 389.809 676.672V680.992C389.809 681.76 389.461 682.144 388.765 682.144C388.057 682.144 387.703 681.76 387.703 680.992V680.596C387.499 681.088 387.175 681.478 386.731 681.766C386.287 682.042 385.759 682.18 385.147 682.18ZM385.615 680.632C386.203 680.632 386.689 680.428 387.073 680.02C387.469 679.612 387.667 679.096 387.667 678.472V678.076H387.055C385.927 678.076 385.141 678.166 384.697 678.346C384.265 678.514 384.049 678.826 384.049 679.282C384.049 679.678 384.187 680.002 384.463 680.254C384.739 680.506 385.123 680.632 385.615 680.632Z" fill="#212121"/>
<path d="M513.951 682.144C513.531 682.144 513.231 682 513.051 681.712C512.871 681.424 512.877 681.076 513.069 680.668L517.821 670.138C517.977 669.79 518.163 669.544 518.379 669.4C518.607 669.244 518.865 669.166 519.153 669.166C519.429 669.166 519.675 669.244 519.891 669.4C520.119 669.544 520.311 669.79 520.467 670.138L525.237 680.668C525.429 681.088 525.441 681.442 525.273 681.73C525.105 682.006 524.817 682.144 524.409 682.144C524.073 682.144 523.809 682.066 523.617 681.91C523.437 681.742 523.275 681.49 523.131 681.154L522.231 679.066H516.039L515.157 681.154C515.001 681.502 514.839 681.754 514.671 681.91C514.503 682.066 514.263 682.144 513.951 682.144ZM519.117 671.812L516.831 677.23H521.439L519.153 671.812H519.117ZM530.258 682.144C529.658 682.144 529.214 681.826 528.926 681.19L526.064 674.548C525.896 674.152 525.89 673.804 526.046 673.504C526.214 673.204 526.544 673.054 527.036 673.054C527.312 673.054 527.534 673.12 527.702 673.252C527.87 673.372 528.02 673.606 528.152 673.954L530.312 679.354L532.544 673.936C532.676 673.6 532.826 673.372 532.994 673.252C533.174 673.12 533.414 673.054 533.714 673.054C534.098 673.054 534.368 673.204 534.524 673.504C534.68 673.804 534.674 674.146 534.506 674.53L531.59 681.19C531.326 681.826 530.882 682.144 530.258 682.144ZM540.548 682.18C539.552 682.18 538.694 681.994 537.974 681.622C537.254 681.25 536.696 680.722 536.3 680.038C535.916 679.354 535.724 678.544 535.724 677.608C535.724 676.696 535.91 675.898 536.282 675.214C536.666 674.53 537.188 673.996 537.848 673.612C538.52 673.216 539.282 673.018 540.134 673.018C541.382 673.018 542.366 673.414 543.086 674.206C543.818 674.998 544.184 676.078 544.184 677.446C544.184 677.89 543.896 678.112 543.32 678.112H537.884C538.052 679.684 538.952 680.47 540.584 680.47C540.896 680.47 541.244 680.434 541.628 680.362C542.024 680.278 542.396 680.14 542.744 679.948C543.056 679.768 543.32 679.714 543.536 679.786C543.752 679.846 543.902 679.972 543.986 680.164C544.082 680.356 544.094 680.572 544.022 680.812C543.962 681.04 543.794 681.238 543.518 681.406C543.098 681.67 542.612 681.868 542.06 682C541.52 682.12 541.016 682.18 540.548 682.18ZM540.224 674.548C539.564 674.548 539.03 674.752 538.622 675.16C538.214 675.568 537.968 676.12 537.884 676.816H542.312C542.264 676.084 542.06 675.526 541.7 675.142C541.352 674.746 540.86 674.548 540.224 674.548ZM547.318 682.144C546.55 682.144 546.166 681.76 546.166 680.992V674.188C546.166 673.432 546.532 673.054 547.264 673.054C547.996 673.054 548.362 673.432 548.362 674.188V674.746C548.794 673.714 549.718 673.138 551.134 673.018C551.65 672.958 551.938 673.252 551.998 673.9C552.058 674.536 551.746 674.89 551.062 674.962L550.666 674.998C549.19 675.142 548.452 675.898 548.452 677.266V680.992C548.452 681.76 548.074 682.144 547.318 682.144ZM556.549 682.18C556.033 682.18 555.487 682.126 554.911 682.018C554.335 681.91 553.819 681.724 553.363 681.46C553.111 681.316 552.955 681.142 552.895 680.938C552.835 680.722 552.841 680.524 552.913 680.344C552.997 680.152 553.129 680.014 553.309 679.93C553.501 679.846 553.723 679.864 553.975 679.984C554.455 680.212 554.905 680.374 555.325 680.47C555.745 680.554 556.159 680.596 556.567 680.596C557.143 680.596 557.569 680.5 557.845 680.308C558.133 680.104 558.277 679.84 558.277 679.516C558.277 679.012 557.905 678.688 557.161 678.544L555.361 678.202C553.837 677.914 553.075 677.122 553.075 675.826C553.075 675.25 553.231 674.752 553.543 674.332C553.867 673.912 554.311 673.588 554.875 673.36C555.439 673.132 556.087 673.018 556.819 673.018C557.875 673.018 558.817 673.252 559.645 673.72C559.873 673.84 560.005 674.008 560.041 674.224C560.089 674.428 560.065 674.626 559.969 674.818C559.885 674.998 559.747 675.13 559.555 675.214C559.363 675.286 559.141 675.262 558.889 675.142C558.517 674.95 558.157 674.812 557.809 674.728C557.473 674.644 557.149 674.602 556.837 674.602C556.249 674.602 555.811 674.704 555.523 674.908C555.247 675.112 555.109 675.382 555.109 675.718C555.109 676.246 555.451 676.57 556.135 676.69L557.935 677.032C558.715 677.176 559.303 677.44 559.699 677.824C560.107 678.208 560.311 678.724 560.311 679.372C560.311 680.248 559.969 680.938 559.285 681.442C558.601 681.934 557.689 682.18 556.549 682.18ZM565.214 682.18C564.578 682.18 564.008 682.06 563.504 681.82C563.012 681.568 562.622 681.232 562.334 680.812C562.058 680.392 561.92 679.918 561.92 679.39C561.92 678.742 562.088 678.232 562.424 677.86C562.76 677.476 563.306 677.2 564.062 677.032C564.818 676.864 565.832 676.78 567.104 676.78H567.734V676.402C567.734 675.802 567.602 675.37 567.338 675.106C567.074 674.842 566.63 674.71 566.006 674.71C565.658 674.71 565.28 674.752 564.872 674.836C564.476 674.92 564.056 675.064 563.612 675.268C563.324 675.4 563.084 675.418 562.892 675.322C562.7 675.214 562.568 675.052 562.496 674.836C562.436 674.608 562.448 674.38 562.532 674.152C562.628 673.924 562.814 673.756 563.09 673.648C563.642 673.42 564.17 673.258 564.674 673.162C565.19 673.066 565.658 673.018 566.078 673.018C567.362 673.018 568.316 673.318 568.94 673.918C569.564 674.506 569.876 675.424 569.876 676.672V680.992C569.876 681.76 569.528 682.144 568.832 682.144C568.124 682.144 567.77 681.76 567.77 680.992V680.596C567.566 681.088 567.242 681.478 566.798 681.766C566.354 682.042 565.826 682.18 565.214 682.18ZM565.682 680.632C566.27 680.632 566.756 680.428 567.14 680.02C567.536 679.612 567.734 679.096 567.734 678.472V678.076H567.122C565.994 678.076 565.208 678.166 564.764 678.346C564.332 678.514 564.116 678.826 564.116 679.282C564.116 679.678 564.254 680.002 564.53 680.254C564.806 680.506 565.19 680.632 565.682 680.632ZM563.234 671.542C563.054 671.53 562.916 671.47 562.82 671.362C562.724 671.254 562.7 671.086 562.748 670.858C562.808 670.522 562.916 670.198 563.072 669.886C563.24 669.562 563.468 669.292 563.756 669.076C564.044 668.86 564.404 668.752 564.836 668.752C565.136 668.752 565.4 668.812 565.628 668.932C565.856 669.052 566.066 669.19 566.258 669.346C566.45 669.502 566.642 669.64 566.834 669.76C567.026 669.88 567.236 669.94 567.464 669.94C567.716 669.94 567.932 669.856 568.112 669.688C568.304 669.508 568.424 669.286 568.472 669.022C568.532 668.746 568.742 668.614 569.102 668.626C569.282 668.638 569.42 668.698 569.516 668.806C569.612 668.914 569.636 669.082 569.588 669.31C569.528 669.634 569.414 669.958 569.246 670.282C569.078 670.606 568.85 670.876 568.562 671.092C568.286 671.308 567.932 671.416 567.5 671.416C567.2 671.416 566.936 671.356 566.708 671.236C566.48 671.116 566.264 670.978 566.06 670.822C565.868 670.666 565.676 670.528 565.484 670.408C565.292 670.288 565.088 670.228 564.872 670.228C564.62 670.228 564.404 670.312 564.224 670.48C564.044 670.648 563.924 670.87 563.864 671.146C563.804 671.422 563.594 671.554 563.234 671.542ZM576.374 682.18C575.462 682.18 574.67 681.994 573.998 681.622C573.326 681.25 572.804 680.722 572.432 680.038C572.06 679.342 571.874 678.526 571.874 677.59C571.874 676.654 572.06 675.844 572.432 675.16C572.804 674.476 573.326 673.948 573.998 673.576C574.67 673.204 575.462 673.018 576.374 673.018C577.286 673.018 578.078 673.204 578.75 673.576C579.422 673.948 579.944 674.476 580.316 675.16C580.688 675.844 580.874 676.654 580.874 677.59C580.874 678.526 580.688 679.342 580.316 680.038C579.944 680.722 579.422 681.25 578.75 681.622C578.078 681.994 577.286 682.18 576.374 682.18ZM576.374 680.47C577.046 680.47 577.586 680.23 577.994 679.75C578.402 679.258 578.606 678.538 578.606 677.59C578.606 676.63 578.402 675.916 577.994 675.448C577.586 674.968 577.046 674.728 576.374 674.728C575.702 674.728 575.162 674.968 574.754 675.448C574.346 675.916 574.142 676.63 574.142 677.59C574.142 678.538 574.346 679.258 574.754 679.75C575.162 680.23 575.702 680.47 576.374 680.47Z" fill="#212121"/>
<path d="M695.801 682.144C695.009 682.144 694.613 681.736 694.613 680.92V670.534C694.613 669.718 695.021 669.31 695.837 669.31H702.119C702.743 669.31 703.055 669.61 703.055 670.21C703.055 670.834 702.743 671.146 702.119 671.146H696.917V674.728H701.741C702.365 674.728 702.677 675.028 702.677 675.628C702.677 676.252 702.365 676.564 701.741 676.564H696.917V680.92C696.917 681.736 696.545 682.144 695.801 682.144ZM708.726 682.18C707.73 682.18 706.872 681.994 706.152 681.622C705.432 681.25 704.874 680.722 704.478 680.038C704.094 679.354 703.902 678.544 703.902 677.608C703.902 676.696 704.088 675.898 704.46 675.214C704.844 674.53 705.366 673.996 706.026 673.612C706.698 673.216 707.46 673.018 708.312 673.018C709.56 673.018 710.544 673.414 711.264 674.206C711.996 674.998 712.362 676.078 712.362 677.446C712.362 677.89 712.074 678.112 711.498 678.112H706.062C706.23 679.684 707.13 680.47 708.762 680.47C709.074 680.47 709.422 680.434 709.806 680.362C710.202 680.278 710.574 680.14 710.922 679.948C711.234 679.768 711.498 679.714 711.714 679.786C711.93 679.846 712.08 679.972 712.164 680.164C712.26 680.356 712.272 680.572 712.2 680.812C712.14 681.04 711.972 681.238 711.696 681.406C711.276 681.67 710.79 681.868 710.238 682C709.698 682.12 709.194 682.18 708.726 682.18ZM708.402 674.548C707.742 674.548 707.208 674.752 706.8 675.16C706.392 675.568 706.146 676.12 706.062 676.816H710.49C710.442 676.084 710.238 675.526 709.878 675.142C709.53 674.746 709.038 674.548 708.402 674.548ZM717.35 682.18C715.346 682.18 714.344 681.058 714.344 678.814V670.3C714.344 669.544 714.716 669.166 715.46 669.166C716.216 669.166 716.594 669.544 716.594 670.3V678.706C716.594 679.786 717.044 680.326 717.944 680.326C718.04 680.326 718.13 680.326 718.214 680.326C718.298 680.314 718.382 680.302 718.466 680.29C718.634 680.266 718.748 680.314 718.808 680.434C718.868 680.542 718.898 680.77 718.898 681.118C718.898 681.418 718.838 681.652 718.718 681.82C718.598 681.988 718.4 682.09 718.124 682.126C717.872 682.162 717.614 682.18 717.35 682.18ZM721.408 671.398C720.988 671.398 720.658 671.296 720.418 671.092C720.19 670.876 720.076 670.582 720.076 670.21C720.076 669.826 720.19 669.532 720.418 669.328C720.658 669.124 720.988 669.022 721.408 669.022C722.296 669.022 722.74 669.418 722.74 670.21C722.74 671.002 722.296 671.398 721.408 671.398ZM721.408 682.126C721.048 682.126 720.772 682.018 720.58 681.802C720.388 681.586 720.292 681.286 720.292 680.902V674.296C720.292 673.48 720.664 673.072 721.408 673.072C722.164 673.072 722.542 673.48 722.542 674.296V680.902C722.542 681.286 722.446 681.586 722.254 681.802C722.062 682.018 721.78 682.126 721.408 682.126ZM729.148 682.18C728.224 682.18 727.42 681.994 726.736 681.622C726.052 681.238 725.524 680.698 725.152 680.002C724.78 679.306 724.594 678.49 724.594 677.554C724.594 676.618 724.78 675.814 725.152 675.142C725.524 674.458 726.052 673.936 726.736 673.576C727.42 673.204 728.224 673.018 729.148 673.018C729.544 673.018 729.97 673.072 730.426 673.18C730.894 673.288 731.332 673.468 731.74 673.72C731.98 673.864 732.118 674.05 732.154 674.278C732.202 674.506 732.172 674.716 732.064 674.908C731.968 675.1 731.818 675.238 731.614 675.322C731.422 675.406 731.2 675.376 730.948 675.232C730.396 674.92 729.862 674.764 729.346 674.764C728.566 674.764 727.96 675.01 727.528 675.502C727.108 675.982 726.898 676.672 726.898 677.572C726.898 678.46 727.108 679.162 727.528 679.678C727.96 680.182 728.566 680.434 729.346 680.434C729.862 680.434 730.396 680.284 730.948 679.984C731.2 679.84 731.422 679.81 731.614 679.894C731.806 679.978 731.944 680.122 732.028 680.326C732.112 680.518 732.13 680.728 732.082 680.956C732.034 681.172 731.896 681.352 731.668 681.496C731.272 681.736 730.852 681.91 730.408 682.018C729.964 682.126 729.544 682.18 729.148 682.18ZM734.886 671.398C734.466 671.398 734.136 671.296 733.896 671.092C733.668 670.876 733.554 670.582 733.554 670.21C733.554 669.826 733.668 669.532 733.896 669.328C734.136 669.124 734.466 669.022 734.886 669.022C735.774 669.022 736.218 669.418 736.218 670.21C736.218 671.002 735.774 671.398 734.886 671.398ZM734.886 682.126C734.526 682.126 734.25 682.018 734.058 681.802C733.866 681.586 733.77 681.286 733.77 680.902V674.296C733.77 673.48 734.142 673.072 734.886 673.072C735.642 673.072 736.02 673.48 736.02 674.296V680.902C736.02 681.286 735.924 681.586 735.732 681.802C735.54 682.018 735.258 682.126 734.886 682.126ZM741.942 682.18C741.174 682.18 740.496 681.994 739.908 681.622C739.332 681.25 738.882 680.722 738.558 680.038C738.234 679.342 738.072 678.526 738.072 677.59C738.072 676.642 738.234 675.832 738.558 675.16C738.882 674.476 739.332 673.948 739.908 673.576C740.496 673.204 741.174 673.018 741.942 673.018C742.566 673.018 743.13 673.156 743.634 673.432C744.138 673.708 744.516 674.074 744.768 674.53V670.3C744.768 669.544 745.14 669.166 745.884 669.166C746.64 669.166 747.018 669.544 747.018 670.3V680.992C747.018 681.76 746.646 682.144 745.902 682.144C745.158 682.144 744.786 681.76 744.786 680.992V680.614C744.534 681.094 744.156 681.478 743.652 681.766C743.148 682.042 742.578 682.18 741.942 682.18ZM742.572 680.47C743.244 680.47 743.784 680.23 744.192 679.75C744.6 679.258 744.804 678.538 744.804 677.59C744.804 676.63 744.6 675.916 744.192 675.448C743.784 674.968 743.244 674.728 742.572 674.728C741.9 674.728 741.36 674.968 740.952 675.448C740.544 675.916 740.34 676.63 740.34 677.59C740.34 678.538 740.544 679.258 740.952 679.75C741.36 680.23 741.9 680.47 742.572 680.47ZM752.449 682.18C751.813 682.18 751.243 682.06 750.739 681.82C750.247 681.568 749.857 681.232 749.569 680.812C749.293 680.392 749.155 679.918 749.155 679.39C749.155 678.742 749.323 678.232 749.659 677.86C749.995 677.476 750.541 677.2 751.297 677.032C752.053 676.864 753.067 676.78 754.339 676.78H754.969V676.402C754.969 675.802 754.837 675.37 754.573 675.106C754.309 674.842 753.865 674.71 753.241 674.71C752.893 674.71 752.515 674.752 752.107 674.836C751.711 674.92 751.291 675.064 750.847 675.268C750.559 675.4 750.319 675.418 750.127 675.322C749.935 675.214 749.803 675.052 749.731 674.836C749.671 674.608 749.683 674.38 749.767 674.152C749.863 673.924 750.049 673.756 750.325 673.648C750.877 673.42 751.405 673.258 751.909 673.162C752.425 673.066 752.893 673.018 753.313 673.018C754.597 673.018 755.551 673.318 756.175 673.918C756.799 674.506 757.111 675.424 757.111 676.672V680.992C757.111 681.76 756.763 682.144 756.067 682.144C755.359 682.144 755.005 681.76 755.005 680.992V680.596C754.801 681.088 754.477 681.478 754.033 681.766C753.589 682.042 753.061 682.18 752.449 682.18ZM752.917 680.632C753.505 680.632 753.991 680.428 754.375 680.02C754.771 679.612 754.969 679.096 754.969 678.472V678.076H754.357C753.229 678.076 752.443 678.166 751.999 678.346C751.567 678.514 751.351 678.826 751.351 679.282C751.351 679.678 751.489 680.002 751.765 680.254C752.041 680.506 752.425 680.632 752.917 680.632ZM762.978 682.18C762.21 682.18 761.532 681.994 760.944 681.622C760.368 681.25 759.918 680.722 759.594 680.038C759.27 679.342 759.108 678.526 759.108 677.59C759.108 676.642 759.27 675.832 759.594 675.16C759.918 674.476 760.368 673.948 760.944 673.576C761.532 673.204 762.21 673.018 762.978 673.018C763.602 673.018 764.166 673.156 764.67 673.432C765.174 673.708 765.552 674.074 765.804 674.53V670.3C765.804 669.544 766.176 669.166 766.92 669.166C767.676 669.166 768.054 669.544 768.054 670.3V680.992C768.054 681.76 767.682 682.144 766.938 682.144C766.194 682.144 765.822 681.76 765.822 680.992V680.614C765.57 681.094 765.192 681.478 764.688 681.766C764.184 682.042 763.614 682.18 762.978 682.18ZM763.608 680.47C764.28 680.47 764.82 680.23 765.228 679.75C765.636 679.258 765.84 678.538 765.84 677.59C765.84 676.63 765.636 675.916 765.228 675.448C764.82 674.968 764.28 674.728 763.608 674.728C762.936 674.728 762.396 674.968 761.988 675.448C761.58 675.916 761.376 676.63 761.376 677.59C761.376 678.538 761.58 679.258 761.988 679.75C762.396 680.23 762.936 680.47 763.608 680.47ZM774.925 682.18C773.929 682.18 773.071 681.994 772.351 681.622C771.631 681.25 771.073 680.722 770.677 680.038C770.293 679.354 770.101 678.544 770.101 677.608C770.101 676.696 770.287 675.898 770.659 675.214C771.043 674.53 771.565 673.996 772.225 673.612C772.897 673.216 773.659 673.018 774.511 673.018C775.759 673.018 776.743 673.414 777.463 674.206C778.195 674.998 778.561 676.078 778.561 677.446C778.561 677.89 778.273 678.112 777.697 678.112H772.261C772.429 679.684 773.329 680.47 774.961 680.47C775.273 680.47 775.621 680.434 776.005 680.362C776.401 680.278 776.773 680.14 777.121 679.948C777.433 679.768 777.697 679.714 777.913 679.786C778.129 679.846 778.279 679.972 778.363 680.164C778.459 680.356 778.471 680.572 778.399 680.812C778.339 681.04 778.171 681.238 777.895 681.406C777.475 681.67 776.989 681.868 776.437 682C775.897 682.12 775.393 682.18 774.925 682.18ZM774.601 674.548C773.941 674.548 773.407 674.752 772.999 675.16C772.591 675.568 772.345 676.12 772.261 676.816H776.689C776.641 676.084 776.437 675.526 776.077 675.142C775.729 674.746 775.237 674.548 774.601 674.548Z" fill="#212121"/>
<path d="M904.293 682.144C903.597 682.144 903.249 681.784 903.249 681.064V670.246C903.249 669.526 903.609 669.166 904.329 669.166C904.629 669.166 904.863 669.226 905.031 669.346C905.211 669.454 905.373 669.646 905.517 669.922L909.675 677.608L913.833 669.922C913.977 669.646 914.133 669.454 914.301 669.346C914.469 669.226 914.703 669.166 915.003 669.166C915.699 669.166 916.047 669.526 916.047 670.246V681.064C916.047 681.784 915.699 682.144 915.003 682.144C914.307 682.144 913.959 681.784 913.959 681.064V673.45L910.575 679.624C910.455 679.828 910.329 679.978 910.197 680.074C910.065 680.17 909.885 680.218 909.657 680.218C909.429 680.218 909.243 680.17 909.099 680.074C908.955 679.966 908.829 679.816 908.721 679.624L905.337 673.486V681.064C905.337 681.784 904.989 682.144 904.293 682.144ZM923.162 682.18C922.166 682.18 921.308 681.994 920.588 681.622C919.868 681.25 919.31 680.722 918.914 680.038C918.53 679.354 918.338 678.544 918.338 677.608C918.338 676.696 918.524 675.898 918.896 675.214C919.28 674.53 919.802 673.996 920.462 673.612C921.134 673.216 921.896 673.018 922.748 673.018C923.996 673.018 924.98 673.414 925.7 674.206C926.432 674.998 926.798 676.078 926.798 677.446C926.798 677.89 926.51 678.112 925.934 678.112H920.498C920.666 679.684 921.566 680.47 923.198 680.47C923.51 680.47 923.858 680.434 924.242 680.362C924.638 680.278 925.01 680.14 925.358 679.948C925.67 679.768 925.934 679.714 926.15 679.786C926.366 679.846 926.516 679.972 926.6 680.164C926.696 680.356 926.708 680.572 926.636 680.812C926.576 681.04 926.408 681.238 926.132 681.406C925.712 681.67 925.226 681.868 924.674 682C924.134 682.12 923.63 682.18 923.162 682.18ZM922.838 674.548C922.178 674.548 921.644 674.752 921.236 675.16C920.828 675.568 920.582 676.12 920.498 676.816H924.926C924.878 676.084 924.674 675.526 924.314 675.142C923.966 674.746 923.474 674.548 922.838 674.548ZM932.163 682.18C931.395 682.18 930.717 681.994 930.129 681.622C929.553 681.25 929.103 680.722 928.779 680.038C928.455 679.342 928.293 678.526 928.293 677.59C928.293 676.642 928.455 675.832 928.779 675.16C929.103 674.476 929.553 673.948 930.129 673.576C930.717 673.204 931.395 673.018 932.163 673.018C932.787 673.018 933.351 673.156 933.855 673.432C934.359 673.708 934.737 674.074 934.989 674.53V670.3C934.989 669.544 935.361 669.166 936.105 669.166C936.861 669.166 937.239 669.544 937.239 670.3V680.992C937.239 681.76 936.867 682.144 936.123 682.144C935.379 682.144 935.007 681.76 935.007 680.992V680.614C934.755 681.094 934.377 681.478 933.873 681.766C933.369 682.042 932.799 682.18 932.163 682.18ZM932.793 680.47C933.465 680.47 934.005 680.23 934.413 679.75C934.821 679.258 935.025 678.538 935.025 677.59C935.025 676.63 934.821 675.916 934.413 675.448C934.005 674.968 933.465 674.728 932.793 674.728C932.121 674.728 931.581 674.968 931.173 675.448C930.765 675.916 930.561 676.63 930.561 677.59C930.561 678.538 930.765 679.258 931.173 679.75C931.581 680.23 932.121 680.47 932.793 680.47ZM943.786 682.18C942.874 682.18 942.082 681.994 941.41 681.622C940.738 681.25 940.216 680.722 939.844 680.038C939.472 679.342 939.286 678.526 939.286 677.59C939.286 676.654 939.472 675.844 939.844 675.16C940.216 674.476 940.738 673.948 941.41 673.576C942.082 673.204 942.874 673.018 943.786 673.018C944.698 673.018 945.49 673.204 946.162 673.576C946.834 673.948 947.356 674.476 947.728 675.16C948.1 675.844 948.286 676.654 948.286 677.59C948.286 678.526 948.1 679.342 947.728 680.038C947.356 680.722 946.834 681.25 946.162 681.622C945.49 681.994 944.698 682.18 943.786 682.18ZM943.786 680.47C944.458 680.47 944.998 680.23 945.406 679.75C945.814 679.258 946.018 678.538 946.018 677.59C946.018 676.63 945.814 675.916 945.406 675.448C944.998 674.968 944.458 674.728 943.786 674.728C943.114 674.728 942.574 674.968 942.166 675.448C941.758 675.916 941.554 676.63 941.554 677.59C941.554 678.538 941.758 679.258 942.166 679.75C942.574 680.23 943.114 680.47 943.786 680.47Z" fill="#212121"/>
<path d="M129 222C129 217.582 132.582 214 137 214H200C204.418 214 208 217.582 208 222V659H129V222Z" fill="#E42325"/>
<path d="M318 541C318 536.582 321.582 533 326 533H389C393.418 533 397 536.582 397 541V660H318V541Z" fill="#2C4D9C"/>
<path d="M507 475C507 470.582 510.582 467 515 467H578C582.418 467 586 470.582 586 475V660H507V475Z" fill="#009F44"/>
<path d="M697 344C697 339.582 700.582 336 705 336H768C772.418 336 776 339.582 776 344V660H697V344Z" fill="#F8BB03"/>
<path d="M886 475C886 470.582 889.582 467 894 467H957C961.418 467 965 470.582 965 475V660H886V475Z" fill="#892A85"/>
<path d="M48.24 53.18C46.7067 53.18 45.4133 52.8933 44.36 52.32C43.3067 51.7333 42.5067 50.9 41.96 49.82C41.4267 48.74 41.16 47.4533 41.16 45.96C41.16 44.48 41.4333 43.2 41.98 42.12C42.5267 41.0267 43.32 40.1867 44.36 39.6C45.4 39.0133 46.6467 38.72 48.1 38.72C48.9 38.72 49.68 38.8267 50.44 39.04C51.2133 39.24 51.9267 39.5733 52.58 40.04C52.8067 40.2 52.9333 40.4 52.96 40.64C53 40.8667 52.96 41.0867 52.84 41.3C52.7333 41.5 52.5733 41.64 52.36 41.72C52.1467 41.7867 51.9067 41.74 51.64 41.58C51.12 41.22 50.5733 40.96 50 40.8C49.4267 40.6267 48.7933 40.54 48.1 40.54C46.54 40.54 45.3533 41.0133 44.54 41.96C43.7267 42.8933 43.32 44.2267 43.32 45.96C43.32 47.7333 43.7333 49.08 44.56 50C45.4 50.92 46.6533 51.38 48.32 51.38C49.3333 51.38 50.34 51.2133 51.34 50.88V47.1H48.76C48.1867 47.1 47.9 46.8333 47.9 46.3C47.9 45.7933 48.1867 45.54 48.76 45.54H52.22C52.7933 45.54 53.08 45.8267 53.08 46.4V51.44C53.08 51.9467 52.8933 52.2733 52.52 52.42C51.9467 52.6467 51.2733 52.8333 50.5 52.98C49.7267 53.1133 48.9733 53.18 48.24 53.18ZM57.2689 53.14C56.5889 53.14 56.2489 52.8 56.2489 52.12V44.12C56.2489 43.44 56.5756 43.1 57.2289 43.1C57.8822 43.1 58.2089 43.44 58.2089 44.12V44.98C58.4756 44.38 58.8756 43.92 59.4089 43.6C59.9556 43.28 60.6156 43.0933 61.3889 43.04C61.8822 43 62.1489 43.2667 62.1889 43.84C62.2422 44.4267 61.9556 44.7467 61.3289 44.8L60.9489 44.84C59.1756 45.0133 58.2889 45.9267 58.2889 47.58V52.12C58.2889 52.8 57.9489 53.14 57.2689 53.14ZM67.0298 53.18C66.3498 53.18 65.7432 53.0467 65.2098 52.78C64.6765 52.5133 64.2498 52.1533 63.9298 51.7C63.6232 51.2467 63.4698 50.7333 63.4698 50.16C63.4698 49.44 63.6498 48.8733 64.0098 48.46C64.3832 48.0467 64.9898 47.7467 65.8298 47.56C66.6832 47.3733 67.8298 47.28 69.2698 47.28H69.9498V46.76C69.9498 46 69.7898 45.4533 69.4698 45.12C69.1498 44.7867 68.6232 44.62 67.8898 44.62C67.4632 44.62 67.0165 44.6733 66.5498 44.78C66.0965 44.8867 65.6232 45.0667 65.1298 45.32C64.8498 45.4533 64.6165 45.4733 64.4298 45.38C64.2565 45.2867 64.1365 45.14 64.0698 44.94C64.0032 44.74 64.0098 44.5333 64.0898 44.32C64.1698 44.1067 64.3365 43.9467 64.5898 43.84C65.1765 43.5733 65.7565 43.38 66.3298 43.26C66.9032 43.1267 67.4432 43.06 67.9498 43.06C69.2832 43.06 70.2698 43.38 70.9098 44.02C71.5498 44.6467 71.8698 45.6333 71.8698 46.98V52.12C71.8698 52.8 71.5565 53.14 70.9298 53.14C70.2898 53.14 69.9698 52.8 69.9698 52.12V51.38C69.7298 51.94 69.3565 52.38 68.8498 52.7C68.3432 53.02 67.7365 53.18 67.0298 53.18ZM67.4298 51.74C68.1498 51.74 68.7498 51.4867 69.2298 50.98C69.7098 50.4733 69.9498 49.8333 69.9498 49.06V48.52H69.2898C68.3165 48.52 67.5498 48.5667 66.9898 48.66C66.4432 48.7533 66.0498 48.9133 65.8098 49.14C65.5832 49.3533 65.4698 49.6533 65.4698 50.04C65.4698 50.5467 65.6432 50.96 65.9898 51.28C66.3365 51.5867 66.8165 51.74 67.4298 51.74ZM68.7698 41.84C68.6365 42.0533 68.4565 42.1533 68.2298 42.14C68.0032 42.1133 67.8165 42.0133 67.6698 41.84C67.5365 41.6667 67.5298 41.46 67.6498 41.22L69.2698 38.08C69.4032 37.8133 69.5765 37.66 69.7898 37.62C70.0165 37.58 70.2298 37.62 70.4298 37.74C70.6432 37.8467 70.7898 38.0067 70.8698 38.22C70.9498 38.42 70.9098 38.6333 70.7498 38.86L68.7698 41.84ZM82.692 41.06C81.8787 41.06 81.472 40.68 81.472 39.92C81.472 39.16 81.8787 38.78 82.692 38.78C83.5054 38.78 83.912 39.16 83.912 39.92C83.912 40.68 83.5054 41.06 82.692 41.06ZM76.452 53.14C75.772 53.14 75.432 52.8 75.432 52.12V44.8H74.312C73.7654 44.8 73.492 44.54 73.492 44.02C73.492 43.5 73.7654 43.24 74.312 43.24H75.432V43.06C75.432 41.7667 75.752 40.78 76.392 40.1C77.032 39.42 77.972 39.02 79.212 38.9L79.812 38.86C80.1187 38.82 80.3454 38.8733 80.492 39.02C80.6387 39.1667 80.7187 39.3467 80.732 39.56C80.7454 39.76 80.6987 39.94 80.592 40.1C80.4854 40.26 80.332 40.3533 80.132 40.38L79.592 40.42C78.8454 40.4733 78.2987 40.6933 77.952 41.08C77.6187 41.4667 77.452 42.0333 77.452 42.78V43.24H82.652C83.332 43.24 83.672 43.6 83.672 44.32V52.02C83.672 52.7533 83.332 53.12 82.652 53.12C81.9854 53.12 81.652 52.7533 81.652 52.02V44.8H77.452V52.12C77.452 52.8 77.1187 53.14 76.452 53.14ZM90.9927 53.18C89.9927 53.18 89.126 52.9733 88.3927 52.56C87.6727 52.1333 87.1127 51.54 86.7127 50.78C86.3127 50.0067 86.1127 49.1 86.1127 48.06C86.1127 46.5133 86.5527 45.2933 87.4327 44.4C88.3127 43.5067 89.4993 43.06 90.9927 43.06C91.4593 43.06 91.946 43.1333 92.4527 43.28C92.9727 43.4133 93.4527 43.64 93.8927 43.96C94.106 44.0933 94.226 44.2667 94.2527 44.48C94.2927 44.68 94.2593 44.8733 94.1527 45.06C94.0593 45.2333 93.9193 45.3533 93.7327 45.42C93.546 45.4733 93.3327 45.4333 93.0927 45.3C92.7727 45.0733 92.446 44.9133 92.1127 44.82C91.7793 44.7133 91.4593 44.66 91.1527 44.66C90.206 44.66 89.4727 44.96 88.9527 45.56C88.446 46.1467 88.1927 46.9867 88.1927 48.08C88.1927 49.1733 88.446 50.0333 88.9527 50.66C89.4727 51.2733 90.206 51.58 91.1527 51.58C91.4593 51.58 91.7727 51.5333 92.0927 51.44C92.426 51.3467 92.7593 51.1867 93.0927 50.96C93.3327 50.8267 93.5393 50.7933 93.7127 50.86C93.8993 50.9267 94.0327 51.0533 94.1127 51.24C94.206 51.4133 94.2327 51.6067 94.1927 51.82C94.166 52.02 94.046 52.1867 93.8327 52.32C93.406 52.6267 92.9393 52.8467 92.4327 52.98C91.9393 53.1133 91.4593 53.18 90.9927 53.18ZM100.273 53.18C99.2866 53.18 98.4333 52.9733 97.7133 52.56C96.9933 52.1467 96.4333 51.5667 96.0333 50.82C95.6466 50.06 95.4533 49.16 95.4533 48.12C95.4533 47.08 95.6466 46.1867 96.0333 45.44C96.4333 44.68 96.9933 44.0933 97.7133 43.68C98.4333 43.2667 99.2866 43.06 100.273 43.06C101.233 43.06 102.073 43.2667 102.793 43.68C103.513 44.0933 104.073 44.68 104.473 45.44C104.873 46.1867 105.073 47.08 105.073 48.12C105.073 49.16 104.873 50.06 104.473 50.82C104.073 51.5667 103.513 52.1467 102.793 52.56C102.073 52.9733 101.233 53.18 100.273 53.18ZM100.273 51.62C101.1 51.62 101.767 51.32 102.273 50.72C102.78 50.12 103.033 49.2533 103.033 48.12C103.033 46.9867 102.78 46.1267 102.273 45.54C101.767 44.94 101.1 44.64 100.273 44.64C99.4333 44.64 98.7599 44.94 98.2533 45.54C97.7466 46.1267 97.4933 46.9867 97.4933 48.12C97.4933 49.2533 97.7466 50.12 98.2533 50.72C98.7599 51.32 99.4333 51.62 100.273 51.62ZM116.735 53.18C115.882 53.18 115.129 52.98 114.475 52.58C113.835 52.1667 113.335 51.58 112.975 50.82C112.615 50.06 112.435 49.16 112.435 48.12C112.435 47.08 112.615 46.1867 112.975 45.44C113.335 44.68 113.835 44.0933 114.475 43.68C115.115 43.2667 115.869 43.06 116.735 43.06C117.469 43.06 118.122 43.22 118.695 43.54C119.269 43.86 119.695 44.2933 119.975 44.84V39.78C119.975 39.1 120.309 38.76 120.975 38.76C121.655 38.76 121.995 39.1 121.995 39.78V52.12C121.995 52.8 121.662 53.14 120.995 53.14C120.329 53.14 119.995 52.8 119.995 52.12V51.36C119.702 51.92 119.269 52.3667 118.695 52.7C118.122 53.02 117.469 53.18 116.735 53.18ZM117.255 51.62C118.082 51.62 118.749 51.32 119.255 50.72C119.762 50.12 120.015 49.2533 120.015 48.12C120.015 46.9867 119.762 46.1267 119.255 45.54C118.749 44.94 118.082 44.64 117.255 44.64C116.415 44.64 115.742 44.94 115.235 45.54C114.729 46.1267 114.475 46.9867 114.475 48.12C114.475 49.2533 114.729 50.12 115.235 50.72C115.742 51.32 116.415 51.62 117.255 51.62ZM129.612 53.18C128.012 53.18 126.752 52.7333 125.832 51.84C124.912 50.9333 124.452 49.7 124.452 48.14C124.452 47.14 124.652 46.26 125.052 45.5C125.465 44.7267 126.032 44.1267 126.752 43.7C127.472 43.2733 128.298 43.06 129.232 43.06C130.578 43.06 131.638 43.4933 132.412 44.36C133.185 45.2133 133.572 46.3933 133.572 47.9C133.572 48.3533 133.305 48.58 132.772 48.58H126.412C126.558 50.6067 127.632 51.62 129.632 51.62C130.032 51.62 130.452 51.5733 130.892 51.48C131.332 51.3733 131.758 51.1867 132.172 50.92C132.452 50.76 132.692 50.7067 132.892 50.76C133.105 50.8 133.258 50.9133 133.352 51.1C133.445 51.2733 133.458 51.4733 133.392 51.7C133.338 51.9133 133.185 52.1 132.932 52.26C132.478 52.5667 131.945 52.8 131.332 52.96C130.732 53.1067 130.158 53.18 129.612 53.18ZM129.312 44.48C128.472 44.48 127.805 44.74 127.312 45.26C126.818 45.78 126.518 46.4733 126.412 47.34H131.872C131.832 46.4333 131.592 45.7333 131.152 45.24C130.712 44.7333 130.098 44.48 129.312 44.48ZM146.027 53.18C144.427 53.18 143.167 52.7333 142.247 51.84C141.327 50.9333 140.867 49.7 140.867 48.14C140.867 47.14 141.067 46.26 141.467 45.5C141.881 44.7267 142.447 44.1267 143.167 43.7C143.887 43.2733 144.714 43.06 145.647 43.06C146.994 43.06 148.054 43.4933 148.827 44.36C149.601 45.2133 149.987 46.3933 149.987 47.9C149.987 48.3533 149.721 48.58 149.187 48.58H142.827C142.974 50.6067 144.047 51.62 146.047 51.62C146.447 51.62 146.867 51.5733 147.307 51.48C147.747 51.3733 148.174 51.1867 148.587 50.92C148.867 50.76 149.107 50.7067 149.307 50.76C149.521 50.8 149.674 50.9133 149.767 51.1C149.861 51.2733 149.874 51.4733 149.807 51.7C149.754 51.9133 149.601 52.1 149.347 52.26C148.894 52.5667 148.361 52.8 147.747 52.96C147.147 53.1067 146.574 53.18 146.027 53.18ZM145.727 44.48C144.887 44.48 144.221 44.74 143.727 45.26C143.234 45.78 142.934 46.4733 142.827 47.34H148.287C148.247 46.4333 148.007 45.7333 147.567 45.24C147.127 44.7333 146.514 44.48 145.727 44.48ZM153.43 53.14C152.763 53.14 152.43 52.8 152.43 52.12V44.12C152.43 43.44 152.756 43.1 153.41 43.1C154.063 43.1 154.39 43.44 154.39 44.12V44.82C154.683 44.26 155.09 43.8267 155.61 43.52C156.13 43.2133 156.736 43.06 157.43 43.06C158.923 43.06 159.89 43.7133 160.33 45.02C160.636 44.4067 161.076 43.9267 161.65 43.58C162.223 43.2333 162.876 43.06 163.61 43.06C165.796 43.06 166.89 44.3667 166.89 46.98V52.12C166.89 52.8 166.55 53.14 165.87 53.14C165.203 53.14 164.87 52.8 164.87 52.12V47.08C164.87 46.2533 164.723 45.6467 164.43 45.26C164.15 44.8733 163.683 44.68 163.03 44.68C162.296 44.68 161.716 44.94 161.29 45.46C160.863 45.9667 160.65 46.66 160.65 47.54V52.12C160.65 52.8 160.316 53.14 159.65 53.14C158.97 53.14 158.63 52.8 158.63 52.12V47.08C158.63 46.2533 158.49 45.6467 158.21 45.26C157.93 44.8733 157.463 44.68 156.81 44.68C156.076 44.68 155.496 44.94 155.07 45.46C154.656 45.9667 154.45 46.66 154.45 47.54V52.12C154.45 52.8 154.11 53.14 153.43 53.14ZM174.154 53.18C173.167 53.18 172.314 52.9733 171.594 52.56C170.874 52.1467 170.314 51.5667 169.914 50.82C169.527 50.06 169.334 49.16 169.334 48.12C169.334 47.08 169.527 46.1867 169.914 45.44C170.314 44.68 170.874 44.0933 171.594 43.68C172.314 43.2667 173.167 43.06 174.154 43.06C175.114 43.06 175.954 43.2667 176.674 43.68C177.394 44.0933 177.954 44.68 178.354 45.44C178.754 46.1867 178.954 47.08 178.954 48.12C178.954 49.16 178.754 50.06 178.354 50.82C177.954 51.5667 177.394 52.1467 176.674 52.56C175.954 52.9733 175.114 53.18 174.154 53.18ZM174.154 51.62C174.98 51.62 175.647 51.32 176.154 50.72C176.66 50.12 176.914 49.2533 176.914 48.12C176.914 46.9867 176.66 46.1267 176.154 45.54C175.647 44.94 174.98 44.64 174.154 44.64C173.314 44.64 172.64 44.94 172.134 45.54C171.627 46.1267 171.374 46.9867 171.374 48.12C171.374 49.2533 171.627 50.12 172.134 50.72C172.64 51.32 173.314 51.62 174.154 51.62ZM185.722 53.18C184.722 53.18 183.856 52.9733 183.122 52.56C182.402 52.1333 181.842 51.54 181.442 50.78C181.042 50.0067 180.842 49.1 180.842 48.06C180.842 46.5133 181.282 45.2933 182.162 44.4C183.042 43.5067 184.229 43.06 185.722 43.06C186.189 43.06 186.676 43.1333 187.182 43.28C187.702 43.4133 188.182 43.64 188.622 43.96C188.836 44.0933 188.956 44.2667 188.982 44.48C189.022 44.68 188.989 44.8733 188.882 45.06C188.789 45.2333 188.649 45.3533 188.462 45.42C188.276 45.4733 188.062 45.4333 187.822 45.3C187.502 45.0733 187.176 44.9133 186.842 44.82C186.509 44.7133 186.189 44.66 185.882 44.66C184.936 44.66 184.202 44.96 183.682 45.56C183.176 46.1467 182.922 46.9867 182.922 48.08C182.922 49.1733 183.176 50.0333 183.682 50.66C184.202 51.2733 184.936 51.58 185.882 51.58C186.189 51.58 186.502 51.5333 186.822 51.44C187.156 51.3467 187.489 51.1867 187.822 50.96C188.062 50.8267 188.269 50.7933 188.442 50.86C188.629 50.9267 188.762 51.0533 188.842 51.24C188.936 51.4133 188.962 51.6067 188.922 51.82C188.896 52.02 188.776 52.1867 188.562 52.32C188.136 52.6267 187.669 52.8467 187.162 52.98C186.669 53.1133 186.189 53.18 185.722 53.18ZM185.662 56.88C185.409 56.88 185.149 56.86 184.882 56.82C184.616 56.78 184.376 56.72 184.162 56.64C183.922 56.5467 183.789 56.4 183.762 56.2C183.736 56.0133 183.789 55.8467 183.922 55.7C184.056 55.5667 184.242 55.5467 184.482 55.64C184.776 55.7467 185.129 55.8 185.542 55.8C185.902 55.8 186.182 55.74 186.382 55.62C186.582 55.5133 186.682 55.3533 186.682 55.14C186.682 54.7933 186.429 54.62 185.922 54.62C185.816 54.62 185.709 54.62 185.602 54.62C185.509 54.6333 185.402 54.66 185.282 54.7C185.082 54.7533 184.929 54.74 184.822 54.66C184.716 54.58 184.682 54.4133 184.722 54.16L184.962 52.6H186.122L185.922 53.82C186.029 53.8067 186.129 53.8 186.222 53.8C186.742 53.8 187.162 53.92 187.482 54.16C187.802 54.4133 187.962 54.76 187.962 55.2C187.962 55.6933 187.749 56.0933 187.322 56.4C186.896 56.72 186.342 56.88 185.662 56.88ZM195.003 53.18C194.016 53.18 193.163 52.9733 192.443 52.56C191.723 52.1467 191.163 51.5667 190.763 50.82C190.376 50.06 190.183 49.16 190.183 48.12C190.183 47.08 190.376 46.1867 190.763 45.44C191.163 44.68 191.723 44.0933 192.443 43.68C193.163 43.2667 194.016 43.06 195.003 43.06C195.963 43.06 196.803 43.2667 197.523 43.68C198.243 44.0933 198.803 44.68 199.203 45.44C199.603 46.1867 199.803 47.08 199.803 48.12C199.803 49.16 199.603 50.06 199.203 50.82C198.803 51.5667 198.243 52.1467 197.523 52.56C196.803 52.9733 195.963 53.18 195.003 53.18ZM195.003 51.62C195.83 51.62 196.496 51.32 197.003 50.72C197.51 50.12 197.763 49.2533 197.763 48.12C197.763 46.9867 197.51 46.1267 197.003 45.54C196.496 44.94 195.83 44.64 195.003 44.64C194.163 44.64 193.49 44.94 192.983 45.54C192.476 46.1267 192.223 46.9867 192.223 48.12C192.223 49.2533 192.476 50.12 192.983 50.72C193.49 51.32 194.163 51.62 195.003 51.62ZM191.803 41.32C191.643 41.3067 191.516 41.2467 191.423 41.14C191.33 41.0333 191.303 40.8733 191.343 40.66C191.45 40.0733 191.676 39.5467 192.023 39.08C192.37 38.6133 192.876 38.38 193.543 38.38C193.863 38.38 194.15 38.4533 194.403 38.6C194.656 38.7467 194.89 38.9133 195.103 39.1C195.316 39.2867 195.53 39.4533 195.743 39.6C195.956 39.7467 196.19 39.82 196.443 39.82C196.736 39.82 196.983 39.7133 197.183 39.5C197.396 39.2867 197.536 39.0067 197.603 38.66C197.656 38.38 197.856 38.2467 198.203 38.26C198.363 38.26 198.49 38.3133 198.583 38.42C198.676 38.5267 198.703 38.6933 198.663 38.92C198.556 39.5067 198.33 40.0333 197.983 40.5C197.636 40.9533 197.13 41.18 196.463 41.18C196.143 41.18 195.856 41.1133 195.603 40.98C195.35 40.8333 195.11 40.6667 194.883 40.48C194.67 40.2933 194.456 40.1267 194.243 39.98C194.03 39.8333 193.803 39.76 193.563 39.76C193.27 39.76 193.016 39.8667 192.803 40.08C192.603 40.28 192.47 40.56 192.403 40.92C192.35 41.2 192.15 41.3333 191.803 41.32ZM206.852 53.18C205.252 53.18 203.992 52.7333 203.072 51.84C202.152 50.9333 201.692 49.7 201.692 48.14C201.692 47.14 201.892 46.26 202.292 45.5C202.705 44.7267 203.272 44.1267 203.992 43.7C204.712 43.2733 205.538 43.06 206.472 43.06C207.818 43.06 208.878 43.4933 209.652 44.36C210.425 45.2133 210.812 46.3933 210.812 47.9C210.812 48.3533 210.545 48.58 210.012 48.58H203.652C203.798 50.6067 204.872 51.62 206.872 51.62C207.272 51.62 207.692 51.5733 208.132 51.48C208.572 51.3733 208.998 51.1867 209.412 50.92C209.692 50.76 209.932 50.7067 210.132 50.76C210.345 50.8 210.498 50.9133 210.592 51.1C210.685 51.2733 210.698 51.4733 210.632 51.7C210.578 51.9133 210.425 52.1 210.172 52.26C209.718 52.5667 209.185 52.8 208.572 52.96C207.972 53.1067 207.398 53.18 206.852 53.18ZM206.552 44.48C205.712 44.48 205.045 44.74 204.552 45.26C204.058 45.78 203.758 46.4733 203.652 47.34H209.112C209.072 46.4333 208.832 45.7333 208.392 45.24C207.952 44.7333 207.338 44.48 206.552 44.48ZM216.634 53.18C216.047 53.18 215.44 53.1133 214.814 52.98C214.187 52.8467 213.62 52.62 213.114 52.3C212.887 52.1667 212.747 52 212.694 51.8C212.64 51.6 212.654 51.4133 212.734 51.24C212.814 51.0667 212.94 50.9467 213.114 50.88C213.3 50.8 213.507 50.82 213.734 50.94C214.254 51.22 214.754 51.42 215.234 51.54C215.714 51.66 216.187 51.72 216.654 51.72C217.36 51.72 217.894 51.5933 218.254 51.34C218.614 51.0867 218.794 50.7467 218.794 50.32C218.794 49.9733 218.674 49.7067 218.434 49.52C218.194 49.32 217.834 49.1667 217.354 49.06L215.454 48.68C213.774 48.3333 212.934 47.4667 212.934 46.08C212.934 45.16 213.3 44.4267 214.034 43.88C214.767 43.3333 215.727 43.06 216.914 43.06C218.114 43.06 219.147 43.3533 220.014 43.94C220.227 44.0733 220.354 44.24 220.394 44.44C220.434 44.6267 220.407 44.8067 220.314 44.98C220.22 45.14 220.08 45.2533 219.894 45.32C219.72 45.3867 219.514 45.36 219.274 45.24C218.874 45 218.474 44.8267 218.074 44.72C217.674 44.6 217.287 44.54 216.914 44.54C216.22 44.54 215.694 44.6733 215.334 44.94C214.974 45.1933 214.794 45.54 214.794 45.98C214.794 46.6467 215.234 47.0733 216.114 47.26L218.014 47.64C218.88 47.8133 219.534 48.1067 219.974 48.52C220.427 48.9333 220.654 49.4933 220.654 50.2C220.654 51.1333 220.287 51.8667 219.554 52.4C218.82 52.92 217.847 53.18 216.634 53.18Z" fill="#212121"/>
</g>
<defs>
<clipPath id="clip0_0_1">
<rect x="-332" y="-206" width="1920" height="1085" rx="24" fill="white"/>
</clipPath>
</defs>
</svg>
