<svg width="457" height="231" viewBox="0 0 457 231" fill="none" xmlns="http://www.w3.org/2000/svg">
<rect width="457" height="231" fill="#FBFBFB"/>
<g clip-path="url(#clip0_0_1)">
<rect x="-1431" y="-206" width="1920" height="1085" rx="24" fill="#F5F4F9"/>
<rect width="457" height="231" rx="32" fill="white"/>
<path d="M46.12 61.14C45.4267 61.14 45.08 60.7867 45.08 60.08V48.64H40.84C40.24 48.64 39.94 48.3467 39.94 47.76C39.94 47.1867 40.24 46.9 40.84 46.9H51.38C51.9933 46.9 52.3 47.1867 52.3 47.76C52.3 48.3467 51.9933 48.64 51.38 48.64H47.14V60.08C47.14 60.7867 46.8 61.14 46.12 61.14ZM56.5436 61.18C55.5569 61.18 54.7036 60.9733 53.9836 60.56C53.2636 60.1467 52.7036 59.5667 52.3036 58.82C51.9169 58.06 51.7236 57.16 51.7236 56.12C51.7236 55.08 51.9169 54.1867 52.3036 53.44C52.7036 52.68 53.2636 52.0933 53.9836 51.68C54.7036 51.2667 55.5569 51.06 56.5436 51.06C57.5036 51.06 58.3436 51.2667 59.0636 51.68C59.7836 52.0933 60.3436 52.68 60.7436 53.44C61.1436 54.1867 61.3436 55.08 61.3436 56.12C61.3436 57.16 61.1436 58.06 60.7436 58.82C60.3436 59.5667 59.7836 60.1467 59.0636 60.56C58.3436 60.9733 57.5036 61.18 56.5436 61.18ZM56.5436 59.62C57.3703 59.62 58.0369 59.32 58.5436 58.72C59.0503 58.12 59.3036 57.2533 59.3036 56.12C59.3036 54.9867 59.0503 54.1267 58.5436 53.54C58.0369 52.94 57.3703 52.64 56.5436 52.64C55.7036 52.64 55.0303 52.94 54.5236 53.54C54.0169 54.1267 53.7636 54.9867 53.7636 56.12C53.7636 57.2533 54.0169 58.12 54.5236 58.72C55.0303 59.32 55.7036 59.62 56.5436 59.62ZM67.8745 61.18C66.6479 61.18 65.7345 60.8667 65.1345 60.24C64.5345 59.6133 64.2345 58.7067 64.2345 57.52V52.8H63.0345C62.4745 52.8 62.1945 52.54 62.1945 52.02C62.1945 51.5 62.4745 51.24 63.0345 51.24H64.2345V49.18C64.2345 48.5 64.5745 48.16 65.2545 48.16C65.9212 48.16 66.2545 48.5 66.2545 49.18V51.24H68.5945C69.1545 51.24 69.4345 51.5 69.4345 52.02C69.4345 52.54 69.1545 52.8 68.5945 52.8H66.2545V57.36C66.2545 58.0667 66.4012 58.6 66.6945 58.96C67.0012 59.32 67.4945 59.5 68.1745 59.5C68.4145 59.5 68.6212 59.48 68.7945 59.44C68.9679 59.3867 69.1212 59.3533 69.2545 59.34C69.4012 59.34 69.5212 59.3933 69.6145 59.5C69.7079 59.5933 69.7545 59.78 69.7545 60.06C69.7545 60.2733 69.7145 60.4667 69.6345 60.64C69.5679 60.8 69.4412 60.9067 69.2545 60.96C69.0945 61.0267 68.8745 61.08 68.5945 61.12C68.3279 61.16 68.0879 61.18 67.8745 61.18ZM74.3392 61.18C73.6592 61.18 73.0526 61.0467 72.5192 60.78C71.9859 60.5133 71.5592 60.1533 71.2392 59.7C70.9326 59.2467 70.7792 58.7333 70.7792 58.16C70.7792 57.44 70.9592 56.8733 71.3192 56.46C71.6926 56.0467 72.2992 55.7467 73.1392 55.56C73.9926 55.3733 75.1392 55.28 76.5792 55.28H77.2592V54.76C77.2592 54 77.0992 53.4533 76.7792 53.12C76.4592 52.7867 75.9326 52.62 75.1992 52.62C74.7726 52.62 74.3259 52.6733 73.8592 52.78C73.4059 52.8867 72.9326 53.0667 72.4392 53.32C72.1592 53.4533 71.9259 53.4733 71.7392 53.38C71.5659 53.2867 71.4459 53.14 71.3792 52.94C71.3126 52.74 71.3192 52.5333 71.3992 52.32C71.4792 52.1067 71.6459 51.9467 71.8992 51.84C72.4859 51.5733 73.0659 51.38 73.6392 51.26C74.2126 51.1267 74.7526 51.06 75.2592 51.06C76.5926 51.06 77.5792 51.38 78.2192 52.02C78.8592 52.6467 79.1792 53.6333 79.1792 54.98V60.12C79.1792 60.8 78.8659 61.14 78.2392 61.14C77.5992 61.14 77.2792 60.8 77.2792 60.12V59.38C77.0392 59.94 76.6659 60.38 76.1592 60.7C75.6526 61.02 75.0459 61.18 74.3392 61.18ZM74.7392 59.74C75.4592 59.74 76.0592 59.4867 76.5392 58.98C77.0192 58.4733 77.2592 57.8333 77.2592 57.06V56.52H76.5992C75.6259 56.52 74.8592 56.5667 74.2992 56.66C73.7526 56.7533 73.3592 56.9133 73.1192 57.14C72.8926 57.3533 72.7792 57.6533 72.7792 58.04C72.7792 58.5467 72.9526 58.96 73.2992 59.28C73.6459 59.5867 74.1259 59.74 74.7392 59.74ZM85.3014 61.18C84.2614 61.18 83.4747 60.88 82.9414 60.28C82.4214 59.68 82.1614 58.8 82.1614 57.64V47.78C82.1614 47.1 82.4947 46.76 83.1614 46.76C83.8414 46.76 84.1814 47.1 84.1814 47.78V57.52C84.1814 58.84 84.7147 59.5 85.7814 59.5C85.9014 59.5 86.0081 59.4933 86.1014 59.48C86.1947 59.4667 86.2881 59.46 86.3814 59.46C86.5414 59.4467 86.6547 59.4933 86.7214 59.6C86.7881 59.6933 86.8214 59.8933 86.8214 60.2C86.8214 60.7467 86.5681 61.06 86.0614 61.14C85.9281 61.1533 85.7947 61.16 85.6614 61.16C85.5414 61.1733 85.4214 61.18 85.3014 61.18ZM97.6681 61.18C96.8148 61.18 96.0615 60.98 95.4081 60.58C94.7681 60.1667 94.2681 59.58 93.9081 58.82C93.5481 58.06 93.3681 57.16 93.3681 56.12C93.3681 55.08 93.5481 54.1867 93.9081 53.44C94.2681 52.68 94.7681 52.0933 95.4081 51.68C96.0481 51.2667 96.8015 51.06 97.6681 51.06C98.4015 51.06 99.0548 51.22 99.6281 51.54C100.201 51.86 100.628 52.2933 100.908 52.84V47.78C100.908 47.1 101.241 46.76 101.908 46.76C102.588 46.76 102.928 47.1 102.928 47.78V60.12C102.928 60.8 102.595 61.14 101.928 61.14C101.261 61.14 100.928 60.8 100.928 60.12V59.36C100.635 59.92 100.201 60.3667 99.6281 60.7C99.0548 61.02 98.4015 61.18 97.6681 61.18ZM98.1881 59.62C99.0148 59.62 99.6815 59.32 100.188 58.72C100.695 58.12 100.948 57.2533 100.948 56.12C100.948 54.9867 100.695 54.1267 100.188 53.54C99.6815 52.94 99.0148 52.64 98.1881 52.64C97.3481 52.64 96.6748 52.94 96.1681 53.54C95.6615 54.1267 95.4081 54.9867 95.4081 56.12C95.4081 57.2533 95.6615 58.12 96.1681 58.72C96.6748 59.32 97.3481 59.62 98.1881 59.62ZM110.545 61.18C108.945 61.18 107.685 60.7333 106.765 59.84C105.845 58.9333 105.385 57.7 105.385 56.14C105.385 55.14 105.585 54.26 105.985 53.5C106.398 52.7267 106.965 52.1267 107.685 51.7C108.405 51.2733 109.231 51.06 110.165 51.06C111.511 51.06 112.571 51.4933 113.345 52.36C114.118 53.2133 114.505 54.3933 114.505 55.9C114.505 56.3533 114.238 56.58 113.705 56.58H107.345C107.491 58.6067 108.565 59.62 110.565 59.62C110.965 59.62 111.385 59.5733 111.825 59.48C112.265 59.3733 112.691 59.1867 113.105 58.92C113.385 58.76 113.625 58.7067 113.825 58.76C114.038 58.8 114.191 58.9133 114.285 59.1C114.378 59.2733 114.391 59.4733 114.325 59.7C114.271 59.9133 114.118 60.1 113.865 60.26C113.411 60.5667 112.878 60.8 112.265 60.96C111.665 61.1067 111.091 61.18 110.545 61.18ZM110.245 52.48C109.405 52.48 108.738 52.74 108.245 53.26C107.751 53.78 107.451 54.4733 107.345 55.34H112.805C112.765 54.4333 112.525 53.7333 112.085 53.24C111.645 52.7333 111.031 52.48 110.245 52.48ZM123.4 61.14C122.72 61.14 122.38 60.8 122.38 60.12V52.12C122.38 51.44 122.707 51.1 123.36 51.1C124.013 51.1 124.34 51.44 124.34 52.12V52.98C124.607 52.38 125.007 51.92 125.54 51.6C126.087 51.28 126.747 51.0933 127.52 51.04C128.013 51 128.28 51.2667 128.32 51.84C128.373 52.4267 128.087 52.7467 127.46 52.8L127.08 52.84C125.307 53.0133 124.42 53.9267 124.42 55.58V60.12C124.42 60.8 124.08 61.14 123.4 61.14ZM134.484 61.18C132.884 61.18 131.624 60.7333 130.704 59.84C129.784 58.9333 129.324 57.7 129.324 56.14C129.324 55.14 129.524 54.26 129.924 53.5C130.338 52.7267 130.904 52.1267 131.624 51.7C132.344 51.2733 133.171 51.06 134.104 51.06C135.451 51.06 136.511 51.4933 137.284 52.36C138.058 53.2133 138.444 54.3933 138.444 55.9C138.444 56.3533 138.178 56.58 137.644 56.58H131.284C131.431 58.6067 132.504 59.62 134.504 59.62C134.904 59.62 135.324 59.5733 135.764 59.48C136.204 59.3733 136.631 59.1867 137.044 58.92C137.324 58.76 137.564 58.7067 137.764 58.76C137.978 58.8 138.131 58.9133 138.224 59.1C138.318 59.2733 138.331 59.4733 138.264 59.7C138.211 59.9133 138.058 60.1 137.804 60.26C137.351 60.5667 136.818 60.8 136.204 60.96C135.604 61.1067 135.031 61.18 134.484 61.18ZM134.184 52.48C133.344 52.48 132.678 52.74 132.184 53.26C131.691 53.78 131.391 54.4733 131.284 55.34H136.744C136.704 54.4333 136.464 53.7333 136.024 53.24C135.584 52.7333 134.971 52.48 134.184 52.48ZM145.267 64.78C144.547 64.78 143.847 64.7067 143.167 64.56C142.5 64.4133 141.893 64.1733 141.347 63.84C141.107 63.7067 140.96 63.54 140.907 63.34C140.853 63.14 140.873 62.9467 140.967 62.76C141.073 62.5733 141.213 62.4333 141.387 62.34C141.573 62.26 141.773 62.28 141.987 62.4C142.573 62.72 143.127 62.9333 143.647 63.04C144.18 63.16 144.673 63.22 145.127 63.22C146.993 63.22 147.927 62.2867 147.927 60.42V58.88C147.647 59.4667 147.207 59.9267 146.607 60.26C146.02 60.5933 145.36 60.76 144.627 60.76C143.747 60.76 142.98 60.56 142.327 60.16C141.673 59.7467 141.167 59.18 140.807 58.46C140.447 57.7267 140.267 56.8733 140.267 55.9C140.267 54.94 140.447 54.1 140.807 53.38C141.167 52.6467 141.673 52.08 142.327 51.68C142.98 51.2667 143.747 51.06 144.627 51.06C145.36 51.06 146.013 51.2267 146.587 51.56C147.173 51.88 147.607 52.32 147.887 52.88V52.12C147.887 51.44 148.22 51.1 148.887 51.1C149.553 51.1 149.887 51.44 149.887 52.12V60.18C149.887 61.7133 149.493 62.86 148.707 63.62C147.92 64.3933 146.773 64.78 145.267 64.78ZM145.107 59.18C145.96 59.18 146.64 58.8867 147.147 58.3C147.653 57.7133 147.907 56.9133 147.907 55.9C147.907 54.8867 147.653 54.0933 147.147 53.52C146.64 52.9333 145.96 52.64 145.107 52.64C144.253 52.64 143.573 52.9333 143.067 53.52C142.56 54.0933 142.307 54.8867 142.307 55.9C142.307 56.9133 142.56 57.7133 143.067 58.3C143.573 58.8867 144.253 59.18 145.107 59.18ZM153.922 49.06C153.522 49.06 153.208 48.96 152.982 48.76C152.768 48.56 152.662 48.28 152.662 47.92C152.662 47.16 153.082 46.78 153.922 46.78C154.762 46.78 155.182 47.16 155.182 47.92C155.182 48.68 154.762 49.06 153.922 49.06ZM153.922 61.12C153.255 61.12 152.922 60.7533 152.922 60.02V52.22C152.922 51.5 153.255 51.14 153.922 51.14C154.602 51.14 154.942 51.5 154.942 52.22V60.02C154.942 60.7533 154.602 61.12 153.922 61.12ZM161.405 61.18C160.818 61.18 160.212 61.1133 159.585 60.98C158.958 60.8467 158.392 60.62 157.885 60.3C157.658 60.1667 157.518 60 157.465 59.8C157.412 59.6 157.425 59.4133 157.505 59.24C157.585 59.0667 157.712 58.9467 157.885 58.88C158.072 58.8 158.278 58.82 158.505 58.94C159.025 59.22 159.525 59.42 160.005 59.54C160.485 59.66 160.958 59.72 161.425 59.72C162.132 59.72 162.665 59.5933 163.025 59.34C163.385 59.0867 163.565 58.7467 163.565 58.32C163.565 57.9733 163.445 57.7067 163.205 57.52C162.965 57.32 162.605 57.1667 162.125 57.06L160.225 56.68C158.545 56.3333 157.705 55.4667 157.705 54.08C157.705 53.16 158.072 52.4267 158.805 51.88C159.538 51.3333 160.498 51.06 161.685 51.06C162.885 51.06 163.918 51.3533 164.785 51.94C164.998 52.0733 165.125 52.24 165.165 52.44C165.205 52.6267 165.178 52.8067 165.085 52.98C164.992 53.14 164.852 53.2533 164.665 53.32C164.492 53.3867 164.285 53.36 164.045 53.24C163.645 53 163.245 52.8267 162.845 52.72C162.445 52.6 162.058 52.54 161.685 52.54C160.992 52.54 160.465 52.6733 160.105 52.94C159.745 53.1933 159.565 53.54 159.565 53.98C159.565 54.6467 160.005 55.0733 160.885 55.26L162.785 55.64C163.652 55.8133 164.305 56.1067 164.745 56.52C165.198 56.9333 165.425 57.4933 165.425 58.2C165.425 59.1333 165.058 59.8667 164.325 60.4C163.592 60.92 162.618 61.18 161.405 61.18ZM171.935 61.18C170.708 61.18 169.795 60.8667 169.195 60.24C168.595 59.6133 168.295 58.7067 168.295 57.52V52.8H167.095C166.535 52.8 166.255 52.54 166.255 52.02C166.255 51.5 166.535 51.24 167.095 51.24H168.295V49.18C168.295 48.5 168.635 48.16 169.315 48.16C169.981 48.16 170.315 48.5 170.315 49.18V51.24H172.655C173.215 51.24 173.495 51.5 173.495 52.02C173.495 52.54 173.215 52.8 172.655 52.8H170.315V57.36C170.315 58.0667 170.461 58.6 170.755 58.96C171.061 59.32 171.555 59.5 172.235 59.5C172.475 59.5 172.681 59.48 172.855 59.44C173.028 59.3867 173.181 59.3533 173.315 59.34C173.461 59.34 173.581 59.3933 173.675 59.5C173.768 59.5933 173.815 59.78 173.815 60.06C173.815 60.2733 173.775 60.4667 173.695 60.64C173.628 60.8 173.501 60.9067 173.315 60.96C173.155 61.0267 172.935 61.08 172.655 61.12C172.388 61.16 172.148 61.18 171.935 61.18ZM176.299 61.14C175.619 61.14 175.279 60.8 175.279 60.12V52.12C175.279 51.44 175.606 51.1 176.259 51.1C176.913 51.1 177.239 51.44 177.239 52.12V52.98C177.506 52.38 177.906 51.92 178.439 51.6C178.986 51.28 179.646 51.0933 180.419 51.04C180.913 51 181.179 51.2667 181.219 51.84C181.273 52.4267 180.986 52.7467 180.359 52.8L179.979 52.84C178.206 53.0133 177.319 53.9267 177.319 55.58V60.12C177.319 60.8 176.979 61.14 176.299 61.14ZM187.044 61.18C186.057 61.18 185.204 60.9733 184.484 60.56C183.764 60.1467 183.204 59.5667 182.804 58.82C182.417 58.06 182.224 57.16 182.224 56.12C182.224 55.08 182.417 54.1867 182.804 53.44C183.204 52.68 183.764 52.0933 184.484 51.68C185.204 51.2667 186.057 51.06 187.044 51.06C188.004 51.06 188.844 51.2667 189.564 51.68C190.284 52.0933 190.844 52.68 191.244 53.44C191.644 54.1867 191.844 55.08 191.844 56.12C191.844 57.16 191.644 58.06 191.244 58.82C190.844 59.5667 190.284 60.1467 189.564 60.56C188.844 60.9733 188.004 61.18 187.044 61.18ZM187.044 59.62C187.87 59.62 188.537 59.32 189.044 58.72C189.55 58.12 189.804 57.2533 189.804 56.12C189.804 54.9867 189.55 54.1267 189.044 53.54C188.537 52.94 187.87 52.64 187.044 52.64C186.204 52.64 185.53 52.94 185.024 53.54C184.517 54.1267 184.264 54.9867 184.264 56.12C184.264 57.2533 184.517 58.12 185.024 58.72C185.53 59.32 186.204 59.62 187.044 59.62ZM197.732 61.18C197.146 61.18 196.539 61.1133 195.912 60.98C195.286 60.8467 194.719 60.62 194.212 60.3C193.986 60.1667 193.846 60 193.792 59.8C193.739 59.6 193.752 59.4133 193.832 59.24C193.912 59.0667 194.039 58.9467 194.212 58.88C194.399 58.8 194.606 58.82 194.832 58.94C195.352 59.22 195.852 59.42 196.332 59.54C196.812 59.66 197.286 59.72 197.752 59.72C198.459 59.72 198.992 59.5933 199.352 59.34C199.712 59.0867 199.892 58.7467 199.892 58.32C199.892 57.9733 199.772 57.7067 199.532 57.52C199.292 57.32 198.932 57.1667 198.452 57.06L196.552 56.68C194.872 56.3333 194.032 55.4667 194.032 54.08C194.032 53.16 194.399 52.4267 195.132 51.88C195.866 51.3333 196.826 51.06 198.012 51.06C199.212 51.06 200.246 51.3533 201.112 51.94C201.326 52.0733 201.452 52.24 201.492 52.44C201.532 52.6267 201.506 52.8067 201.412 52.98C201.319 53.14 201.179 53.2533 200.992 53.32C200.819 53.3867 200.612 53.36 200.372 53.24C199.972 53 199.572 52.8267 199.172 52.72C198.772 52.6 198.386 52.54 198.012 52.54C197.319 52.54 196.792 52.6733 196.432 52.94C196.072 53.1933 195.892 53.54 195.892 53.98C195.892 54.6467 196.332 55.0733 197.212 55.26L199.112 55.64C199.979 55.8133 200.632 56.1067 201.072 56.52C201.526 56.9333 201.752 57.4933 201.752 58.2C201.752 59.1333 201.386 59.8667 200.652 60.4C199.919 60.92 198.946 61.18 197.732 61.18Z" fill="#212121"/>
<path d="M51.232 170C48.592 170 47.272 168.704 47.272 166.112C47.272 163.616 48.592 162.368 51.232 162.368H59.296V129.752L53.176 133.424C52.024 134.096 50.968 134.264 50.008 133.928C49.096 133.592 48.4 132.992 47.92 132.128C47.44 131.264 47.296 130.328 47.488 129.32C47.68 128.264 48.352 127.4 49.504 126.728L59.44 120.752C60.4 120.176 61.36 119.696 62.32 119.312C63.28 118.88 64.168 118.664 64.984 118.664C65.992 118.664 66.832 118.952 67.504 119.528C68.176 120.056 68.512 120.944 68.512 122.192V162.368H75.856C78.496 162.368 79.816 163.616 79.816 166.112C79.816 168.704 78.496 170 75.856 170H51.232ZM105.204 170.72C102.66 170.72 100.068 170.384 97.4279 169.712C94.7879 169.04 92.3639 168.008 90.1559 166.616C89.0039 165.896 88.3079 165.032 88.0679 164.024C87.8759 162.968 88.0199 162.008 88.4999 161.144C88.9799 160.232 89.6759 159.632 90.5879 159.344C91.5479 159.008 92.6279 159.176 93.8279 159.848C95.6039 160.856 97.4039 161.624 99.2279 162.152C101.052 162.68 102.996 162.944 105.06 162.944C108.084 162.944 110.436 162.176 112.116 160.64C113.844 159.056 114.708 156.944 114.708 154.304C114.708 151.616 113.892 149.456 112.26 147.824C110.628 146.144 108.396 145.304 105.564 145.304C104.028 145.304 102.54 145.568 101.1 146.096C99.6599 146.576 98.2439 147.44 96.8519 148.688C96.4199 149.072 95.8679 149.456 95.1959 149.84C94.5239 150.176 93.8039 150.344 93.0359 150.344C90.5879 150.344 89.3639 149.168 89.3639 146.816V123.272C89.3639 120.584 90.7079 119.24 93.3959 119.24H117.084C119.772 119.24 121.116 120.512 121.116 123.056C121.116 125.6 119.772 126.872 117.084 126.872H98.3639V140.624C100.908 138.704 104.028 137.744 107.724 137.744C110.94 137.744 113.724 138.44 116.076 139.832C118.476 141.176 120.324 143.072 121.62 145.52C122.964 147.92 123.636 150.728 123.636 153.944C123.636 157.256 122.892 160.184 121.404 162.728C119.916 165.224 117.78 167.192 114.996 168.632C112.26 170.024 108.996 170.72 105.204 170.72ZM149.816 170.72C143.528 170.72 138.656 168.512 135.2 164.096C131.792 159.68 130.088 153.488 130.088 145.52C130.088 136.928 132.008 130.28 135.848 125.576C139.736 120.872 145.088 118.52 151.904 118.52C154.016 118.52 156.152 118.856 158.312 119.528C160.52 120.152 162.584 121.112 164.504 122.408C165.464 123.032 166.016 123.848 166.16 124.856C166.304 125.816 166.16 126.752 165.728 127.664C165.296 128.528 164.624 129.128 163.712 129.464C162.848 129.752 161.84 129.56 160.688 128.888C159.056 127.928 157.52 127.256 156.08 126.872C154.64 126.488 153.2 126.296 151.76 126.296C147.584 126.296 144.392 127.76 142.184 130.688C139.976 133.616 138.872 137.984 138.872 143.792V145.88C139.88 143.24 141.512 141.176 143.768 139.688C146.024 138.2 148.616 137.456 151.544 137.456C154.472 137.456 157.064 138.152 159.32 139.544C161.576 140.936 163.352 142.856 164.648 145.304C165.944 147.752 166.592 150.56 166.592 153.728C166.592 156.992 165.872 159.92 164.432 162.512C163.04 165.056 161.072 167.072 158.528 168.56C156.032 170 153.128 170.72 149.816 170.72ZM149.312 163.376C151.904 163.376 153.992 162.536 155.576 160.856C157.208 159.128 158.024 156.872 158.024 154.088C158.024 151.304 157.208 149.048 155.576 147.32C153.992 145.592 151.904 144.728 149.312 144.728C146.72 144.728 144.608 145.592 142.976 147.32C141.392 149.048 140.6 151.304 140.6 154.088C140.6 156.872 141.392 159.128 142.976 160.856C144.608 162.536 146.72 163.376 149.312 163.376Z" fill="#212121"/>
</g>
<defs>
<clipPath id="clip0_0_1">
<rect x="-1431" y="-206" width="1920" height="1085" rx="24" fill="white"/>
</clipPath>
</defs>
</svg>
