<svg width="24" height="25" viewBox="0 0 24 25" fill="none" xmlns="http://www.w3.org/2000/svg">
<g id="Group">
<path id="Vector" d="M17.8826 19.6924C16.1239 20.8079 14.0834 21.3987 12.0006 21.3954C6.60864 21.3954 2.12264 17.5154 1.18164 12.3954C1.61167 10.0661 2.78327 7.93828 4.52164 6.32939L1.39264 3.20339L2.80764 1.78839L22.6066 21.5884L21.1916 23.0024L17.8816 19.6924H17.8826ZM5.93564 7.74539C4.57665 8.98098 3.62996 10.6042 3.22364 12.3954C3.53593 13.7618 4.1629 15.0365 5.05464 16.118C5.94638 17.1994 7.07827 18.0578 8.36019 18.6247C9.64212 19.1916 11.0387 19.4514 12.4387 19.3835C13.8388 19.3156 15.2036 18.9218 16.4246 18.2334L14.3966 16.2054C13.5333 16.7492 12.5108 16.9835 11.4969 16.8698C10.4829 16.7562 9.53768 16.3013 8.81621 15.5798C8.09474 14.8583 7.63987 13.9131 7.5262 12.8991C7.41254 11.8852 7.64682 10.8627 8.19064 9.99939L5.93564 7.74539ZM12.9146 14.7234L9.67264 11.4814C9.49471 11.9343 9.45283 12.4293 9.55215 12.9057C9.65146 13.3821 9.88766 13.8192 10.2318 14.1633C10.5759 14.5074 11.0129 14.7436 11.4893 14.8429C11.9657 14.9422 12.4607 14.9003 12.9136 14.7224L12.9146 14.7234ZM20.8076 16.9874L19.3766 15.5574C20.0451 14.6047 20.521 13.5306 20.7776 12.3954C20.5059 11.2051 19.9949 10.0825 19.2758 9.09588C18.5567 8.10923 17.6444 7.27911 16.5945 6.65599C15.5446 6.03287 14.3789 5.62975 13.1684 5.47115C11.9578 5.31255 10.7276 5.40177 9.55264 5.73339L7.97464 4.15539C9.22164 3.66539 10.5806 3.39539 12.0006 3.39539C17.3926 3.39539 21.8786 7.27539 22.8196 12.3954C22.5132 14.0611 21.8245 15.633 20.8076 16.9874ZM11.7236 7.90339C12.3602 7.86405 12.9978 7.96045 13.5942 8.1862C14.1906 8.41196 14.7323 8.7619 15.1832 9.21284C15.6341 9.66378 15.9841 10.2054 16.2098 10.8018C16.4356 11.3983 16.532 12.0359 16.4926 12.6724L11.7226 7.90339H11.7236Z" fill="#BDBDBD"/>
</g>
</svg>
