<svg width="1258" height="66" viewBox="0 0 1258 66" fill="none" xmlns="http://www.w3.org/2000/svg">
<circle cx="67" cy="24" r="20" fill="#F9E423"/>
<path d="M64.1 31C63.5 31 63.2 30.7067 63.2 30.12C63.2 29.5467 63.5 29.26 64.1 29.26H66.54V19.28L64.66 20.48C64.4067 20.64 64.1667 20.6867 63.94 20.62C63.7267 20.54 63.56 20.4 63.44 20.2C63.3333 20 63.3 19.7867 63.34 19.56C63.3933 19.32 63.5467 19.12 63.8 18.96L66.56 17.22C66.7867 17.0867 67 16.98 67.2 16.9C67.4133 16.8067 67.6133 16.76 67.8 16.76C68.0267 16.76 68.2133 16.8267 68.36 16.96C68.52 17.0933 68.6 17.3 68.6 17.58V29.26H70.84C71.4533 29.26 71.76 29.5467 71.76 30.12C71.76 30.7067 71.4533 31 70.84 31H64.1Z" fill="white"/>
<path d="M104.84 31.18C103.453 31.18 102.267 30.8867 101.28 30.3C100.293 29.7133 99.5333 28.88 99 27.8C98.48 26.72 98.22 25.4333 98.22 23.94C98.22 22.46 98.48 21.18 99 20.1C99.5333 19.02 100.293 18.1867 101.28 17.6C102.267 17.0133 103.453 16.72 104.84 16.72C105.667 16.72 106.453 16.84 107.2 17.08C107.947 17.32 108.593 17.66 109.14 18.1C109.367 18.26 109.493 18.4467 109.52 18.66C109.56 18.8733 109.527 19.0667 109.42 19.24C109.313 19.4 109.16 19.5067 108.96 19.56C108.773 19.6 108.56 19.5333 108.32 19.36C107.373 18.6 106.227 18.22 104.88 18.22C103.293 18.22 102.08 18.72 101.24 19.72C100.4 20.72 99.98 22.1267 99.98 23.94C99.98 25.7667 100.4 27.18 101.24 28.18C102.08 29.18 103.293 29.68 104.88 29.68C106.227 29.68 107.387 29.2933 108.36 28.52C108.6 28.36 108.813 28.3 109 28.34C109.2 28.38 109.347 28.48 109.44 28.64C109.547 28.8 109.587 28.98 109.56 29.18C109.533 29.38 109.42 29.56 109.22 29.72C108.647 30.2 107.987 30.5667 107.24 30.82C106.493 31.06 105.693 31.18 104.84 31.18ZM112.997 31.14C112.45 31.14 112.177 30.86 112.177 30.3V21.96C112.177 21.4133 112.437 21.14 112.957 21.14C113.49 21.14 113.757 21.4133 113.757 21.96V23.02C114.024 22.4067 114.437 21.94 114.997 21.62C115.557 21.2867 116.224 21.1067 116.997 21.08C117.424 21.04 117.65 21.2533 117.677 21.72C117.717 22.1867 117.477 22.4467 116.957 22.5L116.637 22.54C115.717 22.62 115.017 22.9133 114.537 23.42C114.057 23.9133 113.817 24.5933 113.817 25.46V30.3C113.817 30.86 113.544 31.14 112.997 31.14ZM120.345 18.94C119.638 18.94 119.285 18.6067 119.285 17.94C119.285 17.2867 119.638 16.96 120.345 16.96C121.052 16.96 121.405 17.2867 121.405 17.94C121.405 18.6067 121.052 18.94 120.345 18.94ZM120.345 31.1C119.812 31.1 119.545 30.8067 119.545 30.22V22.04C119.545 21.4667 119.812 21.18 120.345 21.18C120.892 21.18 121.165 21.4667 121.165 22.04V30.22C121.165 30.8067 120.892 31.1 120.345 31.1ZM127.453 31.18C126.787 31.18 126.187 31.0533 125.653 30.8C125.133 30.5333 124.72 30.1733 124.413 29.72C124.107 29.2667 123.953 28.76 123.953 28.2C123.953 27.4933 124.133 26.9333 124.493 26.52C124.867 26.1067 125.473 25.8133 126.313 25.64C127.167 25.4533 128.327 25.36 129.793 25.36H130.433V24.74C130.433 23.9133 130.26 23.32 129.913 22.96C129.58 22.5867 129.04 22.4 128.293 22.4C127.827 22.4 127.353 22.46 126.873 22.58C126.407 22.7 125.92 22.8933 125.413 23.16C125.187 23.28 124.993 23.3067 124.833 23.24C124.687 23.16 124.58 23.04 124.513 22.88C124.46 22.7067 124.46 22.5333 124.513 22.36C124.58 22.1733 124.713 22.0333 124.913 21.94C125.487 21.6467 126.06 21.4333 126.633 21.3C127.22 21.1667 127.773 21.1 128.293 21.1C129.547 21.1 130.473 21.4067 131.073 22.02C131.687 22.6333 131.993 23.5867 131.993 24.88V30.3C131.993 30.86 131.747 31.14 131.253 31.14C130.733 31.14 130.473 30.86 130.473 30.3V29.32C130.22 29.8933 129.827 30.3467 129.293 30.68C128.773 31.0133 128.16 31.18 127.453 31.18ZM127.713 29.96C128.513 29.96 129.167 29.6867 129.673 29.14C130.18 28.58 130.433 27.8733 130.433 27.02V26.42H129.813C128.733 26.42 127.88 26.4733 127.253 26.58C126.64 26.6733 126.207 26.8467 125.953 27.1C125.713 27.34 125.593 27.6733 125.593 28.1C125.593 28.6467 125.78 29.0933 126.153 29.44C126.54 29.7867 127.06 29.96 127.713 29.96ZM136.019 31.14C135.472 31.14 135.199 30.86 135.199 30.3V21.96C135.199 21.4133 135.459 21.14 135.979 21.14C136.512 21.14 136.779 21.4133 136.779 21.96V23.02C137.046 22.4067 137.459 21.94 138.019 21.62C138.579 21.2867 139.246 21.1067 140.019 21.08C140.446 21.04 140.672 21.2533 140.699 21.72C140.739 22.1867 140.499 22.4467 139.979 22.5L139.659 22.54C138.739 22.62 138.039 22.9133 137.559 23.42C137.079 23.9133 136.839 24.5933 136.839 25.46V30.3C136.839 30.86 136.566 31.14 136.019 31.14ZM152.043 31.18C151.07 31.18 150.23 30.9733 149.523 30.56C148.816 30.1333 148.27 29.54 147.883 28.78C147.51 28.0067 147.323 27.1067 147.323 26.08C147.323 24.5333 147.743 23.32 148.583 22.44C149.423 21.5467 150.576 21.1 152.043 21.1C152.523 21.1 153.023 21.18 153.543 21.34C154.063 21.4867 154.536 21.7333 154.963 22.08C155.19 22.24 155.283 22.44 155.243 22.68C155.216 22.92 155.103 23.1 154.903 23.22C154.716 23.34 154.496 23.3133 154.243 23.14C153.883 22.8733 153.523 22.6867 153.163 22.58C152.816 22.4733 152.476 22.42 152.143 22.42C151.13 22.42 150.35 22.74 149.803 23.38C149.256 24.0067 148.983 24.9133 148.983 26.1C148.983 27.26 149.256 28.18 149.803 28.86C150.35 29.5267 151.13 29.86 152.143 29.86C152.476 29.86 152.816 29.8067 153.163 29.7C153.523 29.5933 153.883 29.4067 154.243 29.14C154.496 28.9667 154.716 28.9467 154.903 29.08C155.09 29.2 155.19 29.38 155.203 29.62C155.23 29.86 155.136 30.0533 154.923 30.2C154.496 30.5467 154.03 30.8 153.523 30.96C153.016 31.1067 152.523 31.18 152.043 31.18ZM161.226 31.18C160.279 31.18 159.459 30.9733 158.766 30.56C158.072 30.1467 157.532 29.5667 157.146 28.82C156.772 28.06 156.586 27.1667 156.586 26.14C156.586 25.1133 156.772 24.2267 157.146 23.48C157.532 22.72 158.072 22.1333 158.766 21.72C159.459 21.3067 160.279 21.1 161.226 21.1C162.159 21.1 162.972 21.3067 163.666 21.72C164.372 22.1333 164.912 22.72 165.286 23.48C165.672 24.2267 165.866 25.1133 165.866 26.14C165.866 27.1667 165.672 28.06 165.286 28.82C164.912 29.5667 164.372 30.1467 163.666 30.56C162.972 30.9733 162.159 31.18 161.226 31.18ZM161.226 29.88C162.132 29.88 162.859 29.56 163.406 28.92C163.952 28.2667 164.226 27.34 164.226 26.14C164.226 24.9267 163.952 24 163.406 23.36C162.859 22.72 162.132 22.4 161.226 22.4C160.306 22.4 159.572 22.72 159.026 23.36C158.492 24 158.226 24.9267 158.226 26.14C158.226 27.34 158.492 28.2667 159.026 28.92C159.572 29.56 160.306 29.88 161.226 29.88ZM169.299 31.14C168.766 31.14 168.499 30.86 168.499 30.3V21.96C168.499 21.4133 168.759 21.14 169.279 21.14C169.812 21.14 170.079 21.4133 170.079 21.96V22.94C170.399 22.3267 170.852 21.8667 171.439 21.56C172.026 21.2533 172.686 21.1 173.419 21.1C175.726 21.1 176.879 22.38 176.879 24.94V30.3C176.879 30.86 176.612 31.14 176.079 31.14C175.532 31.14 175.259 30.86 175.259 30.3V25.04C175.259 24.1333 175.079 23.4733 174.719 23.06C174.372 22.6333 173.812 22.42 173.039 22.42C172.146 22.42 171.432 22.7 170.899 23.26C170.379 23.8067 170.119 24.54 170.119 25.46V30.3C170.119 30.86 169.846 31.14 169.299 31.14ZM183.966 31.18C182.819 31.18 181.959 30.88 181.386 30.28C180.813 29.6667 180.526 28.7867 180.526 27.64V22.54H179.186C178.719 22.54 178.486 22.3267 178.486 21.9C178.486 21.4867 178.719 21.28 179.186 21.28H180.526V18.98C180.526 18.4333 180.799 18.16 181.346 18.16C181.879 18.16 182.146 18.4333 182.146 18.98V21.28H184.666C185.133 21.28 185.366 21.4867 185.366 21.9C185.366 22.3267 185.133 22.54 184.666 22.54H182.146V27.48C182.146 28.24 182.306 28.82 182.626 29.22C182.946 29.6067 183.466 29.8 184.186 29.8C184.439 29.8 184.653 29.7733 184.826 29.72C184.999 29.6667 185.153 29.64 185.286 29.64C185.406 29.6267 185.506 29.6667 185.586 29.76C185.666 29.8533 185.706 30.0133 185.706 30.24C185.706 30.4 185.673 30.5467 185.606 30.68C185.553 30.8133 185.453 30.9067 185.306 30.96C185.146 31.0133 184.933 31.06 184.666 31.1C184.413 31.1533 184.179 31.18 183.966 31.18ZM190.318 31.18C189.652 31.18 189.052 31.0533 188.518 30.8C187.998 30.5333 187.585 30.1733 187.278 29.72C186.972 29.2667 186.818 28.76 186.818 28.2C186.818 27.4933 186.998 26.9333 187.358 26.52C187.732 26.1067 188.338 25.8133 189.178 25.64C190.032 25.4533 191.192 25.36 192.658 25.36H193.298V24.74C193.298 23.9133 193.125 23.32 192.778 22.96C192.445 22.5867 191.905 22.4 191.158 22.4C190.692 22.4 190.218 22.46 189.738 22.58C189.272 22.7 188.785 22.8933 188.278 23.16C188.052 23.28 187.858 23.3067 187.698 23.24C187.552 23.16 187.445 23.04 187.378 22.88C187.325 22.7067 187.325 22.5333 187.378 22.36C187.445 22.1733 187.578 22.0333 187.778 21.94C188.352 21.6467 188.925 21.4333 189.498 21.3C190.085 21.1667 190.638 21.1 191.158 21.1C192.412 21.1 193.338 21.4067 193.938 22.02C194.552 22.6333 194.858 23.5867 194.858 24.88V30.3C194.858 30.86 194.612 31.14 194.118 31.14C193.598 31.14 193.338 30.86 193.338 30.3V29.32C193.085 29.8933 192.692 30.3467 192.158 30.68C191.638 31.0133 191.025 31.18 190.318 31.18ZM190.578 29.96C191.378 29.96 192.032 29.6867 192.538 29.14C193.045 28.58 193.298 27.8733 193.298 27.02V26.42H192.678C191.598 26.42 190.745 26.4733 190.118 26.58C189.505 26.6733 189.072 26.8467 188.818 27.1C188.578 27.34 188.458 27.6733 188.458 28.1C188.458 28.6467 188.645 29.0933 189.018 29.44C189.405 29.7867 189.925 29.96 190.578 29.96Z" fill="#212121"/>
<circle cx="338" cy="24" r="20" fill="#E0E0E0"/>
<path d="M334.624 31C333.944 31 333.604 30.6867 333.604 30.06C333.604 29.7267 333.784 29.3667 334.144 28.98L338.404 24.42C339.057 23.7267 339.524 23.0933 339.804 22.52C340.097 21.9333 340.244 21.3467 340.244 20.76C340.244 19.24 339.351 18.48 337.564 18.48C337.031 18.48 336.511 18.56 336.004 18.72C335.511 18.88 335.024 19.14 334.544 19.5C334.304 19.6733 334.077 19.7333 333.864 19.68C333.664 19.6133 333.504 19.48 333.384 19.28C333.277 19.08 333.237 18.8667 333.264 18.64C333.304 18.4 333.444 18.1933 333.684 18.02C334.231 17.6067 334.864 17.2867 335.584 17.06C336.304 16.8333 337.037 16.72 337.784 16.72C339.237 16.72 340.351 17.0533 341.124 17.72C341.911 18.3867 342.304 19.34 342.304 20.58C342.304 21.42 342.097 22.24 341.684 23.04C341.284 23.84 340.651 24.6933 339.784 25.6L336.284 29.26H342.104C342.717 29.26 343.024 29.5467 343.024 30.12C343.024 30.7067 342.717 31 342.104 31H334.624Z" fill="#FCFCFC"/>
<path d="M370.64 31C370.04 31 369.74 30.7 369.74 30.1V17.8C369.74 17.2 370.04 16.9 370.64 16.9H374.5C376.78 16.9 378.54 17.5067 379.78 18.72C381.02 19.92 381.64 21.66 381.64 23.94C381.64 26.22 381.02 27.9667 379.78 29.18C378.54 30.3933 376.78 31 374.5 31H370.64ZM371.38 29.6H374.38C378.06 29.6 379.9 27.7133 379.9 23.94C379.9 20.18 378.06 18.3 374.38 18.3H371.38V29.6ZM387.624 31.18C386.957 31.18 386.357 31.0533 385.824 30.8C385.304 30.5333 384.89 30.1733 384.584 29.72C384.277 29.2667 384.124 28.76 384.124 28.2C384.124 27.4933 384.304 26.9333 384.664 26.52C385.037 26.1067 385.644 25.8133 386.484 25.64C387.337 25.4533 388.497 25.36 389.964 25.36H390.604V24.74C390.604 23.9133 390.43 23.32 390.084 22.96C389.75 22.5867 389.21 22.4 388.464 22.4C387.997 22.4 387.524 22.46 387.044 22.58C386.577 22.7 386.09 22.8933 385.584 23.16C385.357 23.28 385.164 23.3067 385.004 23.24C384.857 23.16 384.75 23.04 384.684 22.88C384.63 22.7067 384.63 22.5333 384.684 22.36C384.75 22.1733 384.884 22.0333 385.084 21.94C385.657 21.6467 386.23 21.4333 386.804 21.3C387.39 21.1667 387.944 21.1 388.464 21.1C389.717 21.1 390.644 21.4067 391.244 22.02C391.857 22.6333 392.164 23.5867 392.164 24.88V30.3C392.164 30.86 391.917 31.14 391.424 31.14C390.904 31.14 390.644 30.86 390.644 30.3V29.32C390.39 29.8933 389.997 30.3467 389.464 30.68C388.944 31.0133 388.33 31.18 387.624 31.18ZM387.884 29.96C388.684 29.96 389.337 29.6867 389.844 29.14C390.35 28.58 390.604 27.8733 390.604 27.02V26.42H389.984C388.904 26.42 388.05 26.4733 387.424 26.58C386.81 26.6733 386.377 26.8467 386.124 27.1C385.884 27.34 385.764 27.6733 385.764 28.1C385.764 28.6467 385.95 29.0933 386.324 29.44C386.71 29.7867 387.23 29.96 387.884 29.96ZM399.069 31.18C398.203 31.18 397.443 30.9733 396.789 30.56C396.149 30.1467 395.649 29.5667 395.289 28.82C394.943 28.06 394.769 27.1667 394.769 26.14C394.769 25.1 394.943 24.2067 395.289 23.46C395.649 22.7 396.149 22.12 396.789 21.72C397.443 21.3067 398.203 21.1 399.069 21.1C399.829 21.1 400.496 21.2667 401.069 21.6C401.656 21.9333 402.089 22.3933 402.369 22.98V17.58C402.369 17.0333 402.643 16.76 403.189 16.76C403.723 16.76 403.989 17.0333 403.989 17.58V30.3C403.989 30.86 403.723 31.14 403.189 31.14C402.656 31.14 402.389 30.86 402.389 30.3V29.26C402.096 29.86 401.656 30.3333 401.069 30.68C400.496 31.0133 399.829 31.18 399.069 31.18ZM399.409 29.88C400.316 29.88 401.043 29.56 401.589 28.92C402.136 28.2667 402.409 27.34 402.409 26.14C402.409 24.9267 402.136 24 401.589 23.36C401.043 22.72 400.316 22.4 399.409 22.4C398.489 22.4 397.756 22.72 397.209 23.36C396.676 24 396.409 24.9267 396.409 26.14C396.409 27.34 396.676 28.2667 397.209 28.92C397.756 29.56 398.489 29.88 399.409 29.88ZM411.269 31.18C410.323 31.18 409.503 30.9733 408.809 30.56C408.116 30.1467 407.576 29.5667 407.189 28.82C406.816 28.06 406.629 27.1667 406.629 26.14C406.629 25.1133 406.816 24.2267 407.189 23.48C407.576 22.72 408.116 22.1333 408.809 21.72C409.503 21.3067 410.323 21.1 411.269 21.1C412.203 21.1 413.016 21.3067 413.709 21.72C414.416 22.1333 414.956 22.72 415.329 23.48C415.716 24.2267 415.909 25.1133 415.909 26.14C415.909 27.1667 415.716 28.06 415.329 28.82C414.956 29.5667 414.416 30.1467 413.709 30.56C413.016 30.9733 412.203 31.18 411.269 31.18ZM411.269 29.88C412.176 29.88 412.903 29.56 413.449 28.92C413.996 28.2667 414.269 27.34 414.269 26.14C414.269 24.9267 413.996 24 413.449 23.36C412.903 22.72 412.176 22.4 411.269 22.4C410.349 22.4 409.616 22.72 409.069 23.36C408.536 24 408.269 24.9267 408.269 26.14C408.269 27.34 408.536 28.2667 409.069 28.92C409.616 29.56 410.349 29.88 411.269 29.88ZM421.823 31.18C421.223 31.18 420.616 31.1067 420.003 30.96C419.403 30.8 418.843 30.5467 418.323 30.2C418.083 30.0533 417.963 29.8667 417.963 29.64C417.976 29.4 418.069 29.2133 418.243 29.08C418.416 28.9467 418.636 28.9467 418.903 29.08C419.423 29.4 419.923 29.6267 420.403 29.76C420.896 29.88 421.383 29.94 421.863 29.94C422.623 29.94 423.196 29.8 423.583 29.52C423.969 29.24 424.163 28.86 424.163 28.38C424.163 28.0067 424.036 27.7133 423.783 27.5C423.529 27.2733 423.129 27.1 422.583 26.98L420.763 26.58C419.109 26.22 418.283 25.3667 418.283 24.02C418.283 23.14 418.629 22.4333 419.323 21.9C420.029 21.3667 420.949 21.1 422.083 21.1C422.656 21.1 423.209 21.18 423.743 21.34C424.276 21.4867 424.756 21.7267 425.183 22.06C425.409 22.22 425.509 22.4133 425.483 22.64C425.456 22.8667 425.349 23.0467 425.163 23.18C424.989 23.3 424.776 23.28 424.523 23.12C424.123 22.8533 423.716 22.66 423.303 22.54C422.889 22.4067 422.483 22.34 422.083 22.34C421.336 22.34 420.769 22.4867 420.383 22.78C419.996 23.0733 419.803 23.46 419.803 23.94C419.803 24.6867 420.296 25.1667 421.283 25.38L423.103 25.76C423.956 25.9467 424.603 26.2467 425.043 26.66C425.483 27.06 425.703 27.6067 425.703 28.3C425.703 29.1933 425.349 29.9 424.643 30.42C423.936 30.9267 422.996 31.18 421.823 31.18ZM437.428 31.18C436.561 31.18 435.801 30.9733 435.148 30.56C434.508 30.1467 434.008 29.5667 433.648 28.82C433.301 28.06 433.128 27.1667 433.128 26.14C433.128 25.1 433.301 24.2067 433.648 23.46C434.008 22.7 434.508 22.12 435.148 21.72C435.801 21.3067 436.561 21.1 437.428 21.1C438.188 21.1 438.854 21.2667 439.428 21.6C440.014 21.9333 440.448 22.3933 440.728 22.98V17.58C440.728 17.0333 441.001 16.76 441.548 16.76C442.081 16.76 442.348 17.0333 442.348 17.58V30.3C442.348 30.86 442.081 31.14 441.548 31.14C441.014 31.14 440.748 30.86 440.748 30.3V29.26C440.454 29.86 440.014 30.3333 439.428 30.68C438.854 31.0133 438.188 31.18 437.428 31.18ZM437.768 29.88C438.674 29.88 439.401 29.56 439.948 28.92C440.494 28.2667 440.768 27.34 440.768 26.14C440.768 24.9267 440.494 24 439.948 23.36C439.401 22.72 438.674 22.4 437.768 22.4C436.848 22.4 436.114 22.72 435.568 23.36C435.034 24 434.768 24.9267 434.768 26.14C434.768 27.34 435.034 28.2667 435.568 28.92C436.114 29.56 436.848 29.88 437.768 29.88ZM448.648 31.18C447.981 31.18 447.381 31.0533 446.848 30.8C446.328 30.5333 445.915 30.1733 445.608 29.72C445.301 29.2667 445.148 28.76 445.148 28.2C445.148 27.4933 445.328 26.9333 445.688 26.52C446.061 26.1067 446.668 25.8133 447.508 25.64C448.361 25.4533 449.521 25.36 450.988 25.36H451.628V24.74C451.628 23.9133 451.455 23.32 451.108 22.96C450.775 22.5867 450.235 22.4 449.488 22.4C449.021 22.4 448.548 22.46 448.068 22.58C447.601 22.7 447.115 22.8933 446.608 23.16C446.381 23.28 446.188 23.3067 446.028 23.24C445.881 23.16 445.775 23.04 445.708 22.88C445.655 22.7067 445.655 22.5333 445.708 22.36C445.775 22.1733 445.908 22.0333 446.108 21.94C446.681 21.6467 447.255 21.4333 447.828 21.3C448.415 21.1667 448.968 21.1 449.488 21.1C450.741 21.1 451.668 21.4067 452.268 22.02C452.881 22.6333 453.188 23.5867 453.188 24.88V30.3C453.188 30.86 452.941 31.14 452.448 31.14C451.928 31.14 451.668 30.86 451.668 30.3V29.32C451.415 29.8933 451.021 30.3467 450.488 30.68C449.968 31.0133 449.355 31.18 448.648 31.18ZM448.908 29.96C449.708 29.96 450.361 29.6867 450.868 29.14C451.375 28.58 451.628 27.8733 451.628 27.02V26.42H451.008C449.928 26.42 449.075 26.4733 448.448 26.58C447.835 26.6733 447.401 26.8467 447.148 27.1C446.908 27.34 446.788 27.6733 446.788 28.1C446.788 28.6467 446.975 29.0933 447.348 29.44C447.735 29.7867 448.255 29.96 448.908 29.96ZM462.55 18.94C461.843 18.94 461.49 18.6067 461.49 17.94C461.49 17.2867 461.843 16.96 462.55 16.96C463.256 16.96 463.61 17.2867 463.61 17.94C463.61 18.6067 463.256 18.94 462.55 18.94ZM462.55 31.1C462.016 31.1 461.75 30.8067 461.75 30.22V22.04C461.75 21.4667 462.016 21.18 462.55 21.18C463.096 21.18 463.37 21.4667 463.37 22.04V30.22C463.37 30.8067 463.096 31.1 462.55 31.1ZM467.398 31.14C466.865 31.14 466.598 30.86 466.598 30.3V21.96C466.598 21.4133 466.858 21.14 467.378 21.14C467.911 21.14 468.178 21.4133 468.178 21.96V22.94C468.498 22.3267 468.951 21.8667 469.538 21.56C470.125 21.2533 470.785 21.1 471.518 21.1C473.825 21.1 474.978 22.38 474.978 24.94V30.3C474.978 30.86 474.711 31.14 474.178 31.14C473.631 31.14 473.358 30.86 473.358 30.3V25.04C473.358 24.1333 473.178 23.4733 472.818 23.06C472.471 22.6333 471.911 22.42 471.138 22.42C470.245 22.42 469.531 22.7 468.998 23.26C468.478 23.8067 468.218 24.54 468.218 25.46V30.3C468.218 30.86 467.945 31.14 467.398 31.14ZM481.445 31.18C480.845 31.18 480.239 31.1067 479.625 30.96C479.025 30.8 478.465 30.5467 477.945 30.2C477.705 30.0533 477.585 29.8667 477.585 29.64C477.599 29.4 477.692 29.2133 477.865 29.08C478.039 28.9467 478.259 28.9467 478.525 29.08C479.045 29.4 479.545 29.6267 480.025 29.76C480.519 29.88 481.005 29.94 481.485 29.94C482.245 29.94 482.819 29.8 483.205 29.52C483.592 29.24 483.785 28.86 483.785 28.38C483.785 28.0067 483.659 27.7133 483.405 27.5C483.152 27.2733 482.752 27.1 482.205 26.98L480.385 26.58C478.732 26.22 477.905 25.3667 477.905 24.02C477.905 23.14 478.252 22.4333 478.945 21.9C479.652 21.3667 480.572 21.1 481.705 21.1C482.279 21.1 482.832 21.18 483.365 21.34C483.899 21.4867 484.379 21.7267 484.805 22.06C485.032 22.22 485.132 22.4133 485.105 22.64C485.079 22.8667 484.972 23.0467 484.785 23.18C484.612 23.3 484.399 23.28 484.145 23.12C483.745 22.8533 483.339 22.66 482.925 22.54C482.512 22.4067 482.105 22.34 481.705 22.34C480.959 22.34 480.392 22.4867 480.005 22.78C479.619 23.0733 479.425 23.46 479.425 23.94C479.425 24.6867 479.919 25.1667 480.905 25.38L482.725 25.76C483.579 25.9467 484.225 26.2467 484.665 26.66C485.105 27.06 485.325 27.6067 485.325 28.3C485.325 29.1933 484.972 29.9 484.265 30.42C483.559 30.9267 482.619 31.18 481.445 31.18ZM491.797 31.18C490.65 31.18 489.79 30.88 489.217 30.28C488.643 29.6667 488.357 28.7867 488.357 27.64V22.54H487.017C486.55 22.54 486.317 22.3267 486.317 21.9C486.317 21.4867 486.55 21.28 487.017 21.28H488.357V18.98C488.357 18.4333 488.63 18.16 489.177 18.16C489.71 18.16 489.977 18.4333 489.977 18.98V21.28H492.497C492.963 21.28 493.197 21.4867 493.197 21.9C493.197 22.3267 492.963 22.54 492.497 22.54H489.977V27.48C489.977 28.24 490.137 28.82 490.457 29.22C490.777 29.6067 491.297 29.8 492.017 29.8C492.27 29.8 492.483 29.7733 492.657 29.72C492.83 29.6667 492.983 29.64 493.117 29.64C493.237 29.6267 493.337 29.6667 493.417 29.76C493.497 29.8533 493.537 30.0133 493.537 30.24C493.537 30.4 493.503 30.5467 493.437 30.68C493.383 30.8133 493.283 30.9067 493.137 30.96C492.977 31.0133 492.763 31.06 492.497 31.1C492.243 31.1533 492.01 31.18 491.797 31.18ZM496.006 18.94C495.299 18.94 494.946 18.6067 494.946 17.94C494.946 17.2867 495.299 16.96 496.006 16.96C496.713 16.96 497.066 17.2867 497.066 17.94C497.066 18.6067 496.713 18.94 496.006 18.94ZM496.006 31.1C495.473 31.1 495.206 30.8067 495.206 30.22V22.04C495.206 21.4667 495.473 21.18 496.006 21.18C496.553 21.18 496.826 21.4667 496.826 22.04V30.22C496.826 30.8067 496.553 31.1 496.006 31.1ZM503.954 31.18C502.808 31.18 501.948 30.88 501.374 30.28C500.801 29.6667 500.514 28.7867 500.514 27.64V22.54H499.174C498.708 22.54 498.474 22.3267 498.474 21.9C498.474 21.4867 498.708 21.28 499.174 21.28H500.514V18.98C500.514 18.4333 500.788 18.16 501.334 18.16C501.868 18.16 502.134 18.4333 502.134 18.98V21.28H504.654C505.121 21.28 505.354 21.4867 505.354 21.9C505.354 22.3267 505.121 22.54 504.654 22.54H502.134V27.48C502.134 28.24 502.294 28.82 502.614 29.22C502.934 29.6067 503.454 29.8 504.174 29.8C504.428 29.8 504.641 29.7733 504.814 29.72C504.988 29.6667 505.141 29.64 505.274 29.64C505.394 29.6267 505.494 29.6667 505.574 29.76C505.654 29.8533 505.694 30.0133 505.694 30.24C505.694 30.4 505.661 30.5467 505.594 30.68C505.541 30.8133 505.441 30.9067 505.294 30.96C505.134 31.0133 504.921 31.06 504.654 31.1C504.401 31.1533 504.168 31.18 503.954 31.18ZM510.687 31.18C508.353 31.18 507.187 29.8933 507.187 27.32V21.96C507.187 21.4133 507.453 21.14 507.987 21.14C508.533 21.14 508.807 21.4133 508.807 21.96V27.3C508.807 28.1667 508.98 28.8067 509.327 29.22C509.687 29.6333 510.247 29.84 511.007 29.84C511.833 29.84 512.507 29.5667 513.027 29.02C513.547 28.46 513.807 27.72 513.807 26.8V21.96C513.807 21.4133 514.08 21.14 514.627 21.14C515.16 21.14 515.427 21.4133 515.427 21.96V30.3C515.427 30.86 515.167 31.14 514.647 31.14C514.113 31.14 513.847 30.86 513.847 30.3V29.36C513.54 29.9467 513.107 30.4 512.547 30.72C512 31.0267 511.38 31.18 510.687 31.18ZM519.457 18.94C518.751 18.94 518.397 18.6067 518.397 17.94C518.397 17.2867 518.751 16.96 519.457 16.96C520.164 16.96 520.517 17.2867 520.517 17.94C520.517 18.6067 520.164 18.94 519.457 18.94ZM519.457 31.1C518.924 31.1 518.657 30.8067 518.657 30.22V22.04C518.657 21.4667 518.924 21.18 519.457 21.18C520.004 21.18 520.277 21.4667 520.277 22.04V30.22C520.277 30.8067 520.004 31.1 519.457 31.1ZM527.626 31.18C526.653 31.18 525.813 30.9733 525.106 30.56C524.399 30.1333 523.853 29.54 523.466 28.78C523.093 28.0067 522.906 27.1067 522.906 26.08C522.906 24.5333 523.326 23.32 524.166 22.44C525.006 21.5467 526.159 21.1 527.626 21.1C528.106 21.1 528.606 21.18 529.126 21.34C529.646 21.4867 530.119 21.7333 530.546 22.08C530.773 22.24 530.866 22.44 530.826 22.68C530.799 22.92 530.686 23.1 530.486 23.22C530.299 23.34 530.079 23.3133 529.826 23.14C529.466 22.8733 529.106 22.6867 528.746 22.58C528.399 22.4733 528.059 22.42 527.726 22.42C526.713 22.42 525.933 22.74 525.386 23.38C524.839 24.0067 524.566 24.9133 524.566 26.1C524.566 27.26 524.839 28.18 525.386 28.86C525.933 29.5267 526.713 29.86 527.726 29.86C528.059 29.86 528.399 29.8067 528.746 29.7C529.106 29.5933 529.466 29.4067 529.826 29.14C530.079 28.9667 530.299 28.9467 530.486 29.08C530.673 29.2 530.773 29.38 530.786 29.62C530.813 29.86 530.719 30.0533 530.506 30.2C530.079 30.5467 529.613 30.8 529.106 30.96C528.599 31.1067 528.106 31.18 527.626 31.18ZM527.606 34.84C527.366 34.84 527.113 34.82 526.846 34.78C526.593 34.7533 526.359 34.6933 526.146 34.6C525.946 34.52 525.833 34.3933 525.806 34.22C525.793 34.0467 525.839 33.9 525.946 33.78C526.066 33.66 526.233 33.64 526.446 33.72C526.739 33.84 527.113 33.9 527.566 33.9C527.913 33.9 528.193 33.8333 528.406 33.7C528.619 33.58 528.726 33.4 528.726 33.16C528.726 32.7867 528.473 32.6 527.966 32.6C527.859 32.6 527.753 32.6067 527.646 32.62C527.553 32.6333 527.439 32.6533 527.306 32.68C527.093 32.7467 526.933 32.7467 526.826 32.68C526.733 32.6 526.706 32.4333 526.746 32.18L526.986 30.6H528.006L527.786 31.86C527.919 31.8467 528.046 31.84 528.166 31.84C528.659 31.84 529.059 31.96 529.366 32.2C529.686 32.44 529.846 32.7733 529.846 33.2C529.846 33.6933 529.639 34.0867 529.226 34.38C528.813 34.6867 528.273 34.84 527.606 34.84ZM536.024 31.18C535.357 31.18 534.757 31.0533 534.224 30.8C533.704 30.5333 533.29 30.1733 532.984 29.72C532.677 29.2667 532.524 28.76 532.524 28.2C532.524 27.4933 532.704 26.9333 533.064 26.52C533.437 26.1067 534.044 25.8133 534.884 25.64C535.737 25.4533 536.897 25.36 538.364 25.36H539.004V24.74C539.004 23.9133 538.83 23.32 538.484 22.96C538.15 22.5867 537.61 22.4 536.864 22.4C536.397 22.4 535.924 22.46 535.444 22.58C534.977 22.7 534.49 22.8933 533.984 23.16C533.757 23.28 533.564 23.3067 533.404 23.24C533.257 23.16 533.15 23.04 533.084 22.88C533.03 22.7067 533.03 22.5333 533.084 22.36C533.15 22.1733 533.284 22.0333 533.484 21.94C534.057 21.6467 534.63 21.4333 535.204 21.3C535.79 21.1667 536.344 21.1 536.864 21.1C538.117 21.1 539.044 21.4067 539.644 22.02C540.257 22.6333 540.564 23.5867 540.564 24.88V30.3C540.564 30.86 540.317 31.14 539.824 31.14C539.304 31.14 539.044 30.86 539.044 30.3V29.32C538.79 29.8933 538.397 30.3467 537.864 30.68C537.344 31.0133 536.73 31.18 536.024 31.18ZM536.284 29.96C537.084 29.96 537.737 29.6867 538.244 29.14C538.75 28.58 539.004 27.8733 539.004 27.02V26.42H538.384C537.304 26.42 536.45 26.4733 535.824 26.58C535.21 26.6733 534.777 26.8467 534.524 27.1C534.284 27.34 534.164 27.6733 534.164 28.1C534.164 28.6467 534.35 29.0933 534.724 29.44C535.11 29.7867 535.63 29.96 536.284 29.96ZM533.744 19.26C533.61 19.26 533.497 19.2133 533.404 19.12C533.324 19.0267 533.304 18.8867 533.344 18.7C533.45 18.0733 533.67 17.5467 534.004 17.12C534.35 16.6933 534.824 16.48 535.424 16.48C535.744 16.48 536.03 16.56 536.284 16.72C536.537 16.8667 536.77 17.04 536.984 17.24C537.21 17.44 537.43 17.62 537.644 17.78C537.857 17.9267 538.084 18 538.324 18C538.63 18 538.884 17.8867 539.084 17.66C539.284 17.4333 539.424 17.12 539.504 16.72C539.557 16.4667 539.73 16.3467 540.024 16.36C540.157 16.36 540.264 16.4067 540.344 16.5C540.437 16.5933 540.464 16.7333 540.424 16.92C540.317 17.5333 540.09 18.06 539.744 18.5C539.41 18.9267 538.944 19.14 538.344 19.14C538.024 19.14 537.737 19.0667 537.484 18.92C537.23 18.76 536.99 18.58 536.764 18.38C536.55 18.18 536.337 18.0067 536.124 17.86C535.91 17.7 535.684 17.62 535.444 17.62C535.137 17.62 534.884 17.7333 534.684 17.96C534.484 18.1867 534.344 18.5 534.264 18.9C534.21 19.1533 534.037 19.2733 533.744 19.26ZM547.809 31.18C546.863 31.18 546.043 30.9733 545.349 30.56C544.656 30.1467 544.116 29.5667 543.729 28.82C543.356 28.06 543.169 27.1667 543.169 26.14C543.169 25.1133 543.356 24.2267 543.729 23.48C544.116 22.72 544.656 22.1333 545.349 21.72C546.043 21.3067 546.863 21.1 547.809 21.1C548.743 21.1 549.556 21.3067 550.249 21.72C550.956 22.1333 551.496 22.72 551.869 23.48C552.256 24.2267 552.449 25.1133 552.449 26.14C552.449 27.1667 552.256 28.06 551.869 28.82C551.496 29.5667 550.956 30.1467 550.249 30.56C549.556 30.9733 548.743 31.18 547.809 31.18ZM547.809 29.88C548.716 29.88 549.443 29.56 549.989 28.92C550.536 28.2667 550.809 27.34 550.809 26.14C550.809 24.9267 550.536 24 549.989 23.36C549.443 22.72 548.716 22.4 547.809 22.4C546.889 22.4 546.156 22.72 545.609 23.36C545.076 24 544.809 24.9267 544.809 26.14C544.809 27.34 545.076 28.2667 545.609 28.92C546.156 29.56 546.889 29.88 547.809 29.88Z" fill="#E0E0E0"/>
<circle cx="707" cy="24" r="20" fill="#E0E0E0"/>
<path d="M706.784 31.18C706.037 31.18 705.271 31.08 704.484 30.88C703.711 30.68 703.044 30.3667 702.484 29.94C702.217 29.7667 702.057 29.56 702.004 29.32C701.951 29.08 701.977 28.8667 702.084 28.68C702.191 28.48 702.357 28.3467 702.584 28.28C702.811 28.2133 703.064 28.2667 703.344 28.44C703.917 28.7867 704.477 29.04 705.024 29.2C705.571 29.3467 706.137 29.42 706.724 29.42C707.684 29.42 708.411 29.2133 708.904 28.8C709.411 28.3867 709.664 27.7933 709.664 27.02C709.664 26.2467 709.411 25.6733 708.904 25.3C708.411 24.9267 707.691 24.74 706.744 24.74H705.384C704.757 24.74 704.444 24.4467 704.444 23.86C704.444 23.2867 704.757 23 705.384 23H706.544C707.384 23 708.044 22.7867 708.524 22.36C709.017 21.9333 709.264 21.3467 709.264 20.6C709.264 19.92 709.037 19.4 708.584 19.04C708.131 18.6667 707.484 18.48 706.644 18.48C706.084 18.48 705.564 18.5533 705.084 18.7C704.604 18.8467 704.104 19.1067 703.584 19.48C703.331 19.64 703.097 19.6933 702.884 19.64C702.671 19.5733 702.504 19.4467 702.384 19.26C702.277 19.06 702.244 18.8467 702.284 18.62C702.324 18.38 702.471 18.1733 702.724 18C703.284 17.5867 703.911 17.2733 704.604 17.06C705.311 16.8333 706.044 16.72 706.804 16.72C708.217 16.72 709.317 17.0467 710.104 17.7C710.891 18.34 711.284 19.2333 711.284 20.38C711.284 21.1533 711.084 21.8333 710.684 22.42C710.297 23.0067 709.757 23.4333 709.064 23.7C709.904 23.9133 710.551 24.3267 711.004 24.94C711.457 25.54 711.684 26.28 711.684 27.16C711.684 28.4 711.244 29.38 710.364 30.1C709.497 30.82 708.304 31.18 706.784 31.18Z" fill="#FCFCFC"/>
<path d="M739.64 31C739.04 31 738.74 30.7 738.74 30.1V17.8C738.74 17.2 739.04 16.9 739.64 16.9H747.08C747.547 16.9 747.78 17.1267 747.78 17.58C747.78 18.0467 747.547 18.28 747.08 18.28H740.34V23.16H746.66C747.127 23.16 747.36 23.3867 747.36 23.84C747.36 24.3067 747.127 24.54 746.66 24.54H740.34V29.62H747.08C747.547 29.62 747.78 29.8467 747.78 30.3C747.78 30.7667 747.547 31 747.08 31H739.64ZM753.504 31.18C752.904 31.18 752.297 31.1067 751.684 30.96C751.084 30.8 750.524 30.5467 750.004 30.2C749.764 30.0533 749.644 29.8667 749.644 29.64C749.657 29.4 749.751 29.2133 749.924 29.08C750.097 28.9467 750.317 28.9467 750.584 29.08C751.104 29.4 751.604 29.6267 752.084 29.76C752.577 29.88 753.064 29.94 753.544 29.94C754.304 29.94 754.877 29.8 755.264 29.52C755.651 29.24 755.844 28.86 755.844 28.38C755.844 28.0067 755.717 27.7133 755.464 27.5C755.211 27.2733 754.811 27.1 754.264 26.98L752.444 26.58C750.791 26.22 749.964 25.3667 749.964 24.02C749.964 23.14 750.311 22.4333 751.004 21.9C751.711 21.3667 752.631 21.1 753.764 21.1C754.337 21.1 754.891 21.18 755.424 21.34C755.957 21.4867 756.437 21.7267 756.864 22.06C757.091 22.22 757.191 22.4133 757.164 22.64C757.137 22.8667 757.031 23.0467 756.844 23.18C756.671 23.3 756.457 23.28 756.204 23.12C755.804 22.8533 755.397 22.66 754.984 22.54C754.571 22.4067 754.164 22.34 753.764 22.34C753.017 22.34 752.451 22.4867 752.064 22.78C751.677 23.0733 751.484 23.46 751.484 23.94C751.484 24.6867 751.977 25.1667 752.964 25.38L754.784 25.76C755.637 25.9467 756.284 26.2467 756.724 26.66C757.164 27.06 757.384 27.6067 757.384 28.3C757.384 29.1933 757.031 29.9 756.324 30.42C755.617 30.9267 754.677 31.18 753.504 31.18ZM764.173 31.18C763.199 31.18 762.359 30.9733 761.653 30.56C760.946 30.1333 760.399 29.54 760.013 28.78C759.639 28.0067 759.453 27.1067 759.453 26.08C759.453 24.5333 759.873 23.32 760.713 22.44C761.553 21.5467 762.706 21.1 764.173 21.1C764.653 21.1 765.153 21.18 765.673 21.34C766.193 21.4867 766.666 21.7333 767.093 22.08C767.319 22.24 767.413 22.44 767.373 22.68C767.346 22.92 767.233 23.1 767.033 23.22C766.846 23.34 766.626 23.3133 766.373 23.14C766.013 22.8733 765.653 22.6867 765.293 22.58C764.946 22.4733 764.606 22.42 764.273 22.42C763.259 22.42 762.479 22.74 761.933 23.38C761.386 24.0067 761.113 24.9133 761.113 26.1C761.113 27.26 761.386 28.18 761.933 28.86C762.479 29.5267 763.259 29.86 764.273 29.86C764.606 29.86 764.946 29.8067 765.293 29.7C765.653 29.5933 766.013 29.4067 766.373 29.14C766.626 28.9667 766.846 28.9467 767.033 29.08C767.219 29.2 767.319 29.38 767.333 29.62C767.359 29.86 767.266 30.0533 767.053 30.2C766.626 30.5467 766.159 30.8 765.653 30.96C765.146 31.1067 764.653 31.18 764.173 31.18ZM773.355 31.18C772.409 31.18 771.589 30.9733 770.895 30.56C770.202 30.1467 769.662 29.5667 769.275 28.82C768.902 28.06 768.715 27.1667 768.715 26.14C768.715 25.1133 768.902 24.2267 769.275 23.48C769.662 22.72 770.202 22.1333 770.895 21.72C771.589 21.3067 772.409 21.1 773.355 21.1C774.289 21.1 775.102 21.3067 775.795 21.72C776.502 22.1333 777.042 22.72 777.415 23.48C777.802 24.2267 777.995 25.1133 777.995 26.14C777.995 27.1667 777.802 28.06 777.415 28.82C777.042 29.5667 776.502 30.1467 775.795 30.56C775.102 30.9733 774.289 31.18 773.355 31.18ZM773.355 29.88C774.262 29.88 774.989 29.56 775.535 28.92C776.082 28.2667 776.355 27.34 776.355 26.14C776.355 24.9267 776.082 24 775.535 23.36C774.989 22.72 774.262 22.4 773.355 22.4C772.435 22.4 771.702 22.72 771.155 23.36C770.622 24 770.355 24.9267 770.355 26.14C770.355 27.34 770.622 28.2667 771.155 28.92C771.702 29.56 772.435 29.88 773.355 29.88ZM783.589 31.18C782.629 31.18 781.895 30.8933 781.389 30.32C780.882 29.7333 780.629 28.8867 780.629 27.78V17.58C780.629 17.0333 780.895 16.76 781.429 16.76C781.975 16.76 782.249 17.0333 782.249 17.58V27.66C782.249 29.0867 782.815 29.8 783.949 29.8C784.069 29.8 784.175 29.7933 784.269 29.78C784.362 29.7667 784.455 29.76 784.549 29.76C784.695 29.7467 784.795 29.78 784.849 29.86C784.915 29.94 784.949 30.1 784.949 30.34C784.949 30.7933 784.722 31.0533 784.269 31.12C784.162 31.1467 784.049 31.16 783.929 31.16C783.809 31.1733 783.695 31.18 783.589 31.18ZM787.547 31.14C787.013 31.14 786.747 30.86 786.747 30.3V17.58C786.747 17.0333 787.013 16.76 787.547 16.76C788.093 16.76 788.367 17.0333 788.367 17.58V22.88C788.687 22.2933 789.133 21.8533 789.707 21.56C790.293 21.2533 790.947 21.1 791.667 21.1C793.973 21.1 795.127 22.38 795.127 24.94V30.3C795.127 30.86 794.86 31.14 794.327 31.14C793.78 31.14 793.507 30.86 793.507 30.3V25.04C793.507 24.1333 793.327 23.4733 792.967 23.06C792.62 22.6333 792.06 22.42 791.287 22.42C790.393 22.42 789.68 22.7 789.147 23.26C788.627 23.8067 788.367 24.54 788.367 25.46V30.3C788.367 30.86 788.093 31.14 787.547 31.14ZM801.374 31.18C800.707 31.18 800.107 31.0533 799.574 30.8C799.054 30.5333 798.64 30.1733 798.334 29.72C798.027 29.2667 797.874 28.76 797.874 28.2C797.874 27.4933 798.054 26.9333 798.414 26.52C798.787 26.1067 799.394 25.8133 800.234 25.64C801.087 25.4533 802.247 25.36 803.714 25.36H804.354V24.74C804.354 23.9133 804.18 23.32 803.834 22.96C803.5 22.5867 802.96 22.4 802.214 22.4C801.747 22.4 801.274 22.46 800.794 22.58C800.327 22.7 799.84 22.8933 799.334 23.16C799.107 23.28 798.914 23.3067 798.754 23.24C798.607 23.16 798.5 23.04 798.434 22.88C798.38 22.7067 798.38 22.5333 798.434 22.36C798.5 22.1733 798.634 22.0333 798.834 21.94C799.407 21.6467 799.98 21.4333 800.554 21.3C801.14 21.1667 801.694 21.1 802.214 21.1C803.467 21.1 804.394 21.4067 804.994 22.02C805.607 22.6333 805.914 23.5867 805.914 24.88V30.3C805.914 30.86 805.667 31.14 805.174 31.14C804.654 31.14 804.394 30.86 804.394 30.3V29.32C804.14 29.8933 803.747 30.3467 803.214 30.68C802.694 31.0133 802.08 31.18 801.374 31.18ZM801.634 29.96C802.434 29.96 803.087 29.6867 803.594 29.14C804.1 28.58 804.354 27.8733 804.354 27.02V26.42H803.734C802.654 26.42 801.8 26.4733 801.174 26.58C800.56 26.6733 800.127 26.8467 799.874 27.1C799.634 27.34 799.514 27.6733 799.514 28.1C799.514 28.6467 799.7 29.0933 800.074 29.44C800.46 29.7867 800.98 29.96 801.634 29.96ZM817.915 31.18C815.582 31.18 814.415 29.8933 814.415 27.32V21.96C814.415 21.4133 814.682 21.14 815.215 21.14C815.762 21.14 816.035 21.4133 816.035 21.96V27.3C816.035 28.1667 816.209 28.8067 816.555 29.22C816.915 29.6333 817.475 29.84 818.235 29.84C819.062 29.84 819.735 29.5667 820.255 29.02C820.775 28.46 821.035 27.72 821.035 26.8V21.96C821.035 21.4133 821.309 21.14 821.855 21.14C822.389 21.14 822.655 21.4133 822.655 21.96V30.3C822.655 30.86 822.395 31.14 821.875 31.14C821.342 31.14 821.075 30.86 821.075 30.3V29.36C820.769 29.9467 820.335 30.4 819.775 30.72C819.229 31.0267 818.609 31.18 817.915 31.18ZM826.726 31.14C826.193 31.14 825.926 30.86 825.926 30.3V21.96C825.926 21.4133 826.186 21.14 826.706 21.14C827.24 21.14 827.506 21.4133 827.506 21.96V22.92C827.8 22.3333 828.206 21.8867 828.726 21.58C829.246 21.26 829.853 21.1 830.546 21.1C832.066 21.1 833.04 21.76 833.466 23.08C833.76 22.4667 834.193 21.9867 834.766 21.64C835.34 21.28 836 21.1 836.746 21.1C838.906 21.1 839.986 22.38 839.986 24.94V30.3C839.986 30.86 839.713 31.14 839.166 31.14C838.633 31.14 838.366 30.86 838.366 30.3V25.02C838.366 24.1267 838.206 23.4733 837.886 23.06C837.58 22.6333 837.066 22.42 836.346 22.42C835.56 22.42 834.933 22.7 834.466 23.26C834 23.82 833.766 24.5667 833.766 25.5V30.3C833.766 30.86 833.493 31.14 832.946 31.14C832.413 31.14 832.146 30.86 832.146 30.3V25.02C832.146 24.1267 831.986 23.4733 831.666 23.06C831.36 22.6333 830.846 22.42 830.126 22.42C829.326 22.42 828.693 22.7 828.226 23.26C827.773 23.82 827.546 24.5667 827.546 25.5V30.3C827.546 30.86 827.273 31.14 826.726 31.14ZM849.372 34.74C848.838 34.74 848.572 34.4667 848.572 33.92V21.96C848.572 21.4133 848.832 21.14 849.352 21.14C849.898 21.14 850.172 21.4133 850.172 21.96V23C850.452 22.4133 850.885 21.9533 851.472 21.62C852.058 21.2733 852.732 21.1 853.492 21.1C854.358 21.1 855.112 21.3067 855.752 21.72C856.405 22.12 856.905 22.7 857.252 23.46C857.612 24.2067 857.792 25.1 857.792 26.14C857.792 27.1667 857.612 28.06 857.252 28.82C856.905 29.5667 856.405 30.1467 855.752 30.56C855.112 30.9733 854.358 31.18 853.492 31.18C852.745 31.18 852.078 31.0133 851.492 30.68C850.905 30.3467 850.472 29.8867 850.192 29.3V33.92C850.192 34.4667 849.918 34.74 849.372 34.74ZM853.152 29.88C854.058 29.88 854.785 29.56 855.332 28.92C855.878 28.2667 856.152 27.34 856.152 26.14C856.152 24.9267 855.878 24 855.332 23.36C854.785 22.72 854.058 22.4 853.152 22.4C852.245 22.4 851.518 22.72 850.972 23.36C850.425 24 850.152 24.9267 850.152 26.14C850.152 27.34 850.425 28.2667 850.972 28.92C851.518 29.56 852.245 29.88 853.152 29.88ZM863.392 31.18C862.432 31.18 861.698 30.8933 861.192 30.32C860.685 29.7333 860.432 28.8867 860.432 27.78V17.58C860.432 17.0333 860.698 16.76 861.232 16.76C861.778 16.76 862.052 17.0333 862.052 17.58V27.66C862.052 29.0867 862.618 29.8 863.752 29.8C863.872 29.8 863.978 29.7933 864.072 29.78C864.165 29.7667 864.258 29.76 864.352 29.76C864.498 29.7467 864.598 29.78 864.652 29.86C864.718 29.94 864.752 30.1 864.752 30.34C864.752 30.7933 864.525 31.0533 864.072 31.12C863.965 31.1467 863.852 31.16 863.732 31.16C863.612 31.1733 863.498 31.18 863.392 31.18ZM869.61 31.18C868.943 31.18 868.343 31.0533 867.81 30.8C867.29 30.5333 866.876 30.1733 866.57 29.72C866.263 29.2667 866.11 28.76 866.11 28.2C866.11 27.4933 866.29 26.9333 866.65 26.52C867.023 26.1067 867.63 25.8133 868.47 25.64C869.323 25.4533 870.483 25.36 871.95 25.36H872.59V24.74C872.59 23.9133 872.416 23.32 872.07 22.96C871.736 22.5867 871.196 22.4 870.45 22.4C869.983 22.4 869.51 22.46 869.03 22.58C868.563 22.7 868.076 22.8933 867.57 23.16C867.343 23.28 867.15 23.3067 866.99 23.24C866.843 23.16 866.736 23.04 866.67 22.88C866.616 22.7067 866.616 22.5333 866.67 22.36C866.736 22.1733 866.87 22.0333 867.07 21.94C867.643 21.6467 868.216 21.4333 868.79 21.3C869.376 21.1667 869.93 21.1 870.45 21.1C871.703 21.1 872.63 21.4067 873.23 22.02C873.843 22.6333 874.15 23.5867 874.15 24.88V30.3C874.15 30.86 873.903 31.14 873.41 31.14C872.89 31.14 872.63 30.86 872.63 30.3V29.32C872.376 29.8933 871.983 30.3467 871.45 30.68C870.93 31.0133 870.316 31.18 869.61 31.18ZM869.87 29.96C870.67 29.96 871.323 29.6867 871.83 29.14C872.336 28.58 872.59 27.8733 872.59 27.02V26.42H871.97C870.89 26.42 870.036 26.4733 869.41 26.58C868.796 26.6733 868.363 26.8467 868.11 27.1C867.87 27.34 867.75 27.6733 867.75 28.1C867.75 28.6467 867.936 29.0933 868.31 29.44C868.696 29.7867 869.216 29.96 869.87 29.96ZM878.155 31.14C877.622 31.14 877.355 30.86 877.355 30.3V21.96C877.355 21.4133 877.615 21.14 878.135 21.14C878.668 21.14 878.935 21.4133 878.935 21.96V22.94C879.255 22.3267 879.708 21.8667 880.295 21.56C880.882 21.2533 881.542 21.1 882.275 21.1C884.582 21.1 885.735 22.38 885.735 24.94V30.3C885.735 30.86 885.468 31.14 884.935 31.14C884.388 31.14 884.115 30.86 884.115 30.3V25.04C884.115 24.1333 883.935 23.4733 883.575 23.06C883.228 22.6333 882.668 22.42 881.895 22.42C881.002 22.42 880.288 22.7 879.755 23.26C879.235 23.8067 878.975 24.54 878.975 25.46V30.3C878.975 30.86 878.702 31.14 878.155 31.14ZM892.962 31.18C892.016 31.18 891.196 30.9733 890.502 30.56C889.809 30.1467 889.269 29.5667 888.882 28.82C888.509 28.06 888.322 27.1667 888.322 26.14C888.322 25.1133 888.509 24.2267 888.882 23.48C889.269 22.72 889.809 22.1333 890.502 21.72C891.196 21.3067 892.016 21.1 892.962 21.1C893.896 21.1 894.709 21.3067 895.402 21.72C896.109 22.1333 896.649 22.72 897.022 23.48C897.409 24.2267 897.602 25.1133 897.602 26.14C897.602 27.1667 897.409 28.06 897.022 28.82C896.649 29.5667 896.109 30.1467 895.402 30.56C894.709 30.9733 893.896 31.18 892.962 31.18ZM892.962 29.88C893.869 29.88 894.596 29.56 895.142 28.92C895.689 28.2667 895.962 27.34 895.962 26.14C895.962 24.9267 895.689 24 895.142 23.36C894.596 22.72 893.869 22.4 892.962 22.4C892.042 22.4 891.309 22.72 890.762 23.36C890.229 24 889.962 24.9267 889.962 26.14C889.962 27.34 890.229 28.2667 890.762 28.92C891.309 29.56 892.042 29.88 892.962 29.88Z" fill="#E0E0E0"/>
<circle cx="1031" cy="24" r="20" fill="#E0E0E0"/>
<path d="M1033.32 31.14C1033 31.14 1032.75 31.0533 1032.56 30.88C1032.38 30.6933 1032.28 30.44 1032.28 30.12V28.14H1026.92C1026.59 28.14 1026.32 28.0667 1026.12 27.92C1025.92 27.7733 1025.82 27.5533 1025.82 27.26C1025.82 27.0733 1025.87 26.88 1025.96 26.68C1026.06 26.48 1026.21 26.22 1026.42 25.9L1032.24 17.44C1032.39 17.2133 1032.56 17.0467 1032.74 16.94C1032.93 16.82 1033.14 16.76 1033.38 16.76C1033.66 16.76 1033.89 16.8467 1034.06 17.02C1034.25 17.18 1034.34 17.4333 1034.34 17.78V26.4H1035.6C1036.23 26.4 1036.54 26.6867 1036.54 27.26C1036.54 27.8467 1036.23 28.14 1035.6 28.14H1034.34V30.12C1034.34 30.8 1034 31.14 1033.32 31.14ZM1032.28 26.4V20.12L1027.98 26.4H1032.28Z" fill="#FCFCFC"/>
<path d="M1063.64 31C1063.04 31 1062.74 30.7 1062.74 30.1V17.8C1062.74 17.2 1063.04 16.9 1063.64 16.9H1067.5C1069.78 16.9 1071.54 17.5067 1072.78 18.72C1074.02 19.92 1074.64 21.66 1074.64 23.94C1074.64 26.22 1074.02 27.9667 1072.78 29.18C1071.54 30.3933 1069.78 31 1067.5 31H1063.64ZM1064.38 29.6H1067.38C1071.06 29.6 1072.9 27.7133 1072.9 23.94C1072.9 20.18 1071.06 18.3 1067.38 18.3H1064.38V29.6ZM1080.62 31.18C1079.96 31.18 1079.36 31.0533 1078.82 30.8C1078.3 30.5333 1077.89 30.1733 1077.58 29.72C1077.28 29.2667 1077.12 28.76 1077.12 28.2C1077.12 27.4933 1077.3 26.9333 1077.66 26.52C1078.04 26.1067 1078.64 25.8133 1079.48 25.64C1080.34 25.4533 1081.5 25.36 1082.96 25.36H1083.6V24.74C1083.6 23.9133 1083.43 23.32 1083.08 22.96C1082.75 22.5867 1082.21 22.4 1081.46 22.4C1081 22.4 1080.52 22.46 1080.04 22.58C1079.58 22.7 1079.09 22.8933 1078.58 23.16C1078.36 23.28 1078.16 23.3067 1078 23.24C1077.86 23.16 1077.75 23.04 1077.68 22.88C1077.63 22.7067 1077.63 22.5333 1077.68 22.36C1077.75 22.1733 1077.88 22.0333 1078.08 21.94C1078.66 21.6467 1079.23 21.4333 1079.8 21.3C1080.39 21.1667 1080.94 21.1 1081.46 21.1C1082.72 21.1 1083.64 21.4067 1084.24 22.02C1084.86 22.6333 1085.16 23.5867 1085.16 24.88V30.3C1085.16 30.86 1084.92 31.14 1084.42 31.14C1083.9 31.14 1083.64 30.86 1083.64 30.3V29.32C1083.39 29.8933 1083 30.3467 1082.46 30.68C1081.94 31.0133 1081.33 31.18 1080.62 31.18ZM1080.88 29.96C1081.68 29.96 1082.34 29.6867 1082.84 29.14C1083.35 28.58 1083.6 27.8733 1083.6 27.02V26.42H1082.98C1081.9 26.42 1081.05 26.4733 1080.42 26.58C1079.81 26.6733 1079.38 26.8467 1079.12 27.1C1078.88 27.34 1078.76 27.6733 1078.76 28.1C1078.76 28.6467 1078.95 29.0933 1079.32 29.44C1079.71 29.7867 1080.23 29.96 1080.88 29.96ZM1092.07 31.18C1091.2 31.18 1090.44 30.9733 1089.79 30.56C1089.15 30.1467 1088.65 29.5667 1088.29 28.82C1087.94 28.06 1087.77 27.1667 1087.77 26.14C1087.77 25.1 1087.94 24.2067 1088.29 23.46C1088.65 22.7 1089.15 22.12 1089.79 21.72C1090.44 21.3067 1091.2 21.1 1092.07 21.1C1092.83 21.1 1093.5 21.2667 1094.07 21.6C1094.66 21.9333 1095.09 22.3933 1095.37 22.98V17.58C1095.37 17.0333 1095.64 16.76 1096.19 16.76C1096.72 16.76 1096.99 17.0333 1096.99 17.58V30.3C1096.99 30.86 1096.72 31.14 1096.19 31.14C1095.66 31.14 1095.39 30.86 1095.39 30.3V29.26C1095.1 29.86 1094.66 30.3333 1094.07 30.68C1093.5 31.0133 1092.83 31.18 1092.07 31.18ZM1092.41 29.88C1093.32 29.88 1094.04 29.56 1094.59 28.92C1095.14 28.2667 1095.41 27.34 1095.41 26.14C1095.41 24.9267 1095.14 24 1094.59 23.36C1094.04 22.72 1093.32 22.4 1092.41 22.4C1091.49 22.4 1090.76 22.72 1090.21 23.36C1089.68 24 1089.41 24.9267 1089.41 26.14C1089.41 27.34 1089.68 28.2667 1090.21 28.92C1090.76 29.56 1091.49 29.88 1092.41 29.88ZM1104.27 31.18C1103.32 31.18 1102.5 30.9733 1101.81 30.56C1101.12 30.1467 1100.58 29.5667 1100.19 28.82C1099.82 28.06 1099.63 27.1667 1099.63 26.14C1099.63 25.1133 1099.82 24.2267 1100.19 23.48C1100.58 22.72 1101.12 22.1333 1101.81 21.72C1102.5 21.3067 1103.32 21.1 1104.27 21.1C1105.2 21.1 1106.02 21.3067 1106.71 21.72C1107.42 22.1333 1107.96 22.72 1108.33 23.48C1108.72 24.2267 1108.91 25.1133 1108.91 26.14C1108.91 27.1667 1108.72 28.06 1108.33 28.82C1107.96 29.5667 1107.42 30.1467 1106.71 30.56C1106.02 30.9733 1105.2 31.18 1104.27 31.18ZM1104.27 29.88C1105.18 29.88 1105.9 29.56 1106.45 28.92C1107 28.2667 1107.27 27.34 1107.27 26.14C1107.27 24.9267 1107 24 1106.45 23.36C1105.9 22.72 1105.18 22.4 1104.27 22.4C1103.35 22.4 1102.62 22.72 1102.07 23.36C1101.54 24 1101.27 24.9267 1101.27 26.14C1101.27 27.34 1101.54 28.2667 1102.07 28.92C1102.62 29.56 1103.35 29.88 1104.27 29.88ZM1114.82 31.18C1114.22 31.18 1113.62 31.1067 1113 30.96C1112.4 30.8 1111.84 30.5467 1111.32 30.2C1111.08 30.0533 1110.96 29.8667 1110.96 29.64C1110.98 29.4 1111.07 29.2133 1111.24 29.08C1111.42 28.9467 1111.64 28.9467 1111.9 29.08C1112.42 29.4 1112.92 29.6267 1113.4 29.76C1113.9 29.88 1114.38 29.94 1114.86 29.94C1115.62 29.94 1116.2 29.8 1116.58 29.52C1116.97 29.24 1117.16 28.86 1117.16 28.38C1117.16 28.0067 1117.04 27.7133 1116.78 27.5C1116.53 27.2733 1116.13 27.1 1115.58 26.98L1113.76 26.58C1112.11 26.22 1111.28 25.3667 1111.28 24.02C1111.28 23.14 1111.63 22.4333 1112.32 21.9C1113.03 21.3667 1113.95 21.1 1115.08 21.1C1115.66 21.1 1116.21 21.18 1116.74 21.34C1117.28 21.4867 1117.76 21.7267 1118.18 22.06C1118.41 22.22 1118.51 22.4133 1118.48 22.64C1118.46 22.8667 1118.35 23.0467 1118.16 23.18C1117.99 23.3 1117.78 23.28 1117.52 23.12C1117.12 22.8533 1116.72 22.66 1116.3 22.54C1115.89 22.4067 1115.48 22.34 1115.08 22.34C1114.34 22.34 1113.77 22.4867 1113.38 22.78C1113 23.0733 1112.8 23.46 1112.8 23.94C1112.8 24.6867 1113.3 25.1667 1114.28 25.38L1116.1 25.76C1116.96 25.9467 1117.6 26.2467 1118.04 26.66C1118.48 27.06 1118.7 27.6067 1118.7 28.3C1118.7 29.1933 1118.35 29.9 1117.64 30.42C1116.94 30.9267 1116 31.18 1114.82 31.18ZM1131.65 31.18C1130.89 31.18 1130.21 31.0133 1129.63 30.68C1129.04 30.3333 1128.61 29.86 1128.33 29.26V30.3C1128.33 30.86 1128.06 31.14 1127.53 31.14C1126.99 31.14 1126.73 30.86 1126.73 30.3V17.58C1126.73 17.0333 1126.99 16.76 1127.53 16.76C1128.07 16.76 1128.35 17.0333 1128.35 17.58V22.96C1128.63 22.3867 1129.06 21.9333 1129.65 21.6C1130.23 21.2667 1130.9 21.1 1131.65 21.1C1132.51 21.1 1133.27 21.3067 1133.91 21.72C1134.56 22.12 1135.06 22.7 1135.41 23.46C1135.77 24.2067 1135.95 25.1 1135.95 26.14C1135.95 27.1667 1135.77 28.06 1135.41 28.82C1135.06 29.5667 1134.56 30.1467 1133.91 30.56C1133.27 30.9733 1132.51 31.18 1131.65 31.18ZM1131.31 29.88C1132.21 29.88 1132.94 29.56 1133.49 28.92C1134.03 28.2667 1134.31 27.34 1134.31 26.14C1134.31 24.9267 1134.03 24 1133.49 23.36C1132.94 22.72 1132.21 22.4 1131.31 22.4C1130.4 22.4 1129.67 22.72 1129.13 23.36C1128.58 24 1128.31 24.9267 1128.31 26.14C1128.31 27.34 1128.58 28.2667 1129.13 28.92C1129.67 29.56 1130.4 29.88 1131.31 29.88ZM1141.65 31.18C1140.98 31.18 1140.38 31.0533 1139.85 30.8C1139.33 30.5333 1138.91 30.1733 1138.61 29.72C1138.3 29.2667 1138.15 28.76 1138.15 28.2C1138.15 27.4933 1138.33 26.9333 1138.69 26.52C1139.06 26.1067 1139.67 25.8133 1140.51 25.64C1141.36 25.4533 1142.52 25.36 1143.99 25.36H1144.63V24.74C1144.63 23.9133 1144.45 23.32 1144.11 22.96C1143.77 22.5867 1143.23 22.4 1142.49 22.4C1142.02 22.4 1141.55 22.46 1141.07 22.58C1140.6 22.7 1140.11 22.8933 1139.61 23.16C1139.38 23.28 1139.19 23.3067 1139.03 23.24C1138.88 23.16 1138.77 23.04 1138.71 22.88C1138.65 22.7067 1138.65 22.5333 1138.71 22.36C1138.77 22.1733 1138.91 22.0333 1139.11 21.94C1139.68 21.6467 1140.25 21.4333 1140.83 21.3C1141.41 21.1667 1141.97 21.1 1142.49 21.1C1143.74 21.1 1144.67 21.4067 1145.27 22.02C1145.88 22.6333 1146.19 23.5867 1146.19 24.88V30.3C1146.19 30.86 1145.94 31.14 1145.45 31.14C1144.93 31.14 1144.67 30.86 1144.67 30.3V29.32C1144.41 29.8933 1144.02 30.3467 1143.49 30.68C1142.97 31.0133 1142.35 31.18 1141.65 31.18ZM1141.91 29.96C1142.71 29.96 1143.36 29.6867 1143.87 29.14C1144.37 28.58 1144.63 27.8733 1144.63 27.02V26.42H1144.01C1142.93 26.42 1142.07 26.4733 1141.45 26.58C1140.83 26.6733 1140.4 26.8467 1140.15 27.1C1139.91 27.34 1139.79 27.6733 1139.79 28.1C1139.79 28.6467 1139.97 29.0933 1140.35 29.44C1140.73 29.7867 1141.25 29.96 1141.91 29.96ZM1150.19 31.14C1149.66 31.14 1149.39 30.86 1149.39 30.3V21.96C1149.39 21.4133 1149.65 21.14 1150.17 21.14C1150.71 21.14 1150.97 21.4133 1150.97 21.96V22.94C1151.29 22.3267 1151.75 21.8667 1152.33 21.56C1152.92 21.2533 1153.58 21.1 1154.31 21.1C1156.62 21.1 1157.77 22.38 1157.77 24.94V30.3C1157.77 30.86 1157.51 31.14 1156.97 31.14C1156.43 31.14 1156.15 30.86 1156.15 30.3V25.04C1156.15 24.1333 1155.97 23.4733 1155.61 23.06C1155.27 22.6333 1154.71 22.42 1153.93 22.42C1153.04 22.42 1152.33 22.7 1151.79 23.26C1151.27 23.8067 1151.01 24.54 1151.01 25.46V30.3C1151.01 30.86 1150.74 31.14 1150.19 31.14ZM1165.08 31.18C1164.11 31.18 1163.27 30.9733 1162.56 30.56C1161.85 30.1333 1161.31 29.54 1160.92 28.78C1160.55 28.0067 1160.36 27.1067 1160.36 26.08C1160.36 24.5333 1160.78 23.32 1161.62 22.44C1162.46 21.5467 1163.61 21.1 1165.08 21.1C1165.56 21.1 1166.06 21.18 1166.58 21.34C1167.1 21.4867 1167.57 21.7333 1168 22.08C1168.23 22.24 1168.32 22.44 1168.28 22.68C1168.25 22.92 1168.14 23.1 1167.94 23.22C1167.75 23.34 1167.53 23.3133 1167.28 23.14C1166.92 22.8733 1166.56 22.6867 1166.2 22.58C1165.85 22.4733 1165.51 22.42 1165.18 22.42C1164.17 22.42 1163.39 22.74 1162.84 23.38C1162.29 24.0067 1162.02 24.9133 1162.02 26.1C1162.02 27.26 1162.29 28.18 1162.84 28.86C1163.39 29.5267 1164.17 29.86 1165.18 29.86C1165.51 29.86 1165.85 29.8067 1166.2 29.7C1166.56 29.5933 1166.92 29.4067 1167.28 29.14C1167.53 28.9667 1167.75 28.9467 1167.94 29.08C1168.13 29.2 1168.23 29.38 1168.24 29.62C1168.27 29.86 1168.17 30.0533 1167.96 30.2C1167.53 30.5467 1167.07 30.8 1166.56 30.96C1166.05 31.1067 1165.56 31.18 1165.08 31.18ZM1173.48 31.18C1172.81 31.18 1172.21 31.0533 1171.68 30.8C1171.16 30.5333 1170.75 30.1733 1170.44 29.72C1170.13 29.2667 1169.98 28.76 1169.98 28.2C1169.98 27.4933 1170.16 26.9333 1170.52 26.52C1170.89 26.1067 1171.5 25.8133 1172.34 25.64C1173.19 25.4533 1174.35 25.36 1175.82 25.36H1176.46V24.74C1176.46 23.9133 1176.29 23.32 1175.94 22.96C1175.61 22.5867 1175.07 22.4 1174.32 22.4C1173.85 22.4 1173.38 22.46 1172.9 22.58C1172.43 22.7 1171.95 22.8933 1171.44 23.16C1171.21 23.28 1171.02 23.3067 1170.86 23.24C1170.71 23.16 1170.61 23.04 1170.54 22.88C1170.49 22.7067 1170.49 22.5333 1170.54 22.36C1170.61 22.1733 1170.74 22.0333 1170.94 21.94C1171.51 21.6467 1172.09 21.4333 1172.66 21.3C1173.25 21.1667 1173.8 21.1 1174.32 21.1C1175.57 21.1 1176.5 21.4067 1177.1 22.02C1177.71 22.6333 1178.02 23.5867 1178.02 24.88V30.3C1178.02 30.86 1177.77 31.14 1177.28 31.14C1176.76 31.14 1176.5 30.86 1176.5 30.3V29.32C1176.25 29.8933 1175.85 30.3467 1175.32 30.68C1174.8 31.0133 1174.19 31.18 1173.48 31.18ZM1173.74 29.96C1174.54 29.96 1175.19 29.6867 1175.7 29.14C1176.21 28.58 1176.46 27.8733 1176.46 27.02V26.42H1175.84C1174.76 26.42 1173.91 26.4733 1173.28 26.58C1172.67 26.6733 1172.23 26.8467 1171.98 27.1C1171.74 27.34 1171.62 27.6733 1171.62 28.1C1171.62 28.6467 1171.81 29.0933 1172.18 29.44C1172.57 29.7867 1173.09 29.96 1173.74 29.96ZM1175 19.88C1174.88 20.0667 1174.73 20.1533 1174.54 20.14C1174.35 20.1133 1174.2 20.0333 1174.08 19.9C1173.97 19.7533 1173.97 19.5733 1174.06 19.36L1175.74 16.1C1175.86 15.8733 1176.01 15.74 1176.2 15.7C1176.4 15.66 1176.58 15.6867 1176.74 15.78C1176.91 15.8733 1177.03 16.0133 1177.1 16.2C1177.17 16.3733 1177.13 16.56 1177 16.76L1175 19.88ZM1182.04 31.14C1181.5 31.14 1181.22 30.86 1181.22 30.3V21.96C1181.22 21.4133 1181.48 21.14 1182 21.14C1182.54 21.14 1182.8 21.4133 1182.8 21.96V23.02C1183.07 22.4067 1183.48 21.94 1184.04 21.62C1184.6 21.2867 1185.27 21.1067 1186.04 21.08C1186.47 21.04 1186.7 21.2533 1186.72 21.72C1186.76 22.1867 1186.52 22.4467 1186 22.5L1185.68 22.54C1184.76 22.62 1184.06 22.9133 1183.58 23.42C1183.1 23.9133 1182.86 24.5933 1182.86 25.46V30.3C1182.86 30.86 1182.59 31.14 1182.04 31.14ZM1189.39 18.94C1188.69 18.94 1188.33 18.6067 1188.33 17.94C1188.33 17.2867 1188.69 16.96 1189.39 16.96C1190.1 16.96 1190.45 17.2867 1190.45 17.94C1190.45 18.6067 1190.1 18.94 1189.39 18.94ZM1189.39 31.1C1188.86 31.1 1188.59 30.8067 1188.59 30.22V22.04C1188.59 21.4667 1188.86 21.18 1189.39 21.18C1189.94 21.18 1190.21 21.4667 1190.21 22.04V30.22C1190.21 30.8067 1189.94 31.1 1189.39 31.1ZM1197.48 31.18C1196.53 31.18 1195.71 30.9733 1195.02 30.56C1194.33 30.1467 1193.79 29.5667 1193.4 28.82C1193.03 28.06 1192.84 27.1667 1192.84 26.14C1192.84 25.1133 1193.03 24.2267 1193.4 23.48C1193.79 22.72 1194.33 22.1333 1195.02 21.72C1195.71 21.3067 1196.53 21.1 1197.48 21.1C1198.41 21.1 1199.23 21.3067 1199.92 21.72C1200.63 22.1333 1201.17 22.72 1201.54 23.48C1201.93 24.2267 1202.12 25.1133 1202.12 26.14C1202.12 27.1667 1201.93 28.06 1201.54 28.82C1201.17 29.5667 1200.63 30.1467 1199.92 30.56C1199.23 30.9733 1198.41 31.18 1197.48 31.18ZM1197.48 29.88C1198.39 29.88 1199.11 29.56 1199.66 28.92C1200.21 28.2667 1200.48 27.34 1200.48 26.14C1200.48 24.9267 1200.21 24 1199.66 23.36C1199.11 22.72 1198.39 22.4 1197.48 22.4C1196.56 22.4 1195.83 22.72 1195.28 23.36C1194.75 24 1194.48 24.9267 1194.48 26.14C1194.48 27.34 1194.75 28.2667 1195.28 28.92C1195.83 29.56 1196.56 29.88 1197.48 29.88ZM1208.03 31.18C1207.43 31.18 1206.83 31.1067 1206.21 30.96C1205.61 30.8 1205.05 30.5467 1204.53 30.2C1204.29 30.0533 1204.17 29.8667 1204.17 29.64C1204.19 29.4 1204.28 29.2133 1204.45 29.08C1204.63 28.9467 1204.85 28.9467 1205.11 29.08C1205.63 29.4 1206.13 29.6267 1206.61 29.76C1207.11 29.88 1207.59 29.94 1208.07 29.94C1208.83 29.94 1209.41 29.8 1209.79 29.52C1210.18 29.24 1210.37 28.86 1210.37 28.38C1210.37 28.0067 1210.25 27.7133 1209.99 27.5C1209.74 27.2733 1209.34 27.1 1208.79 26.98L1206.97 26.58C1205.32 26.22 1204.49 25.3667 1204.49 24.02C1204.49 23.14 1204.84 22.4333 1205.53 21.9C1206.24 21.3667 1207.16 21.1 1208.29 21.1C1208.87 21.1 1209.42 21.18 1209.95 21.34C1210.49 21.4867 1210.97 21.7267 1211.39 22.06C1211.62 22.22 1211.72 22.4133 1211.69 22.64C1211.67 22.8667 1211.56 23.0467 1211.37 23.18C1211.2 23.3 1210.99 23.28 1210.73 23.12C1210.33 22.8533 1209.93 22.66 1209.51 22.54C1209.1 22.4067 1208.69 22.34 1208.29 22.34C1207.55 22.34 1206.98 22.4867 1206.59 22.78C1206.21 23.0733 1206.01 23.46 1206.01 23.94C1206.01 24.6867 1206.51 25.1667 1207.49 25.38L1209.31 25.76C1210.17 25.9467 1210.81 26.2467 1211.25 26.66C1211.69 27.06 1211.91 27.6067 1211.91 28.3C1211.91 29.1933 1211.56 29.9 1210.85 30.42C1210.15 30.9267 1209.21 31.18 1208.03 31.18Z" fill="#E0E0E0"/>
<rect y="64" width="1258" height="2" fill="#E0E0E0"/>
<rect y="64" width="245" height="2" fill="#F9E423"/>
</svg>
